<?xml version="1.0" encoding="utf-8"?>
<!-- Generator: Adobe Illustrator 20.0.0, SVG Export Plug-In . SVG Version: 6.00 Build 0)  -->
<svg version="1.1" id="Capa_1" xmlns="http://www.w3.org/2000/svg" xmlns:xlink="http://www.w3.org/1999/xlink" x="0px" y="0px"
	 viewBox="0 0 884.2 735.6" style="enable-background:new 0 0 884.2 735.6;" xml:space="preserve">
<style type="text/css">
	.st0{opacity:0.5;fill:none;stroke:#000000;stroke-width:0.25;stroke-miterlimit:10;enable-background:new    ;}
	.st1{opacity:0.5;fill:none;stroke:#000000;stroke-width:0.5;stroke-miterlimit:10;enable-background:new    ;}
	.st2{opacity:0.8;}
	.st3{fill:url(#SVGID_1_);}
	.st4{fill:#ED1C24;}
</style>
<rect x="401" y="345.7" class="st0" width="81.4" height="81.4"/>
<rect x="508.5" y="345.7" class="st0" width="81.4" height="81.4"/>
<rect x="293.3" y="147.6" class="st0" width="81.4" height="81.4"/>
<rect x="185.3" y="345.7" class="st0" width="81.4" height="81.4"/>
<rect x="293.3" y="345.7" class="st0" width="81.4" height="81.4"/>
<rect x="401" y="147.6" class="st0" width="81.4" height="81.4"/>
<rect x="185.2" y="499.5" class="st0" width="81.4" height="81.4"/>
<rect x="293.3" y="499.5" class="st0" width="81.4" height="81.4"/>
<rect x="401" y="499.5" class="st0" width="81.4" height="81.4"/>
<rect x="508.5" y="499.5" class="st0" width="81.4" height="81.4"/>
<rect x="185.2" y="652.7" class="st0" width="81.4" height="81.4"/>
<rect x="293.3" y="652.7" class="st0" width="81.4" height="81.4"/>
<rect x="401" y="652.7" class="st0" width="81.4" height="81.4"/>
<rect x="508.6" y="651.4" class="st0" width="81.4" height="81.4"/>
<rect x="185.3" y="147.6" class="st0" width="81.4" height="81.4"/>
<line class="st1" x1="593.6" y1="282.6" x2="185.2" y2="282.6"/>
<line class="st1" x1="524.8" y1="84.9" x2="185.9" y2="84.9"/>
<g class="st2">
	<g>
		<g>
			
				<linearGradient id="SVGID_1_" gradientUnits="userSpaceOnUse" x1="652.25" y1="988.2" x2="652.25" y2="471.9" gradientTransform="matrix(1 0 0 1 0 -286)">
				<stop  offset="0" style="stop-color:#FFFFFF"/>
				<stop  offset="1" style="stop-color:#ED1C24"/>
			</linearGradient>
			<rect x="652" y="185.9" class="st3" width="0.5" height="516.3"/>
		</g>
		<g>
			<polygon class="st4" points="649.7,186.6 652.2,182.3 654.7,186.6 			"/>
		</g>
	</g>
</g>
</svg>
