<?xml version="1.0" encoding="utf-8"?>
<!-- Generator: Adobe Illustrator 20.0.0, SVG Export Plug-In . SVG Version: 6.00 Build 0)  -->
<svg version="1.1" id="Capa_1" xmlns="http://www.w3.org/2000/svg" xmlns:xlink="http://www.w3.org/1999/xlink" x="0px" y="0px"
	 viewBox="0 0 106.7 81.6" style="enable-background:new 0 0 106.7 81.6;" xml:space="preserve">
<style type="text/css">
	.st0{opacity:0.5;fill:none;stroke:#000000;stroke-width:0.25;stroke-miterlimit:10;}
	.st1{fill:#ED1C24;}
	.st2{fill:#495E4A;}
	.st3{opacity:0.99;fill:#44B254;}
	.st4{fill:none;stroke:#000000;stroke-width:0.25;stroke-miterlimit:10;}
</style>
<g>
	<rect x="0.1" y="0.1" class="st0" width="81.4" height="81.4"/>
	<g>
		<g>
			<path class="st1" d="M8.8,33.9h1.6c1.8,0,2.9,1,2.9,2.9c0,2-1.1,3-2.8,3H8.8V33.9z M10.3,39c1.2,0,1.9-0.7,1.9-2.1
				c0-1.4-0.7-2.1-1.9-2.1H9.8V39H10.3z"/>
			<path class="st1" d="M15.3,33.9h3.5v0.9h-2.5v1.5h2.1v0.9h-2.1v1.7h2.6v0.9h-3.6V33.9z"/>
			<path class="st1" d="M21.2,38.4c0.4,0.4,1,0.7,1.5,0.7c0.7,0,1-0.3,1-0.8c0-0.5-0.4-0.6-0.9-0.9l-0.8-0.4
				c-0.6-0.2-1.2-0.7-1.2-1.6c0-0.9,0.8-1.7,2-1.7c0.7,0,1.4,0.3,1.8,0.7l-0.5,0.7c-0.4-0.3-0.8-0.5-1.3-0.5c-0.6,0-0.9,0.3-0.9,0.7
				c0,0.5,0.4,0.6,0.9,0.8l0.8,0.3c0.7,0.3,1.2,0.7,1.2,1.6c0,1-0.8,1.7-2.1,1.7c-0.8,0-1.6-0.3-2.1-0.9L21.2,38.4z"/>
			<path class="st1" d="M26.8,33.9h1v5.9h-1V33.9z"/>
			<path class="st1" d="M32.8,33.8c0.8,0,1.4,0.4,1.8,0.7L34,35.2c-0.3-0.3-0.6-0.5-1.2-0.5c-1,0-1.7,0.8-1.7,2.1
				c0,1.3,0.6,2.2,1.8,2.2c0.3,0,0.7-0.1,0.8-0.3v-1.3h-1.1v-0.9h2.1v2.6c-0.4,0.4-1.1,0.7-1.9,0.7c-1.6,0-2.7-1.1-2.7-3
				C30,35,31.2,33.8,32.8,33.8z"/>
			<path class="st1" d="M36.8,33.9h1v3.4c0,1.3,0.5,1.7,1.2,1.7c0.7,0,1.2-0.4,1.2-1.7v-3.4h1v3.3c0,1.9-0.9,2.7-2.2,2.7
				c-1.4,0-2.2-0.8-2.2-2.7V33.9z"/>
			<path class="st1" d="M46.2,38.2h-2l-0.5,1.6h-1.1l1.9-5.9h1.2l1.9,5.9h-1.1L46.2,38.2z M46,37.4l-0.2-0.7
				c-0.2-0.6-0.4-1.3-0.5-1.9h0c-0.2,0.7-0.3,1.3-0.5,1.9l-0.2,0.7H46z"/>
			<path class="st1" d="M49.4,33.9h1v5h2.4v0.9h-3.5V33.9z"/>
			<path class="st1" d="M54.8,33.9h1.6c1.8,0,2.9,1,2.9,2.9c0,2-1.1,3-2.8,3h-1.6V33.9z M56.3,39c1.2,0,1.9-0.7,1.9-2.1
				c0-1.4-0.7-2.1-1.9-2.1h-0.5V39H56.3z"/>
			<path class="st1" d="M64,38.2h-2l-0.5,1.6h-1.1l1.9-5.9h1.2l1.9,5.9h-1.1L64,38.2z M63.8,37.4l-0.2-0.7c-0.2-0.6-0.4-1.3-0.5-1.9
				h0c-0.2,0.7-0.3,1.3-0.5,1.9l-0.2,0.7H63.8z"/>
			<path class="st1" d="M67.2,33.9h1.6c1.8,0,2.9,1,2.9,2.9c0,2-1.1,3-2.8,3h-1.6V33.9z M68.7,39c1.2,0,1.9-0.7,1.9-2.1
				c0-1.4-0.7-2.1-1.9-2.1h-0.5V39H68.7z"/>
		</g>
	</g>
	<rect x="6.3" y="29.3" class="st2" width="69.7" height="1"/>
	<rect x="6.3" y="43.7" class="st3" width="69.7" height="30.3"/>
	<line class="st4" x1="76.6" y1="29.8" x2="106.7" y2="29.8"/>
	<line class="st4" x1="76.6" y1="49.8" x2="106.7" y2="49.8"/>
</g>
</svg>
