<?xml version="1.0" encoding="utf-8"?>
<!-- Generator: Adobe Illustrator 20.0.0, SVG Export Plug-In . SVG Version: 6.00 Build 0)  -->
<svg version="1.1" id="Capa_1" xmlns="http://www.w3.org/2000/svg" xmlns:xlink="http://www.w3.org/1999/xlink" x="0px" y="0px"
	 viewBox="0 0 884.2 23.7" style="enable-background:new 0 0 884.2 23.7;" xml:space="preserve">
<style type="text/css">
	.st0{opacity:0.5;}
	.st1{fill:none;stroke:#000000;stroke-width:0.75;stroke-miterlimit:10;}
	.st2{fill:none;stroke:#000000;stroke-width:0.75;stroke-miterlimit:10;stroke-dasharray:3.0074,4.0098;}
</style>
<g>
	<g class="st0">
		<g>
			<line class="st1" x1="884.2" y1="23.7" x2="882.7" y2="23.7"/>
			<line class="st2" x1="878.6" y1="23.7" x2="3.5" y2="23.7"/>
			<line class="st1" x1="1.5" y1="23.7" x2="0" y2="23.7"/>
		</g>
	</g>
</g>
<g>
	<path d="M26.6,7.7h1.8c1.2,0,2.1,0.5,2.1,1.6c0,1.6-1.2,2.3-2.9,2.3h-1l-0.5,2.6h-0.8L26.6,7.7z M27.7,11c1.3,0,2.1-0.5,2.1-1.6
		c0-0.8-0.5-1.1-1.5-1.1h-1L26.7,11H27.7z"/>
	<path d="M34.3,9.3c0.5,0,0.9,0.3,1.2,0.7l0,0l0.2-0.6h0.6l-1,4.9h-0.6l0.1-0.7l0,0c-0.5,0.5-1.1,0.8-1.7,0.8
		c-0.8,0-1.4-0.6-1.4-1.8C31.6,10.7,32.9,9.3,34.3,9.3z M34.8,12.8l0.4-2.2c-0.3-0.5-0.6-0.7-1-0.7c-1,0-1.9,1.2-1.9,2.6
		c0,0.8,0.3,1.2,0.9,1.2C33.8,13.7,34.4,13.4,34.8,12.8z"/>
	<path d="M38,13.1c0.3,0.4,0.7,0.7,1.2,0.7c0.6,0,1-0.4,1-0.8c0-0.3-0.2-0.5-0.9-0.9c-0.8-0.4-1.1-0.8-1.1-1.3
		c0-0.9,0.8-1.4,1.7-1.4c0.6,0,1.1,0.3,1.4,0.7L41,10.4c-0.3-0.3-0.6-0.5-1-0.5c-0.5,0-0.9,0.4-0.9,0.8s0.4,0.6,0.9,0.9
		c0.9,0.5,1.1,0.8,1.1,1.4c0,0.9-0.8,1.5-1.8,1.5c-0.6,0-1.3-0.4-1.7-0.9L38,13.1z"/>
	<path d="M45.6,9.3c1.1,0,1.5,0.8,1.5,1.8c0,0.4-0.1,0.8-0.2,0.9h-3.2c-0.2,1.2,0.5,1.8,1.3,1.8c0.4,0,0.8-0.2,1.1-0.4l0.3,0.5
		c-0.4,0.3-0.9,0.5-1.6,0.5c-1.1,0-1.9-0.7-1.9-2C43,10.5,44.3,9.3,45.6,9.3z M46.4,11.5c0-0.2,0-0.3,0-0.5c0-0.5-0.2-1.1-0.9-1.1
		s-1.4,0.6-1.7,1.6H46.4z"/>
	<path d="M54.3,9.3c1.1,0,1.5,0.8,1.5,1.8c0,0.4-0.1,0.8-0.2,0.9h-3.2c-0.2,1.2,0.5,1.8,1.3,1.8c0.4,0,0.8-0.2,1.1-0.4l0.3,0.5
		c-0.4,0.3-0.9,0.5-1.6,0.5c-1.1,0-1.9-0.7-1.9-2C51.7,10.5,53.1,9.3,54.3,9.3z M55.1,11.5c0-0.2,0-0.3,0-0.5c0-0.5-0.2-1.1-0.9-1.1
		s-1.4,0.6-1.7,1.6H55.1z"/>
	<path d="M58.9,7.1h0.8l-1.2,6.2c0,0.1,0,0.2,0,0.2c0,0.1,0.1,0.2,0.2,0.2c0,0,0.1,0,0.2,0v0.6c-0.1,0-0.3,0.1-0.5,0.1
		c-0.4,0-0.7-0.2-0.7-0.6c0-0.1,0-0.2,0.1-0.4L58.9,7.1z"/>
	<path d="M64.8,9.4h0.6l-0.1,0.9l0,0c0.4-0.6,0.9-1,1.5-1c0.2,0,0.3,0,0.5,0.1L67.1,10c-0.1,0-0.2,0-0.4,0c-0.5,0-1,0.4-1.4,1.2
		l-0.6,3.1h-0.8L64.8,9.4z"/>
	<path d="M70.9,9.3c0.5,0,0.9,0.3,1.2,0.7l0,0l0.2-0.6h0.6l-1,4.9h-0.6l0.1-0.7l0,0c-0.5,0.5-1.1,0.8-1.7,0.8
		c-0.8,0-1.4-0.6-1.4-1.8C68.3,10.7,69.6,9.3,70.9,9.3z M71.5,12.8l0.4-2.2c-0.3-0.5-0.6-0.7-1-0.7c-1,0-1.9,1.2-1.9,2.6
		c0,0.8,0.4,1.2,0.9,1.2C70.5,13.7,71,13.4,71.5,12.8z"/>
	<path d="M75.6,10h-0.7L75,9.4h0.8l0.4-1.3h0.7l-0.3,1.3h1.2L77.6,10h-1.2l-0.6,2.8c0,0.1,0,0.2,0,0.4c0,0.4,0.2,0.6,0.6,0.6
		c0.2,0,0.4-0.1,0.5-0.1l0.2,0.5c-0.2,0.1-0.5,0.2-0.9,0.2c-0.8,0-1.2-0.5-1.2-1.1c0-0.2,0-0.4,0-0.5L75.6,10z"/>
	<path d="M78.8,12.4c0-1.8,1.3-3.1,2.6-3.1c1,0,1.7,0.7,1.7,1.9c0,1.8-1.3,3.1-2.6,3.1C79.5,14.4,78.8,13.6,78.8,12.4z M79.6,12.4
		c0,0.9,0.4,1.4,1,1.4c0.9,0,1.8-1.1,1.8-2.5c0-0.9-0.4-1.4-1-1.4C80.4,9.9,79.6,11,79.6,12.4z M82.2,7.1H83l-1.4,1.4H81L82.2,7.1z"
		/>
	<path d="M85.8,9.4h0.6l-0.1,0.7l0,0c0.5-0.5,1.1-0.8,1.7-0.8c0.8,0,1.1,0.5,1.1,1.2c0,0.2,0,0.4-0.1,0.7l-0.6,3.1h-0.8l0.6-3
		c0-0.3,0.1-0.4,0.1-0.6c0-0.5-0.2-0.7-0.7-0.7c-0.4,0-0.8,0.3-1.5,0.9l-0.7,3.4h-0.8L85.8,9.4z"/>
	<path d="M94.7,14.7l-0.3,1.6h-0.8L95,9.4h0.6V10l0,0c0.5-0.4,1.1-0.8,1.7-0.8c0.8,0,1.4,0.6,1.4,1.8c0,1.9-1.3,3.3-2.6,3.3
		c-0.5,0-0.9-0.3-1.2-0.7l0,0L94.7,14.7z M95.5,10.7L95,13c0.3,0.5,0.6,0.7,1,0.7c1,0,1.9-1.2,1.9-2.6c0-0.8-0.3-1.2-0.9-1.2
		C96.5,9.9,96,10.2,95.5,10.7z"/>
	<path d="M100.5,12.4c0-1.8,1.3-3.1,2.6-3.1c1,0,1.7,0.7,1.7,1.9c0,1.8-1.3,3.1-2.6,3.1C101.1,14.4,100.5,13.6,100.5,12.4z
		 M101.2,12.4c0,0.9,0.4,1.4,1,1.4c0.9,0,1.8-1.1,1.8-2.5c0-0.9-0.4-1.4-1-1.4C102.1,9.9,101.2,11,101.2,12.4z"/>
	<path d="M107.5,9.4h0.6l-0.1,0.9l0,0c0.4-0.6,0.9-1,1.5-1c0.2,0,0.3,0,0.5,0.1l-0.3,0.7c-0.1,0-0.2-0.1-0.4-0.1
		c-0.5,0-1,0.4-1.4,1.2l-0.6,3.1h-0.8L107.5,9.4z"/>
	<path d="M115.3,7.1h0.8l-1.2,6.2c0,0.1,0,0.2,0,0.2c0,0.1,0.1,0.2,0.2,0.2c0,0,0.1,0,0.2,0v0.6c-0.1,0-0.3,0.1-0.5,0.1
		c-0.4,0-0.6-0.2-0.6-0.6c0-0.1,0-0.2,0.1-0.4L115.3,7.1z"/>
	<path d="M117.4,12.4c0-1.8,1.3-3.1,2.6-3.1c1,0,1.7,0.7,1.7,1.9c0,1.8-1.3,3.1-2.6,3.1C118.1,14.4,117.4,13.6,117.4,12.4z
		 M118.2,12.4c0,0.9,0.4,1.4,1,1.4c0.9,0,1.8-1.1,1.8-2.5c0-0.9-0.4-1.4-1-1.4C119.1,9.9,118.2,11,118.2,12.4z"/>
	<path d="M123.6,13.1c0.3,0.4,0.7,0.7,1.2,0.7c0.6,0,1-0.4,1-0.8c0-0.3-0.2-0.5-0.9-0.9c-0.7-0.4-1.1-0.8-1.1-1.3
		c0-0.9,0.8-1.4,1.7-1.4c0.6,0,1.1,0.3,1.4,0.7l-0.4,0.4c-0.3-0.3-0.6-0.5-1-0.5c-0.5,0-0.9,0.4-0.9,0.8s0.4,0.6,0.9,0.9
		c0.9,0.5,1.1,0.8,1.1,1.4c0,0.9-0.8,1.5-1.8,1.5c-0.7,0-1.3-0.4-1.7-0.9L123.6,13.1z"/>
	<path d="M136.1,9.4l-1,5.1c-0.3,1.3-1.1,2-2.3,2c-0.7,0-1.2-0.3-1.7-0.7l0.4-0.5c0.4,0.3,0.8,0.6,1.4,0.6c0.8,0,1.3-0.6,1.5-1.4
		l0.2-1l0,0c-0.5,0.5-1,0.8-1.6,0.8c-0.8,0-1.4-0.6-1.4-1.7c0-1.8,1.3-3.2,2.6-3.2c0.5,0,0.9,0.3,1.2,0.7l0,0l0.2-0.6L136.1,9.4
		L136.1,9.4z M134.7,12.7l0.4-2.1c-0.3-0.5-0.6-0.7-1-0.7c-0.9,0-1.8,1.2-1.8,2.5c0,0.8,0.3,1.2,0.9,1.2
		C133.6,13.6,134.2,13.3,134.7,12.7z"/>
	<path d="M138.7,9.4h0.6l-0.1,0.9l0,0c0.4-0.6,0.9-1,1.5-1c0.2,0,0.3,0,0.5,0.1L141,10c-0.1,0-0.2-0.1-0.4-0.1c-0.5,0-1,0.4-1.4,1.2
		l-0.6,3.1h-0.8L138.7,9.4z"/>
	<path d="M144.8,9.3c0.5,0,0.9,0.3,1.2,0.7l0,0l0.2-0.6h0.6l-1,4.9h-0.6l0.1-0.7l0,0c-0.5,0.5-1.1,0.8-1.7,0.8
		c-0.8,0-1.4-0.6-1.4-1.8C142.1,10.7,143.4,9.3,144.8,9.3z M145.4,12.8l0.4-2.2c-0.3-0.5-0.6-0.7-1-0.7c-1,0-1.9,1.2-1.9,2.6
		c0,0.8,0.4,1.2,0.9,1.2C144.3,13.7,144.9,13.4,145.4,12.8z M145.5,7.1h0.8l-1.4,1.4h-0.6L145.5,7.1z"/>
	<path d="M148.9,9.4h0.6l0.2-0.8c0.2-1,0.7-1.6,1.5-1.6c0.3,0,0.6,0.1,0.9,0.2l-0.3,0.5c-0.1-0.1-0.3-0.2-0.5-0.2
		c-0.4,0-0.7,0.4-0.8,0.9l-0.2,0.8h1l-0.1,0.6h-1l-0.8,4.2h-0.8l0.8-4.2h-0.6L148.9,9.4z"/>
	<path d="M153.2,9.4h0.8l-1,4.9h-0.8L153.2,9.4z M153.4,7.9c0-0.3,0.3-0.6,0.6-0.6s0.5,0.2,0.5,0.5s-0.3,0.6-0.6,0.6
		C153.6,8.4,153.4,8.2,153.4,7.9z"/>
	<path d="M158.4,9.3c0.6,0,1,0.3,1.3,0.6l-0.5,0.5c-0.2-0.3-0.5-0.4-0.9-0.4c-1,0-1.9,1.1-1.9,2.5c0,0.9,0.4,1.4,1.1,1.4
		c0.4,0,0.8-0.2,1.1-0.4l0.3,0.5c-0.3,0.3-0.8,0.6-1.6,0.6c-1.1,0-1.8-0.7-1.8-1.9C155.7,10.6,157,9.3,158.4,9.3z"/>
	<path d="M160.9,12.4c0-1.8,1.3-3.1,2.6-3.1c1,0,1.7,0.7,1.7,1.9c0,1.8-1.3,3.1-2.6,3.1C161.6,14.4,160.9,13.6,160.9,12.4z
		 M161.7,12.4c0,0.9,0.4,1.4,1,1.4c0.9,0,1.8-1.1,1.8-2.5c0-0.9-0.4-1.4-1-1.4C162.6,9.9,161.7,11,161.7,12.4z"/>
	<path d="M167.1,13.1c0.3,0.4,0.7,0.7,1.2,0.7c0.6,0,1-0.4,1-0.8c0-0.3-0.2-0.5-0.9-0.9c-0.8-0.4-1.1-0.8-1.1-1.3
		c0-0.9,0.8-1.4,1.7-1.4c0.6,0,1.1,0.3,1.4,0.7l-0.4,0.4c-0.3-0.3-0.6-0.5-1-0.5c-0.5,0-0.9,0.4-0.9,0.8s0.4,0.6,0.9,0.9
		c0.9,0.5,1.1,0.8,1.1,1.4c0,0.9-0.8,1.5-1.8,1.5c-0.6,0-1.3-0.4-1.7-0.9L167.1,13.1z"/>
	<path d="M175.6,14.7l-0.3,1.6h-0.8l1.4-6.9h0.6l-0.1,0.6l0,0c0.5-0.4,1.1-0.8,1.7-0.8c0.8,0,1.4,0.6,1.4,1.8c0,1.9-1.3,3.3-2.6,3.3
		c-0.5,0-0.9-0.3-1.2-0.7l0,0L175.6,14.7z M176.4,10.7l-0.5,2.3c0.3,0.5,0.6,0.7,1,0.7c1,0,1.9-1.2,1.9-2.6c0-0.8-0.3-1.2-0.9-1.2
		C177.4,9.9,176.8,10.2,176.4,10.7z"/>
	<path d="M184,9.3c0.5,0,0.9,0.3,1.2,0.7l0,0l0.2-0.6h0.6l-1,4.9h-0.6l0.1-0.7l0,0c-0.5,0.5-1.1,0.8-1.7,0.8c-0.8,0-1.4-0.6-1.4-1.8
		C181.3,10.7,182.6,9.3,184,9.3z M184.6,12.8l0.4-2.2c-0.3-0.5-0.6-0.7-1-0.7c-1,0-1.9,1.2-1.9,2.6c0,0.8,0.4,1.2,0.9,1.2
		S184.1,13.4,184.6,12.8z"/>
	<path d="M188.6,9.4h0.6l-0.1,0.9l0,0c0.4-0.6,0.9-1,1.5-1c0.2,0,0.3,0,0.5,0.1l-0.3,0.7c-0.1,0-0.2-0.1-0.4-0.1
		c-0.5,0-1,0.4-1.4,1.2l-0.6,3.1h-0.8L188.6,9.4z"/>
	<path d="M194.7,9.3c0.5,0,0.9,0.3,1.2,0.7l0,0l0.2-0.6h0.6l-1,4.9h-0.6l0.1-0.7l0,0c-0.5,0.5-1.1,0.8-1.7,0.8
		c-0.8,0-1.4-0.6-1.4-1.8C192,10.7,193.3,9.3,194.7,9.3z M195.2,12.8l0.4-2.2c-0.3-0.5-0.6-0.7-1-0.7c-1,0-1.9,1.2-1.9,2.6
		c0,0.8,0.4,1.2,0.9,1.2C194.2,13.7,194.8,13.4,195.2,12.8z"/>
	<path d="M201.5,9.4h0.8l0.4,2.8c0,0.5,0.1,1,0.1,1.4l0,0c0.2-0.5,0.5-1,0.7-1.4l1.4-2.8h0.8l-2.6,4.9h-0.9L201.5,9.4z"/>
	<path d="M209.3,9.3c1.1,0,1.5,0.8,1.5,1.8c0,0.4-0.1,0.8-0.2,0.9h-3.2c-0.2,1.2,0.5,1.8,1.3,1.8c0.4,0,0.8-0.2,1.1-0.4l0.3,0.5
		c-0.4,0.3-0.9,0.5-1.6,0.5c-1.1,0-1.9-0.7-1.9-2C206.7,10.5,208.1,9.3,209.3,9.3z M210.1,11.5c0-0.2,0-0.3,0-0.5
		c0-0.5-0.2-1.1-0.9-1.1s-1.4,0.6-1.7,1.6H210.1z"/>
	<path d="M213.5,9.4h0.6l-0.1,0.9l0,0c0.4-0.6,0.9-1,1.5-1c0.2,0,0.3,0,0.5,0.1l-0.3,0.7c-0.1,0-0.2-0.1-0.4-0.1
		c-0.5,0-1,0.4-1.4,1.2l-0.6,3.1h-0.8L213.5,9.4z"/>
	<path d="M221.3,7.1h0.8l-1.2,6.2c0,0.1,0,0.2,0,0.2c0,0.1,0.1,0.2,0.2,0.2c0,0,0.1,0,0.2,0v0.6c-0.1,0-0.3,0.1-0.5,0.1
		c-0.4,0-0.7-0.2-0.7-0.6c0-0.1,0-0.2,0.1-0.4L221.3,7.1z"/>
	<path d="M223.4,12.4c0-1.8,1.3-3.1,2.6-3.1c1,0,1.7,0.7,1.7,1.9c0,1.8-1.3,3.1-2.6,3.1C224.1,14.4,223.4,13.6,223.4,12.4z
		 M224.2,12.4c0,0.9,0.4,1.4,1,1.4c0.9,0,1.8-1.1,1.8-2.5c0-0.9-0.4-1.4-1-1.4C225,9.9,224.2,11,224.2,12.4z"/>
	<path d="M229.6,13.1c0.3,0.4,0.7,0.7,1.2,0.7c0.6,0,1-0.4,1-0.8c0-0.3-0.2-0.5-0.9-0.9c-0.8-0.4-1.1-0.8-1.1-1.3
		c0-0.9,0.8-1.4,1.7-1.4c0.6,0,1.1,0.3,1.4,0.7l-0.4,0.4c-0.3-0.3-0.6-0.5-1-0.5c-0.5,0-0.9,0.4-0.9,0.8s0.4,0.6,0.9,0.9
		c0.9,0.5,1.1,0.8,1.1,1.4c0,0.9-0.8,1.5-1.8,1.5c-0.6,0-1.3-0.4-1.7-0.9L229.6,13.1z"/>
	<path d="M241.5,9l0.4-1.9h0.8l-1.4,7.1h-0.6l0.1-0.7l0,0c-0.5,0.5-1.1,0.8-1.7,0.8c-0.8,0-1.4-0.6-1.4-1.8c0-1.9,1.3-3.3,2.6-3.3
		c0.5,0,0.9,0.3,1.1,0.7l0,0L241.5,9z M240.7,12.8l0.4-2.2c-0.3-0.5-0.6-0.7-1-0.7c-1,0-1.9,1.2-1.9,2.6c0,0.8,0.4,1.2,0.9,1.2
		C239.7,13.7,240.2,13.4,240.7,12.8z"/>
	<path d="M246.5,9.3c0.5,0,0.9,0.3,1.2,0.7l0,0l0.2-0.6h0.6l-1,4.9h-0.6l0.1-0.7l0,0c-0.5,0.5-1.1,0.8-1.7,0.8
		c-0.8,0-1.4-0.6-1.4-1.8C243.8,10.7,245.1,9.3,246.5,9.3z M247,12.8l0.4-2.2c-0.3-0.5-0.6-0.7-1-0.7c-1,0-1.9,1.2-1.9,2.6
		c0,0.8,0.4,1.2,0.9,1.2C246,13.7,246.6,13.4,247,12.8z"/>
	<path d="M251.1,10h-0.7l0.1-0.6h0.8l0.4-1.3h0.6L252,9.4h1.2l-0.1,0.6h-1.2l-0.6,2.8c0,0.1,0,0.2,0,0.4c0,0.4,0.2,0.6,0.6,0.6
		c0.2,0,0.4-0.1,0.5-0.1l0.2,0.5c-0.2,0.1-0.5,0.2-0.9,0.2c-0.8,0-1.2-0.5-1.2-1.1c0-0.2,0-0.4,0.1-0.5L251.1,10z"/>
	<path d="M254.3,12.4c0-1.8,1.3-3.1,2.6-3.1c1,0,1.7,0.7,1.7,1.9c0,1.8-1.3,3.1-2.6,3.1C255,14.4,254.3,13.6,254.3,12.4z
		 M255.1,12.4c0,0.9,0.4,1.4,1,1.4c0.9,0,1.8-1.1,1.8-2.5c0-0.9-0.4-1.4-1-1.4C256,9.9,255.1,11,255.1,12.4z"/>
	<path d="M260.5,13.1c0.3,0.4,0.7,0.7,1.2,0.7c0.6,0,1-0.4,1-0.8c0-0.3-0.2-0.5-0.9-0.9c-0.7-0.4-1.1-0.8-1.1-1.3
		c0-0.9,0.8-1.4,1.7-1.4c0.6,0,1.1,0.3,1.4,0.7l-0.4,0.4c-0.3-0.3-0.6-0.5-1-0.5c-0.5,0-0.9,0.4-0.9,0.8s0.4,0.6,0.9,0.9
		c0.9,0.5,1.1,0.8,1.1,1.4c0,0.9-0.8,1.5-1.8,1.5c-0.7,0-1.3-0.4-1.7-0.9L260.5,13.1z"/>
	<path d="M265.4,13.9c0-0.3,0.3-0.7,0.7-0.7c0.3,0,0.5,0.2,0.5,0.5s-0.3,0.7-0.7,0.7C265.5,14.4,265.4,14.2,265.4,13.9z"/>
</g>
<path d="M9.7,2.8c0-1-0.8-1.8-1.8-1.8S6.1,1.8,6.1,2.8v7L4.8,8.3l0,0C4.5,8,4,7.8,3.5,7.8l0,0C3,7.8,2.6,8,2.3,8.3
	c-0.6,0.6-0.6,1.5-0.1,2.4C2.9,11.9,3.7,13,4.3,14c0.5,0.7,0.9,1.4,1.3,2c0.3,0.5,1,2.1,1.1,2.1c0.1,0.2,0.3,0.3,0.5,0.3h7.5
	c0.3,0,0.5-0.2,0.6-0.4c0.1-0.4,1.4-4.3,1.4-5.8V8.1c0-1-0.8-1.8-1.8-1.8c-0.2,0-0.5,0.1-0.7,0.1c-0.3-0.7-0.9-1.1-1.6-1.1
	c-0.3,0-0.5,0.1-0.8,0.2c-0.3-0.6-0.9-1-1.6-1c-0.2,0-0.4,0-0.6,0.1 M9.5,6c0-0.3,0.5-0.5,0.8-0.5s0.8,0.4,0.8,0.7v2.9
	c0,0.4,0.1,0.6,0.4,0.6c0.4,0,0.4-0.3,0.4-0.6V7c0-0.3,0.4-0.9,0.8-0.9c0.3,0,0.9,0.4,0.9,0.7v2.9c0,0.4,0.1,0.8,0.4,0.8
	c0.4,0,0.2-0.3,0.2-0.6V8l0.1-0.3c0-0.3,0.4-0.6,0.7-0.6s0.9,0.6,0.9,0.9v4.4c0,1.1-0.8,4-1.3,5.4H7.4c-0.3-0.6-0.8-1.6-1-2
	C6,15.2,5.6,14.5,5,13.7c-0.7-1.1-1.5-2.3-2.2-3.5c-0.2-0.3-0.4-0.8-0.1-1c0.1-0.1,0.5-0.7,0.7-0.7s0.5,0,0.6,0.1L6.2,11
	c0.2,0.2,0.4,0.3,0.6,0.2c0.3-0.1,0.4-0.5,0.4-0.8V2.2c0-0.3,0.3-0.6,0.6-0.6s0.9,0.3,0.9,0.7l0.1,6.1c0,0,0.1,0,0.4,0"/>
</svg>
