<?xml version="1.0" encoding="utf-8"?>
<!-- Generator: Adobe Illustrator 20.0.0, SVG Export Plug-In . SVG Version: 6.00 Build 0)  -->
<svg version="1.1" id="Capa_1" xmlns="http://www.w3.org/2000/svg" xmlns:xlink="http://www.w3.org/1999/xlink" x="0px" y="0px"
	 viewBox="0 0 190.5 88.3" style="enable-background:new 0 0 190.5 88.3;" xml:space="preserve">
<style type="text/css">
	.st0{fill:#FFFFFF;stroke:#000000;stroke-width:0.25;stroke-miterlimit:10;}
	.st1{opacity:0.99;enable-background:new    ;}
	.st2{fill:#44B254;}
	.st3{fill:#495E4A;}
	.st4{opacity:0.5;fill:none;stroke:#000000;stroke-width:0.25;stroke-miterlimit:10;enable-background:new    ;}
	.st5{opacity:0.99;}
	.st6{enable-background:new    ;}
</style>
<polygon class="st0" points="190.4,80.5 104.5,80.5 96.9,88.1 89.3,80.5 0.1,80.5 0.1,0.1 190.4,0.1 "/>
<g>
	<g>
		<g class="st6">
			<path class="st2" d="M10.7,8.2h1.5v3.3h3.4V8.2H17v8.3h-1.5v-3.7h-3.4v3.7h-1.5V8.2z"/>
			<path class="st2" d="M23,12.5c0-0.7-0.3-1.2-1.1-1.2c-0.6,0-1.2,0.3-1.8,0.6l-0.5-1c0.7-0.4,1.6-0.8,2.5-0.8c1.6,0,2.3,1,2.3,2.7
				v3.7h-1.2l-0.1-0.7h0c-0.6,0.5-1.2,0.8-1.9,0.8c-1.1,0-1.9-0.7-1.9-1.8C19.3,13.5,20.4,12.8,23,12.5z M21.6,15.5
				c0.5,0,0.9-0.3,1.4-0.7v-1.4c-1.7,0.2-2.2,0.7-2.2,1.3C20.7,15.2,21.1,15.5,21.6,15.5z"/>
			<path class="st2" d="M26.8,10.3H28l0.1,0.8h0c0.6-0.5,1.2-1,2-1c1.3,0,1.9,0.9,1.9,2.5v3.9h-1.5v-3.7c0-1-0.3-1.4-1-1.4
				c-0.5,0-0.9,0.3-1.4,0.8v4.3h-1.5V10.3z"/>
			<path class="st2" d="M37.8,10.3H39l0.1,1.1h0c0.4-0.8,1.1-1.3,1.8-1.3c0.3,0,0.5,0,0.7,0.1l-0.3,1.3c-0.2-0.1-0.4-0.1-0.6-0.1
				c-0.5,0-1.1,0.3-1.5,1.3v3.8h-1.5V10.3z"/>
			<path class="st2" d="M45.5,10.1c1.7,0,2.6,1.2,2.6,3c0,0.3,0,0.5-0.1,0.7h-4c0.1,1.1,0.8,1.8,1.8,1.8c0.5,0,1-0.2,1.4-0.5
				l0.5,0.9c-0.6,0.4-1.3,0.7-2.1,0.7c-1.7,0-3.1-1.2-3.1-3.3C42.6,11.3,44.1,10.1,45.5,10.1z M46.8,12.8c0-1-0.4-1.6-1.3-1.6
				c-0.7,0-1.4,0.5-1.5,1.6H46.8z"/>
			<path class="st2" d="M52.8,10.1c0.8,0,1.4,0.3,1.8,0.7L54,11.7c-0.3-0.3-0.7-0.5-1.1-0.5c-1,0-1.7,0.8-1.7,2.1
				c0,1.2,0.7,2.1,1.7,2.1c0.5,0,0.9-0.3,1.3-0.5l0.6,0.9c-0.6,0.5-1.3,0.8-2,0.8c-1.7,0-3-1.2-3-3.3C49.7,11.3,51.2,10.1,52.8,10.1
				z"/>
			<path class="st2" d="M56.4,8.3c0-0.5,0.4-0.8,0.9-0.8c0.5,0,0.9,0.3,0.9,0.8c0,0.5-0.4,0.8-0.9,0.8C56.8,9.2,56.4,8.8,56.4,8.3z
				 M56.6,10.3h1.5v6.2h-1.5V10.3z"/>
			<path class="st2" d="M60.6,7.5H62v2.3l0,1c0.5-0.5,1.2-0.8,1.8-0.8c1.6,0,2.5,1.2,2.5,3.2c0,2.1-1.3,3.4-2.7,3.4
				c-0.6,0-1.2-0.3-1.7-0.8h0l-0.1,0.6h-1.2V7.5z M63.3,15.4c0.8,0,1.5-0.7,1.5-2.1c0-1.2-0.4-2-1.3-2c-0.5,0-0.9,0.2-1.4,0.7v2.9
				C62.5,15.3,62.9,15.4,63.3,15.4z"/>
			<path class="st2" d="M68.2,8.3c0-0.5,0.4-0.8,0.9-0.8c0.5,0,0.9,0.3,0.9,0.8c0,0.5-0.4,0.8-0.9,0.8C68.6,9.2,68.2,8.8,68.2,8.3z
				 M68.4,10.3h1.5v6.2h-1.5V10.3z"/>
			<path class="st2" d="M74.6,10.1c0.7,0,1.2,0.3,1.6,0.7l-0.1-1V7.5h1.5v9h-1.2l-0.1-0.7h-0.1c-0.5,0.5-1.1,0.8-1.8,0.8
				c-1.6,0-2.6-1.2-2.6-3.3C71.9,11.3,73.2,10.1,74.6,10.1z M74.8,15.4c0.5,0,0.9-0.2,1.3-0.7v-2.9c-0.4-0.4-0.8-0.5-1.3-0.5
				c-0.8,0-1.4,0.7-1.4,2.1C73.4,14.7,73.9,15.4,74.8,15.4z"/>
			<path class="st2" d="M82.6,10.1c1.6,0,3,1.2,3,3.3c0,2.1-1.4,3.3-3,3.3c-1.5,0-3-1.2-3-3.3C79.7,11.3,81.1,10.1,82.6,10.1z
				 M82.6,15.4c0.9,0,1.5-0.8,1.5-2.1c0-1.3-0.6-2.1-1.5-2.1c-0.9,0-1.5,0.8-1.5,2.1C81.2,14.6,81.7,15.4,82.6,15.4z"/>
		</g>
		<g class="st6">
			<path class="st2" d="M13.9,26.7c0-0.7-0.3-1.2-1.1-1.2c-0.6,0-1.2,0.3-1.8,0.6l-0.5-1c0.7-0.4,1.6-0.8,2.5-0.8
				c1.6,0,2.3,1,2.3,2.7v3.7h-1.2L14.1,30h0c-0.6,0.5-1.2,0.8-1.9,0.8c-1.1,0-1.9-0.7-1.9-1.8C10.3,27.7,11.4,27,13.9,26.7z
				 M12.6,29.7c0.5,0,0.9-0.3,1.4-0.7v-1.4c-1.7,0.2-2.2,0.7-2.2,1.3C11.7,29.4,12,29.7,12.6,29.7z"/>
			<path class="st2" d="M18,25.6h-0.9v-1.1l1-0.1l0.2-1.7h1.2v1.7h1.6v1.2h-1.6v3c0,0.7,0.3,1.1,0.9,1.1c0.2,0,0.5-0.1,0.6-0.1
				l0.3,1.1c-0.3,0.1-0.8,0.2-1.3,0.2c-1.4,0-2-0.9-2-2.3V25.6z"/>
			<path class="st2" d="M25.3,24.3c1.7,0,2.6,1.2,2.6,3c0,0.3,0,0.5-0.1,0.7h-4c0.1,1.1,0.8,1.8,1.8,1.8c0.5,0,1-0.2,1.4-0.5
				l0.5,0.9c-0.6,0.4-1.3,0.7-2.1,0.7c-1.7,0-3.1-1.2-3.1-3.3C22.5,25.5,23.9,24.3,25.3,24.3z M26.6,27c0-1-0.4-1.6-1.3-1.6
				c-0.7,0-1.4,0.5-1.5,1.6H26.6z"/>
			<path class="st2" d="M29.9,24.5h1.2l0.1,0.8h0c0.6-0.5,1.2-1,2-1c1.3,0,1.9,0.9,1.9,2.5v3.9h-1.5V27c0-1-0.3-1.4-1-1.4
				c-0.5,0-0.9,0.3-1.4,0.8v4.3h-1.5V24.5z"/>
			<path class="st2" d="M40.4,24.3c0.8,0,1.4,0.3,1.8,0.7l-0.7,0.9c-0.3-0.3-0.7-0.5-1.1-0.5c-1,0-1.7,0.8-1.7,2.1
				c0,1.2,0.7,2.1,1.7,2.1c0.5,0,0.9-0.3,1.3-0.5l0.6,0.9c-0.6,0.5-1.3,0.8-2,0.8c-1.7,0-3-1.2-3-3.3C37.3,25.5,38.7,24.3,40.4,24.3
				z"/>
			<path class="st2" d="M44,22.5c0-0.5,0.4-0.8,0.9-0.8c0.5,0,0.9,0.3,0.9,0.8c0,0.5-0.4,0.8-0.9,0.8C44.4,23.4,44,23,44,22.5z
				 M44.2,24.5h1.5v6.2h-1.5V24.5z"/>
			<path class="st2" d="M50.7,24.3c1.6,0,3,1.2,3,3.3c0,2.1-1.4,3.3-3,3.3c-1.5,0-3-1.2-3-3.3C47.7,25.5,49.1,24.3,50.7,24.3z
				 M50.7,29.6c0.9,0,1.5-0.8,1.5-2.1c0-1.3-0.6-2.1-1.5-2.1c-0.9,0-1.5,0.8-1.5,2.1C49.2,28.8,49.8,29.6,50.7,29.6z M50.8,23.4
				h-1.1l1.1-1.9h1.5L50.8,23.4z"/>
			<path class="st2" d="M55.7,24.5h1.2l0.1,0.8h0.1c0.6-0.5,1.2-1,2-1c1.3,0,1.9,0.9,1.9,2.5v3.9h-1.5V27c0-1-0.3-1.4-1-1.4
				c-0.5,0-0.9,0.3-1.4,0.8v4.3h-1.5V24.5z"/>
			<path class="st2" d="M68.2,31.2v2h-1.5v-8.7h1.2l0.1,0.7h0.1c0.5-0.4,1.2-0.8,1.9-0.8c1.5,0,2.4,1.2,2.4,3.2
				c0,2.1-1.3,3.4-2.7,3.4c-0.5,0-1.1-0.3-1.6-0.7L68.2,31.2z M69.4,29.6c0.8,0,1.5-0.7,1.5-2.1c0-1.2-0.4-2-1.3-2
				c-0.5,0-0.9,0.2-1.4,0.7v2.9C68.6,29.5,69.1,29.6,69.4,29.6z"/>
			<path class="st2" d="M77,24.3c1.6,0,3,1.2,3,3.3c0,2.1-1.4,3.3-3,3.3c-1.5,0-3-1.2-3-3.3C74.1,25.5,75.5,24.3,77,24.3z M77,29.6
				c0.9,0,1.5-0.8,1.5-2.1c0-1.3-0.6-2.1-1.5-2.1c-0.9,0-1.5,0.8-1.5,2.1C75.6,28.8,76.1,29.6,77,29.6z"/>
			<path class="st2" d="M82.1,29c0.6,0.4,1.1,0.7,1.7,0.7c0.7,0,1-0.3,1-0.7c0-0.5-0.7-0.7-1.3-1c-0.8-0.3-1.8-0.8-1.8-1.8
				c0-1.1,0.9-1.9,2.3-1.9c0.9,0,1.6,0.4,2.1,0.7l-0.7,0.9c-0.4-0.3-0.9-0.5-1.4-0.5c-0.6,0-0.9,0.3-0.9,0.7c0,0.5,0.6,0.7,1.3,0.9
				c0.8,0.3,1.8,0.7,1.8,1.9c0,1.1-0.8,1.9-2.4,1.9c-0.8,0-1.8-0.4-2.4-0.9L82.1,29z"/>
			<path class="st2" d="M88.4,25.6h-0.9v-1.1l1-0.1l0.2-1.7h1.2v1.7h1.6v1.2h-1.6v3c0,0.7,0.3,1.1,0.9,1.1c0.2,0,0.5-0.1,0.6-0.1
				l0.3,1.1c-0.3,0.1-0.8,0.2-1.3,0.2c-1.4,0-2-0.9-2-2.3V25.6z"/>
			<path class="st2" d="M93.4,24.5h1.2l0.1,0.8h0c0.6-0.5,1.2-1,2-1c1.3,0,1.9,0.9,1.9,2.5v3.9h-1.5V27c0-1-0.3-1.4-1-1.4
				c-0.5,0-0.9,0.3-1.4,0.8v4.3h-1.5V24.5z"/>
			<path class="st2" d="M104.5,26.7c0-0.7-0.3-1.2-1.1-1.2c-0.6,0-1.2,0.3-1.8,0.6l-0.5-1c0.7-0.4,1.6-0.8,2.5-0.8
				c1.6,0,2.3,1,2.3,2.7v3.7h-1.2l-0.1-0.7h0c-0.6,0.5-1.2,0.8-1.9,0.8c-1.1,0-1.9-0.7-1.9-1.8C100.8,27.7,101.9,27,104.5,26.7z
				 M103.1,29.7c0.5,0,0.9-0.3,1.4-0.7v-1.4c-1.7,0.2-2.2,0.7-2.2,1.3C102.2,29.4,102.6,29.7,103.1,29.7z"/>
			<path class="st2" d="M108.6,25.6h-0.9v-1.1l1-0.1l0.2-1.7h1.2v1.7h1.6v1.2H110v3c0,0.7,0.3,1.1,0.9,1.1c0.2,0,0.5-0.1,0.6-0.1
				l0.3,1.1c-0.3,0.1-0.8,0.2-1.3,0.2c-1.4,0-2-0.9-2-2.3V25.6z"/>
			<path class="st2" d="M116.8,26.7c0-0.7-0.3-1.2-1.1-1.2c-0.6,0-1.2,0.3-1.8,0.6l-0.5-1c0.7-0.4,1.6-0.8,2.5-0.8
				c1.6,0,2.3,1,2.3,2.7v3.7H117l-0.1-0.7h0c-0.6,0.5-1.2,0.8-1.9,0.8c-1.1,0-1.9-0.7-1.9-1.8C113.1,27.7,114.2,27,116.8,26.7z
				 M115.4,29.7c0.5,0,0.9-0.3,1.4-0.7v-1.4c-1.7,0.2-2.2,0.7-2.2,1.3C114.5,29.4,114.9,29.7,115.4,29.7z"/>
			<path class="st2" d="M120.7,21.7h1.5v7.4c0,0.4,0.2,0.5,0.3,0.5c0.1,0,0.1,0,0.2,0l0.2,1.1c-0.2,0.1-0.4,0.1-0.8,0.1
				c-1,0-1.4-0.7-1.4-1.8V21.7z"/>
		</g>
	</g>
</g>
<g>
	<g class="st1">
		<path class="st3" d="M13.5,40.9c0.9,0,1.6,0.4,2,0.9L15,42.5c-0.4-0.4-0.9-0.7-1.5-0.7c-1.4,0-2.4,1.2-2.4,3
			c0,1.9,0.9,3.1,2.3,3.1c0.7,0,1.2-0.3,1.7-0.8l0.5,0.6c-0.6,0.7-1.3,1.1-2.3,1.1c-1.9,0-3.3-1.4-3.3-3.9
			C10.2,42.4,11.6,40.9,13.5,40.9z"/>
		<path class="st3" d="M19.2,42.9c1.4,0,2.6,1.1,2.6,2.9c0,1.8-1.2,2.9-2.6,2.9s-2.6-1.1-2.6-2.9C16.6,43.9,17.9,42.9,19.2,42.9z
			 M19.2,47.9c1,0,1.6-0.9,1.6-2.1c0-1.3-0.6-2.1-1.6-2.1c-0.9,0-1.6,0.9-1.6,2.1C17.6,47.1,18.3,47.9,19.2,47.9z"/>
		<path class="st3" d="M23.2,40.4h0.9v2.2l0,1c0.5-0.4,1.1-0.8,1.7-0.8c1.4,0,2.2,1.1,2.2,2.8c0,1.9-1.1,3-2.4,3
			c-0.5,0-1.1-0.3-1.6-0.7h0L24,48.5h-0.8V40.4z M25.5,47.9c0.9,0,1.6-0.8,1.6-2.2c0-1.2-0.4-2-1.5-2c-0.5,0-1,0.3-1.5,0.8v2.9
			C24.7,47.7,25.2,47.9,25.5,47.9z"/>
		<path class="st3" d="M31.7,42.9c1.4,0,2.2,1,2.2,2.6c0,0.2,0,0.4,0,0.5h-3.7c0.1,1.2,0.8,2,1.8,2c0.5,0,1-0.2,1.4-0.4l0.3,0.6
			c-0.5,0.3-1.1,0.6-1.8,0.6c-1.5,0-2.7-1.1-2.7-2.9C29.2,44,30.4,42.9,31.7,42.9z M33,45.4c0-1.1-0.5-1.8-1.4-1.8
			c-0.8,0-1.5,0.6-1.6,1.8H33z"/>
		<path class="st3" d="M35.2,43H36l0.1,1h0c0.4-0.7,0.9-1.1,1.6-1.1c0.2,0,0.4,0,0.6,0.1l-0.2,0.8c-0.2-0.1-0.3-0.1-0.5-0.1
			c-0.5,0-1,0.3-1.4,1.3v3.6h-0.9V43z"/>
		<path class="st3" d="M39.4,43.8h-0.8v-0.7l0.9-0.1l0.1-1.6h0.8V43h1.5v0.8h-1.5v3.1c0,0.7,0.2,1.1,0.9,1.1c0.2,0,0.4-0.1,0.6-0.1
			l0.2,0.7c-0.3,0.1-0.7,0.2-1,0.2c-1.2,0-1.6-0.8-1.6-1.8V43.8z"/>
		<path class="st3" d="M42.9,43h0.9v3.4c0,1,0.3,1.5,1,1.5c0.6,0,1-0.3,1.5-0.9V43h0.9v5.5h-0.8l-0.1-0.9h0c-0.5,0.6-1.1,1-1.8,1
			c-1.2,0-1.7-0.8-1.7-2.2V43z"/>
		<path class="st3" d="M49.2,43H50l0.1,1h0c0.4-0.7,0.9-1.1,1.6-1.1c0.2,0,0.4,0,0.6,0.1l-0.2,0.8c-0.2-0.1-0.3-0.1-0.5-0.1
			c-0.5,0-1,0.3-1.4,1.3v3.6h-0.9V43z"/>
		<path class="st3" d="M56,45c0-0.7-0.2-1.4-1.1-1.4c-0.7,0-1.2,0.3-1.7,0.6l-0.4-0.7c0.5-0.3,1.3-0.7,2.2-0.7
			c1.4,0,1.9,0.9,1.9,2.3v3.4h-0.8l-0.1-0.7h0c-0.5,0.4-1.2,0.8-1.8,0.8c-0.9,0-1.6-0.6-1.6-1.6C52.6,45.9,53.7,45.3,56,45z
			 M54.5,47.9c0.5,0,1-0.3,1.5-0.7v-1.5c-1.9,0.2-2.5,0.7-2.5,1.4C53.5,47.7,54,47.9,54.5,47.9z"/>
	</g>
</g>
<line class="st4" x1="9.6" y1="53" x2="179.9" y2="53"/>
<g class="st5">
	<g class="st1">
		<path class="st2" d="M10.6,60.2h0.9v7.5h-0.9V60.2z"/>
		<path class="st2" d="M13.2,63.9c0-2.4,1.3-3.8,3.2-3.8c1.9,0,3.2,1.5,3.2,3.8c0,2.4-1.3,3.9-3.2,3.9
			C14.5,67.8,13.2,66.3,13.2,63.9z M18.6,63.9c0-1.9-0.9-3-2.2-3c-1.3,0-2.2,1.2-2.2,3c0,1.9,0.9,3.1,2.2,3.1
			C17.7,66.9,18.6,65.7,18.6,63.9z"/>
		<path class="st2" d="M21.2,60.2h0.9v3.1h3.5v-3.1h1v7.5h-1v-3.5h-3.5v3.5h-0.9V60.2z"/>
	</g>
</g>
</svg>
