<?xml version="1.0" encoding="utf-8"?>
<!-- Generator: Adobe Illustrator 20.0.0, SVG Export Plug-In . SVG Version: 6.00 Build 0)  -->
<svg version="1.1" id="Capa_1" xmlns="http://www.w3.org/2000/svg" xmlns:xlink="http://www.w3.org/1999/xlink" x="0px" y="0px"
	 viewBox="0 0 190.6 88.3" style="enable-background:new 0 0 190.6 88.3;" xml:space="preserve">
<style type="text/css">
	.st0{fill:#FFFFFF;stroke:#000000;stroke-width:0.25;stroke-miterlimit:10;}
	.st1{opacity:0.99;enable-background:new    ;}
	.st2{fill:#44B254;}
	.st3{fill:#495E4A;}
	.st4{opacity:0.5;fill:none;stroke:#000000;stroke-width:0.25;stroke-miterlimit:10;enable-background:new    ;}
	.st5{opacity:0.99;}
	.st6{enable-background:new    ;}
</style>
<polygon class="st0" points="190.4,80.5 104.5,80.5 96.9,88.1 89.3,80.5 0.1,80.5 0.1,0.1 190.4,0.1 "/>
<g class="st5">
	<g class="st1">
		<path class="st2" d="M10.7,8.2h1.5l2.6,4.7l0.8,1.8h0.1c-0.1-0.8-0.2-1.9-0.2-2.8V8.2h1.4v8.3h-1.5l-2.6-4.7L11.9,10h-0.1
			c0.1,0.9,0.2,1.9,0.2,2.8v3.6h-1.4V8.2z"/>
		<path class="st2" d="M19.4,10.3h1.5V14c0,1,0.3,1.4,1,1.4c0.5,0,0.9-0.3,1.4-0.9v-4.3h1.5v6.2h-1.2l-0.1-0.9h0
			c-0.5,0.6-1.2,1.1-2,1.1c-1.3,0-1.9-0.9-1.9-2.5V10.3z"/>
		<path class="st2" d="M27.2,10.3h1.2l0.1,0.8h0.1c0.6-0.5,1.2-1,2-1c1.3,0,1.9,0.9,1.9,2.5v3.9H31v-3.7c0-1-0.3-1.4-1-1.4
			c-0.5,0-0.9,0.3-1.4,0.8v4.3h-1.5V10.3z"/>
		<path class="st2" d="M37.6,10.1c0.8,0,1.4,0.3,1.8,0.7l-0.7,0.9c-0.3-0.3-0.7-0.5-1.1-0.5c-1,0-1.7,0.8-1.7,2.1
			c0,1.2,0.7,2.1,1.7,2.1c0.5,0,0.9-0.3,1.3-0.5l0.6,0.9c-0.6,0.5-1.3,0.8-2,0.8c-1.7,0-3-1.2-3-3.3C34.5,11.3,36,10.1,37.6,10.1z"
			/>
		<path class="st2" d="M44.7,12.5c0-0.7-0.3-1.2-1.1-1.2c-0.6,0-1.2,0.3-1.8,0.6l-0.5-1c0.7-0.4,1.6-0.8,2.5-0.8
			c1.6,0,2.3,1,2.3,2.7v3.7h-1.2l-0.1-0.7h0c-0.6,0.5-1.2,0.8-1.9,0.8c-1.1,0-1.9-0.7-1.9-1.8C41,13.5,42.1,12.8,44.7,12.5z
			 M43.3,15.5c0.5,0,0.9-0.3,1.4-0.7v-1.4c-1.7,0.2-2.2,0.7-2.2,1.3C42.4,15.2,42.8,15.5,43.3,15.5z"/>
		<path class="st2" d="M51.8,7.5h1.5v2.3L53.2,11c0.5-0.5,1.1-0.9,2-0.9c1.3,0,1.9,0.9,1.9,2.5v3.9h-1.5v-3.7c0-1-0.3-1.4-1-1.4
			c-0.5,0-0.9,0.3-1.4,0.8v4.3h-1.5V7.5z"/>
		<path class="st2" d="M62.9,12.5c0-0.7-0.3-1.2-1.1-1.2c-0.6,0-1.2,0.3-1.8,0.6l-0.5-1c0.7-0.4,1.6-0.8,2.5-0.8
			c1.6,0,2.3,1,2.3,2.7v3.7h-1.2L63,15.8h0c-0.6,0.5-1.2,0.8-1.9,0.8c-1.1,0-1.9-0.7-1.9-1.8C59.2,13.5,60.3,12.8,62.9,12.5z
			 M61.5,15.5c0.5,0,0.9-0.3,1.4-0.7v-1.4c-1.7,0.2-2.2,0.7-2.2,1.3C60.6,15.2,61,15.5,61.5,15.5z"/>
		<path class="st2" d="M66.8,10.3H68l0.1,0.8h0c0.6-0.5,1.2-1,2-1c1.3,0,1.9,0.9,1.9,2.5v3.9h-1.5v-3.7c0-1-0.3-1.4-1-1.4
			c-0.5,0-0.9,0.3-1.4,0.8v4.3h-1.5V10.3z"/>
		<path class="st2" d="M80.2,10.1c1.7,0,2.6,1.2,2.6,3c0,0.3,0,0.5-0.1,0.7h-4c0.1,1.1,0.8,1.8,1.8,1.8c0.5,0,1-0.2,1.4-0.5l0.5,0.9
			c-0.6,0.4-1.3,0.7-2.1,0.7c-1.7,0-3.1-1.2-3.1-3.3C77.3,11.3,78.7,10.1,80.2,10.1z M81.5,12.8c0-1-0.4-1.6-1.3-1.6
			c-0.7,0-1.4,0.5-1.5,1.6H81.5z"/>
		<path class="st2" d="M84.9,14.8c0.6,0.4,1.1,0.7,1.7,0.7c0.7,0,1-0.3,1-0.7c0-0.5-0.7-0.7-1.3-1c-0.8-0.3-1.8-0.8-1.8-1.8
			c0-1.1,0.9-1.9,2.3-1.9c0.9,0,1.6,0.4,2.1,0.7l-0.7,0.9c-0.4-0.3-0.9-0.5-1.4-0.5c-0.6,0-0.9,0.3-0.9,0.7c0,0.5,0.6,0.7,1.3,0.9
			c0.8,0.3,1.8,0.7,1.8,1.9c0,1.1-0.8,1.9-2.4,1.9c-0.8,0-1.7-0.4-2.4-0.9L84.9,14.8z"/>
		<path class="st2" d="M91.1,11.4h-0.9v-1.1l1-0.1l0.2-1.7h1.2v1.7h1.6v1.2h-1.6v3c0,0.7,0.3,1.1,0.9,1.1c0.2,0,0.5-0.1,0.6-0.1
			l0.3,1.1c-0.3,0.1-0.8,0.2-1.3,0.2c-1.4,0-2-0.9-2-2.3V11.4z"/>
		<path class="st2" d="M99.3,12.5c0-0.7-0.3-1.2-1.1-1.2c-0.6,0-1.2,0.3-1.8,0.6l-0.5-1c0.7-0.4,1.6-0.8,2.5-0.8
			c1.6,0,2.3,1,2.3,2.7v3.7h-1.2l-0.1-0.7h0c-0.6,0.5-1.2,0.8-1.9,0.8c-1.1,0-1.9-0.7-1.9-1.8C95.6,13.5,96.8,12.8,99.3,12.5z
			 M98,15.5c0.5,0,0.9-0.3,1.4-0.7v-1.4c-1.7,0.2-2.2,0.7-2.2,1.3C97.1,15.2,97.4,15.5,98,15.5z"/>
		<path class="st2" d="M105.4,10.1c0.7,0,1.2,0.3,1.6,0.7l-0.1-1V7.5h1.5v9h-1.2l-0.1-0.7h-0.1c-0.5,0.5-1.1,0.8-1.8,0.8
			c-1.6,0-2.6-1.2-2.6-3.3C102.8,11.3,104.1,10.1,105.4,10.1z M105.7,15.4c0.5,0,0.9-0.2,1.3-0.7v-2.9c-0.4-0.4-0.8-0.5-1.3-0.5
			c-0.8,0-1.4,0.7-1.4,2.1C104.3,14.7,104.8,15.4,105.7,15.4z"/>
		<path class="st2" d="M113.5,10.1c1.6,0,3,1.2,3,3.3c0,2.1-1.4,3.3-3,3.3c-1.5,0-3-1.2-3-3.3C110.6,11.3,112,10.1,113.5,10.1z
			 M113.5,15.4c0.9,0,1.5-0.8,1.5-2.1c0-1.3-0.6-2.1-1.5-2.1s-1.5,0.8-1.5,2.1C112.1,14.6,112.6,15.4,113.5,15.4z"/>
		<path class="st2" d="M13,25.3c1.7,0,2.6,1.2,2.6,3c0,0.3,0,0.5-0.1,0.7h-4c0.1,1.1,0.8,1.8,1.8,1.8c0.5,0,1-0.2,1.4-0.5l0.5,0.9
			c-0.6,0.4-1.3,0.7-2.1,0.7c-1.7,0-3.1-1.2-3.1-3.3C10.1,26.6,11.5,25.3,13,25.3z M14.3,28c0-1-0.4-1.6-1.3-1.6
			c-0.7,0-1.4,0.5-1.5,1.6H14.3z"/>
		<path class="st2" d="M17.6,25.5h1.2l0.1,0.8h0c0.5-0.6,1.1-1,1.9-1c0.9,0,1.4,0.4,1.7,1.1c0.6-0.6,1.2-1.1,2-1.1
			c1.3,0,1.9,0.9,1.9,2.5v3.9H25V28c0-1-0.3-1.4-1-1.4c-0.4,0-0.8,0.3-1.3,0.8v4.3h-1.5V28c0-1-0.3-1.4-1-1.4
			c-0.4,0-0.8,0.3-1.3,0.8v4.3h-1.5V25.5z"/>
		<path class="st2" d="M28.9,22.7h1.5v2.3l0,1c0.5-0.5,1.2-0.8,1.8-0.8c1.6,0,2.5,1.2,2.5,3.2c0,2.1-1.3,3.4-2.7,3.4
			c-0.6,0-1.2-0.3-1.7-0.8h0l-0.1,0.6h-1.2V22.7z M31.6,30.6c0.8,0,1.5-0.7,1.5-2.1c0-1.2-0.4-2-1.3-2c-0.5,0-0.9,0.2-1.4,0.7v2.9
			C30.8,30.5,31.3,30.6,31.6,30.6z"/>
		<path class="st2" d="M40,27.7c0-0.7-0.3-1.2-1.1-1.2c-0.6,0-1.2,0.3-1.8,0.6l-0.5-1c0.7-0.4,1.6-0.8,2.5-0.8c1.6,0,2.3,1,2.3,2.7
			v3.7h-1.2L40.1,31h0c-0.6,0.5-1.2,0.8-1.9,0.8c-1.1,0-1.9-0.7-1.9-1.8C36.3,28.7,37.4,28,40,27.7z M38.6,30.7
			c0.5,0,0.9-0.3,1.4-0.7v-1.4c-1.7,0.2-2.2,0.7-2.2,1.3C37.7,30.5,38.1,30.7,38.6,30.7z"/>
		<path class="st2" d="M43.8,25.5H45l0.1,1.1h0.1c0.4-0.8,1.1-1.3,1.8-1.3c0.3,0,0.5,0,0.7,0.1l-0.3,1.3c-0.2-0.1-0.4-0.1-0.6-0.1
			c-0.5,0-1.1,0.3-1.5,1.3v3.8h-1.5V25.5z"/>
		<path class="st2" d="M52.2,27.7c0-0.7-0.3-1.2-1.1-1.2c-0.6,0-1.2,0.3-1.8,0.6l-0.5-1c0.7-0.4,1.6-0.8,2.5-0.8
			c1.6,0,2.3,1,2.3,2.7v3.7h-1.2L52.4,31h0c-0.6,0.5-1.2,0.8-1.9,0.8c-1.1,0-1.9-0.7-1.9-1.8C48.6,28.7,49.7,28,52.2,27.7z
			 M50.9,30.7c0.5,0,0.9-0.3,1.4-0.7v-1.4c-1.7,0.2-2.2,0.7-2.2,1.3C50,30.5,50.4,30.7,50.9,30.7z"/>
		<path class="st2" d="M55.6,30.9l2.9-4.3h-2.6v-1.2h4.4v0.8l-2.9,4.3h3v1.2h-4.9V30.9z"/>
		<path class="st2" d="M65.5,27.7c0-0.7-0.3-1.2-1.1-1.2c-0.6,0-1.2,0.3-1.8,0.6l-0.5-1c0.7-0.4,1.6-0.8,2.5-0.8
			c1.6,0,2.3,1,2.3,2.7v3.7h-1.2L65.7,31h0c-0.6,0.5-1.2,0.8-1.9,0.8c-1.1,0-1.9-0.7-1.9-1.8C61.9,28.7,63,28,65.5,27.7z M64.2,30.7
			c0.5,0,0.9-0.3,1.4-0.7v-1.4c-1.7,0.2-2.2,0.7-2.2,1.3C63.3,30.5,63.7,30.7,64.2,30.7z"/>
		<path class="st2" d="M71.7,25.3c0.7,0,1.2,0.3,1.6,0.7l-0.1-1v-2.3h1.5v9h-1.2L73.4,31h-0.1c-0.5,0.5-1.1,0.8-1.8,0.8
			c-1.6,0-2.6-1.2-2.6-3.3C69,26.6,70.3,25.3,71.7,25.3z M71.9,30.6c0.5,0,0.9-0.2,1.3-0.7V27c-0.4-0.4-0.8-0.5-1.3-0.5
			c-0.8,0-1.4,0.7-1.4,2.1C70.5,29.9,71,30.6,71.9,30.6z"/>
		<path class="st2" d="M80.6,27.7c0-0.7-0.3-1.2-1.1-1.2c-0.6,0-1.2,0.3-1.8,0.6l-0.5-1c0.7-0.4,1.6-0.8,2.5-0.8
			c1.6,0,2.3,1,2.3,2.7v3.7h-1.2L80.7,31h0c-0.6,0.5-1.2,0.8-1.9,0.8c-1.1,0-1.9-0.7-1.9-1.8C76.9,28.7,78,28,80.6,27.7z M79.2,30.7
			c0.5,0,0.9-0.3,1.4-0.7v-1.4c-1.7,0.2-2.2,0.7-2.2,1.3C78.3,30.5,78.7,30.7,79.2,30.7z"/>
		<path class="st2" d="M84.5,30c0.6,0.4,1.1,0.7,1.7,0.7c0.7,0,1-0.3,1-0.7c0-0.5-0.7-0.7-1.3-1c-0.8-0.3-1.8-0.8-1.8-1.8
			c0-1.1,0.9-1.9,2.3-1.9c0.9,0,1.6,0.4,2.1,0.7L87.8,27c-0.4-0.3-0.9-0.5-1.4-0.5c-0.6,0-0.9,0.3-0.9,0.7c0,0.5,0.6,0.7,1.3,0.9
			c0.8,0.3,1.8,0.7,1.8,1.9c0,1.1-0.8,1.9-2.4,1.9c-0.8,0-1.8-0.4-2.4-0.9L84.5,30z"/>
	</g>
</g>
<g>
	<g class="st1">
		<path class="st3" d="M13.5,40.9c0.9,0,1.6,0.4,2,0.9L15,42.5c-0.4-0.4-0.9-0.7-1.5-0.7c-1.4,0-2.4,1.2-2.4,3
			c0,1.9,0.9,3.1,2.3,3.1c0.7,0,1.2-0.3,1.7-0.8l0.5,0.6c-0.6,0.7-1.3,1.1-2.3,1.1c-1.9,0-3.3-1.4-3.3-3.9
			C10.2,42.4,11.6,40.9,13.5,40.9z"/>
		<path class="st3" d="M19.2,42.9c1.4,0,2.6,1.1,2.6,2.9c0,1.8-1.2,2.9-2.6,2.9s-2.6-1.1-2.6-2.9C16.6,43.9,17.9,42.9,19.2,42.9z
			 M19.2,47.9c1,0,1.6-0.9,1.6-2.1c0-1.3-0.6-2.1-1.6-2.1c-0.9,0-1.6,0.9-1.6,2.1C17.6,47.1,18.3,47.9,19.2,47.9z"/>
		<path class="st3" d="M23.2,40.4h0.9v2.2l0,1c0.5-0.4,1.1-0.8,1.7-0.8c1.4,0,2.2,1.1,2.2,2.8c0,1.9-1.1,3-2.4,3
			c-0.5,0-1.1-0.3-1.6-0.7h0L24,48.6h-0.8V40.4z M25.5,47.9c0.9,0,1.6-0.8,1.6-2.2c0-1.2-0.4-2-1.5-2c-0.5,0-1,0.3-1.5,0.8v2.9
			C24.7,47.7,25.2,47.9,25.5,47.9z"/>
		<path class="st3" d="M31.7,42.9c1.4,0,2.2,1,2.2,2.6c0,0.2,0,0.4,0,0.5h-3.7c0.1,1.2,0.8,2,1.8,2c0.5,0,1-0.2,1.4-0.4l0.3,0.6
			c-0.5,0.3-1.1,0.6-1.8,0.6c-1.5,0-2.7-1.1-2.7-2.9C29.2,44,30.4,42.9,31.7,42.9z M33,45.4c0-1.1-0.5-1.8-1.4-1.8
			c-0.8,0-1.5,0.6-1.6,1.8H33z"/>
		<path class="st3" d="M35.2,43H36l0.1,1h0c0.4-0.7,0.9-1.1,1.6-1.1c0.2,0,0.4,0,0.6,0.1l-0.2,0.8c-0.2-0.1-0.3-0.1-0.5-0.1
			c-0.5,0-1,0.3-1.4,1.3v3.6h-0.9V43z"/>
		<path class="st3" d="M39.4,43.8h-0.8v-0.7l0.9-0.1l0.1-1.6h0.8V43h1.5v0.8h-1.5v3.1c0,0.7,0.2,1.1,0.9,1.1c0.2,0,0.4-0.1,0.6-0.1
			l0.2,0.7c-0.3,0.1-0.7,0.2-1,0.2c-1.2,0-1.6-0.8-1.6-1.8V43.8z"/>
		<path class="st3" d="M42.9,43h0.9v3.4c0,1,0.3,1.5,1,1.5c0.6,0,1-0.3,1.5-0.9V43h0.9v5.5h-0.8l-0.1-0.9h0c-0.5,0.6-1.1,1-1.8,1
			c-1.2,0-1.7-0.8-1.7-2.2V43z"/>
		<path class="st3" d="M49.2,43H50l0.1,1h0c0.4-0.7,0.9-1.1,1.6-1.1c0.2,0,0.4,0,0.6,0.1l-0.2,0.8c-0.2-0.1-0.3-0.1-0.5-0.1
			c-0.5,0-1,0.3-1.4,1.3v3.6h-0.9V43z"/>
		<path class="st3" d="M56,45c0-0.7-0.2-1.4-1.1-1.4c-0.7,0-1.2,0.3-1.7,0.6l-0.4-0.7c0.5-0.3,1.3-0.7,2.2-0.7
			c1.4,0,1.9,0.9,1.9,2.3v3.4h-0.8l-0.1-0.7h0c-0.5,0.4-1.2,0.8-1.8,0.8c-0.9,0-1.6-0.6-1.6-1.6C52.6,45.9,53.7,45.3,56,45z
			 M54.5,47.9c0.5,0,1-0.3,1.5-0.7v-1.5c-1.9,0.2-2.5,0.7-2.5,1.4C53.5,47.7,54,47.9,54.5,47.9z"/>
	</g>
</g>
<line class="st4" x1="9.6" y1="53" x2="179.9" y2="53"/>
<g class="st5">
	<g class="st1">
		<path class="st2" d="M10.6,60.2h0.9v7.5h-0.9V60.2z"/>
		<path class="st2" d="M13.2,63.9c0-2.4,1.3-3.8,3.2-3.8c1.9,0,3.2,1.5,3.2,3.8c0,2.4-1.3,3.9-3.2,3.9
			C14.5,67.8,13.2,66.3,13.2,63.9z M18.6,63.9c0-1.9-0.9-3-2.2-3c-1.3,0-2.2,1.2-2.2,3c0,1.9,0.9,3.1,2.2,3.1
			C17.7,66.9,18.6,65.7,18.6,63.9z"/>
		<path class="st2" d="M21.2,60.2h0.9v3.1h3.5v-3.1h1v7.5h-1v-3.5h-3.5v3.5h-0.9V60.2z"/>
	</g>
</g>
</svg>
