<?xml version="1.0" encoding="utf-8"?>
<!-- Generator: Adobe Illustrator 20.0.0, SVG Export Plug-In . SVG Version: 6.00 Build 0)  -->
<svg version="1.1" id="Capa_1" xmlns="http://www.w3.org/2000/svg" xmlns:xlink="http://www.w3.org/1999/xlink" x="0px" y="0px"
	 viewBox="0 0 190.5 88.3" style="enable-background:new 0 0 190.5 88.3;" xml:space="preserve">
<style type="text/css">
	.st0{fill:#FFFFFF;stroke:#000000;stroke-width:0.25;stroke-miterlimit:10;}
	.st1{opacity:0.99;enable-background:new    ;}
	.st2{fill:#44B254;}
	.st3{fill:#495E4A;}
	.st4{opacity:0.5;fill:none;stroke:#000000;stroke-width:0.25;stroke-miterlimit:10;enable-background:new    ;}
	.st5{opacity:0.99;}
	.st6{enable-background:new    ;}
</style>
<polygon class="st0" points="190.4,80.5 104.5,80.5 96.9,88.1 89.3,80.5 0.1,80.5 0.1,0.1 190.4,0.1 "/>
<g>
	<g>
		<g class="st6">
			<path class="st2" d="M14.5,14.2h-2.8l-0.6,2.2H9.6l2.7-8.3H14l2.7,8.3h-1.5L14.5,14.2z M14.2,13.1l-0.3-1
				c-0.3-0.9-0.5-1.8-0.7-2.7h-0.1c-0.2,0.9-0.5,1.9-0.7,2.7l-0.3,1H14.2z"/>
			<path class="st2" d="M21,10.1c0.8,0,1.4,0.3,1.8,0.7l-0.7,0.9c-0.3-0.3-0.7-0.5-1.1-0.5c-1,0-1.7,0.8-1.7,2.1
				c0,1.2,0.7,2.1,1.7,2.1c0.5,0,0.9-0.3,1.3-0.5l0.6,0.9c-0.6,0.5-1.3,0.8-2,0.8c-1.7,0-3-1.2-3-3.3C17.8,11.3,19.3,10.1,21,10.1z"
				/>
			<path class="st2" d="M27.1,10.1c0.8,0,1.4,0.3,1.8,0.7l-0.7,0.9c-0.3-0.3-0.7-0.5-1.1-0.5c-1,0-1.7,0.8-1.7,2.1
				c0,1.2,0.7,2.1,1.7,2.1c0.5,0,0.9-0.3,1.3-0.5l0.6,0.9c-0.6,0.5-1.3,0.8-2,0.8c-1.7,0-3-1.2-3-3.3C24,11.3,25.5,10.1,27.1,10.1z"
				/>
			<path class="st2" d="M33.1,10.1c1.7,0,2.6,1.2,2.6,3c0,0.3,0,0.5-0.1,0.7h-4c0.1,1.1,0.8,1.8,1.8,1.8c0.5,0,1-0.2,1.4-0.5
				l0.5,0.9c-0.6,0.4-1.3,0.7-2.1,0.7c-1.7,0-3.1-1.2-3.1-3.3C30.2,11.3,31.6,10.1,33.1,10.1z M34.4,12.8c0-1-0.4-1.6-1.3-1.6
				c-0.7,0-1.4,0.5-1.5,1.6H34.4z"/>
			<path class="st2" d="M39.9,10.1c0.7,0,1.2,0.3,1.6,0.7l-0.1-1V7.5H43v9h-1.2l-0.1-0.7h-0.1c-0.5,0.5-1.1,0.8-1.8,0.8
				c-1.6,0-2.6-1.2-2.6-3.3C37.3,11.3,38.6,10.1,39.9,10.1z M40.2,15.4c0.5,0,0.9-0.2,1.3-0.7v-2.9c-0.4-0.4-0.8-0.5-1.3-0.5
				c-0.8,0-1.4,0.7-1.4,2.1C38.8,14.7,39.3,15.4,40.2,15.4z"/>
			<path class="st2" d="M47.9,10.1c1.7,0,2.6,1.2,2.6,3c0,0.3,0,0.5-0.1,0.7h-4c0.1,1.1,0.8,1.8,1.8,1.8c0.5,0,1-0.2,1.4-0.5
				l0.5,0.9c-0.6,0.4-1.3,0.7-2.1,0.7c-1.7,0-3.1-1.2-3.1-3.3C45.1,11.3,46.5,10.1,47.9,10.1z M49.2,12.8c0-1-0.4-1.6-1.3-1.6
				c-0.7,0-1.4,0.5-1.5,1.6H49.2z"/>
			<path class="st2" d="M52.5,10.3h1.2l0.1,0.8h0c0.6-0.5,1.2-1,2-1c1.3,0,1.9,0.9,1.9,2.5v3.9h-1.5v-3.7c0-1-0.3-1.4-1-1.4
				c-0.5,0-0.9,0.3-1.4,0.8v4.3h-1.5V10.3z"/>
			<path class="st2" d="M66.9,12.5c0-0.7-0.3-1.2-1.1-1.2c-0.6,0-1.2,0.3-1.8,0.6l-0.5-1c0.7-0.4,1.6-0.8,2.5-0.8
				c1.6,0,2.3,1,2.3,2.7v3.7h-1.2l-0.1-0.7h0c-0.6,0.5-1.2,0.8-1.9,0.8c-1.1,0-1.9-0.7-1.9-1.8C63.2,13.5,64.4,12.8,66.9,12.5z
				 M65.6,15.5c0.5,0,0.9-0.3,1.4-0.7v-1.4c-1.7,0.2-2.2,0.7-2.2,1.3C64.7,15.2,65,15.5,65.6,15.5z"/>
			<path class="st2" d="M75.5,17v2H74v-8.7h1.2l0.1,0.7h0.1c0.5-0.4,1.2-0.8,1.9-0.8c1.5,0,2.4,1.2,2.4,3.2c0,2.1-1.3,3.4-2.7,3.4
				c-0.5,0-1.1-0.3-1.6-0.7L75.5,17z M76.7,15.4c0.8,0,1.5-0.7,1.5-2.1c0-1.2-0.4-2-1.3-2c-0.5,0-0.9,0.2-1.4,0.7v2.9
				C75.9,15.3,76.4,15.4,76.7,15.4z"/>
			<path class="st2" d="M81.8,7.5h1.5V15c0,0.4,0.2,0.5,0.3,0.5c0.1,0,0.1,0,0.2,0l0.2,1.1c-0.2,0.1-0.4,0.1-0.8,0.1
				c-1,0-1.4-0.7-1.4-1.8V7.5z"/>
			<path class="st2" d="M89.3,12.5c0-0.7-0.3-1.2-1.1-1.2c-0.6,0-1.2,0.3-1.8,0.6l-0.5-1c0.7-0.4,1.6-0.8,2.5-0.8
				c1.6,0,2.3,1,2.3,2.7v3.7h-1.2l-0.1-0.7h0c-0.6,0.5-1.2,0.8-1.9,0.8c-1.1,0-1.9-0.7-1.9-1.8C85.6,13.5,86.7,12.8,89.3,12.5z
				 M87.9,15.5c0.5,0,0.9-0.3,1.4-0.7v-1.4c-1.7,0.2-2.2,0.7-2.2,1.3C87,15.2,87.4,15.5,87.9,15.5z"/>
			<path class="st2" d="M93.1,10.3h1.2l0.1,0.8h0c0.6-0.5,1.2-1,2-1c1.3,0,1.9,0.9,1.9,2.5v3.9H97v-3.7c0-1-0.3-1.4-1-1.4
				c-0.5,0-0.9,0.3-1.4,0.8v4.3h-1.5V10.3z"/>
			<path class="st2" d="M100.7,8.3c0-0.5,0.4-0.8,0.9-0.8c0.5,0,0.9,0.3,0.9,0.8c0,0.5-0.4,0.8-0.9,0.8
				C101.1,9.2,100.7,8.8,100.7,8.3z M100.9,10.3h1.5v6.2h-1.5V10.3z"/>
			<path class="st2" d="M108,8.7c-0.2-0.1-0.5-0.2-0.7-0.2c-0.5,0-0.8,0.3-0.8,1.1v0.7h1.2v1.2h-1.2v5.1h-1.5v-5.1h-0.8v-1.1
				l0.8-0.1V9.6c0-1.3,0.6-2.2,2.1-2.2c0.4,0,0.9,0.1,1.1,0.2L108,8.7z"/>
			<path class="st2" d="M109.3,8.3c0-0.5,0.4-0.8,0.9-0.8c0.5,0,0.9,0.3,0.9,0.8c0,0.5-0.4,0.8-0.9,0.8
				C109.7,9.2,109.3,8.8,109.3,8.3z M109.5,10.3h1.5v6.2h-1.5V10.3z"/>
			<path class="st2" d="M116.2,10.1c0.8,0,1.4,0.3,1.8,0.7l-0.7,0.9c-0.3-0.3-0.7-0.5-1.1-0.5c-1,0-1.7,0.8-1.7,2.1
				c0,1.2,0.7,2.1,1.7,2.1c0.5,0,0.9-0.3,1.3-0.5l0.6,0.9c-0.6,0.5-1.3,0.8-2,0.8c-1.7,0-3-1.2-3-3.3
				C113,11.3,114.5,10.1,116.2,10.1z"/>
			<path class="st2" d="M123.2,12.5c0-0.7-0.3-1.2-1.1-1.2c-0.6,0-1.2,0.3-1.8,0.6l-0.5-1c0.7-0.4,1.6-0.8,2.5-0.8
				c1.6,0,2.3,1,2.3,2.7v3.7h-1.2l-0.1-0.7h0c-0.6,0.5-1.2,0.8-1.9,0.8c-1.1,0-1.9-0.7-1.9-1.8C119.5,13.5,120.7,12.8,123.2,12.5z
				 M121.9,15.5c0.5,0,0.9-0.3,1.4-0.7v-1.4c-1.7,0.2-2.2,0.7-2.2,1.3C121,15.2,121.3,15.5,121.9,15.5z"/>
			<path class="st2" d="M129.8,10.1c0.8,0,1.4,0.3,1.8,0.7l-0.7,0.9c-0.3-0.3-0.7-0.5-1.1-0.5c-1,0-1.7,0.8-1.7,2.1
				c0,1.2,0.7,2.1,1.7,2.1c0.5,0,0.9-0.3,1.3-0.5l0.6,0.9c-0.6,0.5-1.3,0.8-2,0.8c-1.7,0-3-1.2-3-3.3
				C126.7,11.3,128.1,10.1,129.8,10.1z"/>
			<path class="st2" d="M133.4,8.3c0-0.5,0.4-0.8,0.9-0.8c0.5,0,0.9,0.3,0.9,0.8c0,0.5-0.4,0.8-0.9,0.8
				C133.8,9.2,133.4,8.8,133.4,8.3z M133.6,10.3h1.5v6.2h-1.5V10.3z"/>
			<path class="st2" d="M140.1,10.1c1.6,0,3,1.2,3,3.3c0,2.1-1.4,3.3-3,3.3c-1.5,0-3-1.2-3-3.3C137.1,11.3,138.5,10.1,140.1,10.1z
				 M140.1,15.4c0.9,0,1.5-0.8,1.5-2.1c0-1.3-0.6-2.1-1.5-2.1s-1.5,0.8-1.5,2.1C138.6,14.6,139.2,15.4,140.1,15.4z M140.2,9.2h-1.1
				l1.1-1.9h1.5L140.2,9.2z"/>
			<path class="st2" d="M145.1,10.3h1.2l0.1,0.8h0c0.6-0.5,1.2-1,2-1c1.3,0,1.9,0.9,1.9,2.5v3.9H149v-3.7c0-1-0.3-1.4-1-1.4
				c-0.5,0-0.9,0.3-1.4,0.8v4.3h-1.5V10.3z"/>
		</g>
		<g class="st6">
			<path class="st2" d="M13.7,23.9c-0.2-0.1-0.5-0.2-0.7-0.2c-0.5,0-0.8,0.3-0.8,1.1v0.7h1.2v1.2h-1.2v5.1h-1.5v-5.1H9.9v-1.1
				l0.8-0.1v-0.6c0-1.3,0.6-2.2,2.1-2.2c0.4,0,0.9,0.1,1.1,0.2L13.7,23.9z"/>
			<path class="st2" d="M18.3,27.7c0-0.7-0.3-1.2-1.1-1.2c-0.6,0-1.2,0.3-1.8,0.6l-0.5-1c0.7-0.4,1.6-0.8,2.5-0.8
				c1.6,0,2.3,1,2.3,2.7v3.7h-1.2L18.5,31h0c-0.6,0.5-1.2,0.8-1.9,0.8c-1.1,0-1.9-0.7-1.9-1.8C14.7,28.7,15.8,28,18.3,27.7z
				 M17,30.7c0.5,0,0.9-0.3,1.4-0.7v-1.4c-1.7,0.2-2.2,0.7-2.2,1.3C16.1,30.4,16.4,30.7,17,30.7z"/>
			<path class="st2" d="M22.2,25.5h1.2l0.1,0.8h0c0.5-0.6,1.1-1,1.9-1c0.9,0,1.4,0.4,1.7,1.1c0.6-0.6,1.2-1.1,2-1.1
				c1.3,0,1.9,0.9,1.9,2.5v3.9h-1.5V28c0-1-0.3-1.4-1-1.4c-0.4,0-0.8,0.3-1.3,0.8v4.3h-1.5V28c0-1-0.3-1.4-1-1.4
				c-0.4,0-0.8,0.3-1.3,0.8v4.3h-1.5V25.5z"/>
			<path class="st2" d="M33.4,23.5c0-0.5,0.4-0.8,0.9-0.8c0.5,0,0.9,0.3,0.9,0.8c0,0.5-0.4,0.8-0.9,0.8C33.7,24.4,33.4,24,33.4,23.5
				z M33.5,25.5H35v6.2h-1.5V25.5z"/>
			<path class="st2" d="M37.5,22.7h1.5v7.4c0,0.4,0.2,0.5,0.3,0.5c0.1,0,0.1,0,0.2,0l0.2,1.1c-0.2,0.1-0.4,0.1-0.8,0.1
				c-1,0-1.4-0.7-1.4-1.8V22.7z"/>
			<path class="st2" d="M41.4,23.5c0-0.5,0.4-0.8,0.9-0.8c0.5,0,0.9,0.3,0.9,0.8c0,0.5-0.4,0.8-0.9,0.8C41.8,24.4,41.4,24,41.4,23.5
				z M41.6,25.5H43v6.2h-1.5V25.5z"/>
			<path class="st2" d="M48.9,27.7c0-0.7-0.3-1.2-1.1-1.2c-0.6,0-1.2,0.3-1.8,0.6l-0.5-1c0.7-0.4,1.6-0.8,2.5-0.8
				c1.6,0,2.3,1,2.3,2.7v3.7h-1.2L49.1,31h0c-0.6,0.5-1.2,0.8-1.9,0.8c-1.1,0-1.9-0.7-1.9-1.8C45.2,28.7,46.4,28,48.9,27.7z
				 M47.6,30.7c0.5,0,0.9-0.3,1.4-0.7v-1.4c-1.7,0.2-2.2,0.7-2.2,1.3C46.7,30.4,47,30.7,47.6,30.7z"/>
			<path class="st2" d="M52.8,25.5H54l0.1,1.1h0.1c0.4-0.8,1.1-1.3,1.8-1.3c0.3,0,0.5,0,0.7,0.1l-0.3,1.3c-0.2-0.1-0.4-0.1-0.6-0.1
				c-0.5,0-1.1,0.3-1.5,1.3v3.8h-1.5V25.5z"/>
		</g>
	</g>
</g>
<g>
	<g class="st1">
		<path class="st3" d="M13.5,40.9c0.9,0,1.6,0.4,2,0.9L15,42.5c-0.4-0.4-0.9-0.7-1.5-0.7c-1.4,0-2.4,1.2-2.4,3
			c0,1.9,0.9,3.1,2.3,3.1c0.7,0,1.2-0.3,1.7-0.8l0.5,0.6c-0.6,0.7-1.3,1.1-2.3,1.1c-1.9,0-3.3-1.4-3.3-3.9
			C10.2,42.4,11.6,40.9,13.5,40.9z"/>
		<path class="st3" d="M19.2,42.9c1.4,0,2.6,1.1,2.6,2.9c0,1.8-1.2,2.9-2.6,2.9s-2.6-1.1-2.6-2.9C16.6,43.9,17.9,42.9,19.2,42.9z
			 M19.2,47.9c1,0,1.6-0.9,1.6-2.1c0-1.3-0.6-2.1-1.6-2.1c-0.9,0-1.6,0.9-1.6,2.1C17.6,47.1,18.3,47.9,19.2,47.9z"/>
		<path class="st3" d="M23.2,40.4h0.9v2.2l0,1c0.5-0.4,1.1-0.8,1.7-0.8c1.4,0,2.2,1.1,2.2,2.8c0,1.9-1.1,3-2.4,3
			c-0.5,0-1.1-0.3-1.6-0.7h0L24,48.6h-0.8V40.4z M25.5,47.9c0.9,0,1.6-0.8,1.6-2.2c0-1.2-0.4-2-1.5-2c-0.5,0-1,0.3-1.5,0.8v2.9
			C24.7,47.7,25.2,47.9,25.5,47.9z"/>
		<path class="st3" d="M31.7,42.9c1.4,0,2.2,1,2.2,2.6c0,0.2,0,0.4,0,0.5h-3.7c0.1,1.2,0.8,2,1.8,2c0.5,0,1-0.2,1.4-0.4l0.3,0.6
			c-0.5,0.3-1.1,0.6-1.8,0.6c-1.5,0-2.7-1.1-2.7-2.9C29.2,44,30.4,42.9,31.7,42.9z M33,45.4c0-1.1-0.5-1.8-1.4-1.8
			c-0.8,0-1.5,0.6-1.6,1.8H33z"/>
		<path class="st3" d="M35.2,43H36l0.1,1h0c0.4-0.7,0.9-1.1,1.6-1.1c0.2,0,0.4,0,0.6,0.1l-0.2,0.8c-0.2-0.1-0.3-0.1-0.5-0.1
			c-0.5,0-1,0.3-1.4,1.3v3.6h-0.9V43z"/>
		<path class="st3" d="M39.4,43.8h-0.8v-0.7l0.9-0.1l0.1-1.6h0.8V43h1.5v0.8h-1.5v3.1c0,0.7,0.2,1.1,0.9,1.1c0.2,0,0.4-0.1,0.6-0.1
			l0.2,0.7c-0.3,0.1-0.7,0.2-1,0.2c-1.2,0-1.6-0.8-1.6-1.8V43.8z"/>
		<path class="st3" d="M42.9,43h0.9v3.4c0,1,0.3,1.5,1,1.5c0.6,0,1-0.3,1.5-0.9V43h0.9v5.5h-0.8l-0.1-0.9h0c-0.5,0.6-1.1,1-1.8,1
			c-1.2,0-1.7-0.8-1.7-2.2V43z"/>
		<path class="st3" d="M49.2,43H50l0.1,1h0c0.4-0.7,0.9-1.1,1.6-1.1c0.2,0,0.4,0,0.6,0.1l-0.2,0.8c-0.2-0.1-0.3-0.1-0.5-0.1
			c-0.5,0-1,0.3-1.4,1.3v3.6h-0.9V43z"/>
		<path class="st3" d="M56,45c0-0.7-0.2-1.4-1.1-1.4c-0.7,0-1.2,0.3-1.7,0.6l-0.4-0.7c0.5-0.3,1.3-0.7,2.2-0.7
			c1.4,0,1.9,0.9,1.9,2.3v3.4h-0.8l-0.1-0.7h0c-0.5,0.4-1.2,0.8-1.8,0.8c-0.9,0-1.6-0.6-1.6-1.6C52.6,45.9,53.7,45.3,56,45z
			 M54.5,47.9c0.5,0,1-0.3,1.5-0.7v-1.5c-1.9,0.2-2.5,0.7-2.5,1.4C53.5,47.7,54,47.9,54.5,47.9z"/>
	</g>
</g>
<line class="st4" x1="9.6" y1="53" x2="179.9" y2="53"/>
<g class="st5">
	<g class="st1">
		<path class="st2" d="M10.6,60.2h0.9v7.5h-0.9V60.2z"/>
		<path class="st2" d="M13.2,63.9c0-2.4,1.3-3.8,3.2-3.8c1.9,0,3.2,1.5,3.2,3.8c0,2.4-1.3,3.9-3.2,3.9
			C14.5,67.8,13.2,66.3,13.2,63.9z M18.6,63.9c0-1.9-0.9-3-2.2-3c-1.3,0-2.2,1.2-2.2,3c0,1.9,0.9,3.1,2.2,3.1
			C17.7,66.9,18.6,65.7,18.6,63.9z"/>
		<path class="st2" d="M21.2,60.2h0.9v3.1h3.5v-3.1h1v7.5h-1v-3.5h-3.5v3.5h-0.9V60.2z"/>
	</g>
</g>
</svg>
