<?xml version="1.0" encoding="utf-8"?>
<!-- Generator: Adobe Illustrator 20.0.0, SVG Export Plug-In . SVG Version: 6.00 Build 0)  -->
<svg version="1.1" id="Capa_1" xmlns="http://www.w3.org/2000/svg" xmlns:xlink="http://www.w3.org/1999/xlink" x="0px" y="0px"
	 viewBox="0 0 190.5 88.3" style="enable-background:new 0 0 190.5 88.3;" xml:space="preserve">
<style type="text/css">
	.st0{fill:#FFFFFF;stroke:#000000;stroke-width:0.25;stroke-miterlimit:10;}
	.st1{opacity:0.99;enable-background:new    ;}
	.st2{fill:#44B254;}
	.st3{fill:#495E4A;}
	.st4{opacity:0.5;fill:none;stroke:#000000;stroke-width:0.25;stroke-miterlimit:10;enable-background:new    ;}
	.st5{opacity:0.99;}
	.st6{enable-background:new    ;}
</style>
<polygon class="st0" points="190.4,80.5 104.5,80.5 96.9,88.1 89.3,80.5 0.1,80.5 0.1,0.1 190.4,0.1 "/>
<g>
	<g>
		<g class="st1">
			<path class="st2" d="M10.7,8.2h1.6l1.5,4.1l0.5,1.6h0.1l0.5-1.6l1.5-4.1H18v8.3h-1.4v-3.8c0-0.8,0.1-1.9,0.2-2.6h-0.1l-0.7,1.9
				l-1.4,3.8H14l-1.4-3.8L11.9,10h-0.1c0.1,0.8,0.2,1.9,0.2,2.6v3.8h-1.4V8.2z"/>
			<path class="st2" d="M20.5,10.3H22V14c0,1,0.3,1.4,1,1.4c0.5,0,0.9-0.3,1.4-0.9v-4.3h1.5v6.2h-1.2l-0.1-0.9h0
				c-0.5,0.6-1.2,1.1-2,1.1c-1.3,0-1.9-0.9-1.9-2.5V10.3z"/>
			<path class="st2" d="M28.3,10.3h1.5v6.5c0,1.3-0.5,2.3-2,2.3c-0.5,0-0.8-0.1-1-0.2l0.3-1.1c0.2,0.1,0.3,0.1,0.5,0.1
				c0.6,0,0.7-0.4,0.7-1.1V10.3z M28.1,8.3c0-0.5,0.4-0.8,0.9-0.8c0.5,0,0.9,0.3,0.9,0.8c0,0.5-0.4,0.8-0.9,0.8
				C28.5,9.2,28.1,8.8,28.1,8.3z"/>
			<path class="st2" d="M34.7,10.1c1.7,0,2.6,1.2,2.6,3c0,0.3,0,0.5-0.1,0.7h-4c0.1,1.1,0.8,1.8,1.8,1.8c0.5,0,1-0.2,1.4-0.5
				l0.5,0.9c-0.6,0.4-1.3,0.7-2.1,0.7c-1.7,0-3.1-1.2-3.1-3.3C31.9,11.3,33.3,10.1,34.7,10.1z M36,12.8c0-1-0.4-1.6-1.3-1.6
				c-0.7,0-1.4,0.5-1.5,1.6H36z"/>
			<path class="st2" d="M39.3,10.3h1.2l0.1,1.1h0.1c0.4-0.8,1.1-1.3,1.8-1.3c0.3,0,0.5,0,0.7,0.1l-0.3,1.3c-0.2-0.1-0.4-0.1-0.6-0.1
				c-0.5,0-1.1,0.3-1.5,1.3v3.8h-1.5V10.3z"/>
			<path class="st2" d="M47,10.1c1.7,0,2.6,1.2,2.6,3c0,0.3,0,0.5-0.1,0.7h-4c0.1,1.1,0.8,1.8,1.8,1.8c0.5,0,1-0.2,1.4-0.5l0.5,0.9
				c-0.6,0.4-1.3,0.7-2.1,0.7c-1.7,0-3.1-1.2-3.1-3.3C44.2,11.3,45.6,10.1,47,10.1z M48.3,12.8c0-1-0.4-1.6-1.3-1.6
				c-0.7,0-1.4,0.5-1.5,1.6H48.3z"/>
			<path class="st2" d="M51.7,14.8c0.6,0.4,1.1,0.7,1.7,0.7c0.7,0,1-0.3,1-0.7c0-0.5-0.7-0.7-1.3-1c-0.8-0.3-1.8-0.8-1.8-1.8
				c0-1.1,0.9-1.9,2.3-1.9c0.9,0,1.6,0.4,2.1,0.7L55,11.7c-0.4-0.3-0.9-0.5-1.4-0.5c-0.6,0-0.9,0.3-0.9,0.7c0,0.5,0.6,0.7,1.3,0.9
				c0.8,0.3,1.8,0.7,1.8,1.9c0,1.1-0.8,1.9-2.4,1.9c-0.8,0-1.8-0.4-2.4-0.9L51.7,14.8z"/>
			<path class="st2" d="M63.7,10.1c0.8,0,1.4,0.3,1.8,0.7l-0.7,0.9c-0.3-0.3-0.7-0.5-1.1-0.5c-1,0-1.7,0.8-1.7,2.1
				c0,1.2,0.7,2.1,1.7,2.1c0.5,0,0.9-0.3,1.3-0.5l0.6,0.9c-0.6,0.5-1.3,0.8-2,0.8c-1.7,0-3-1.2-3-3.3C60.6,11.3,62,10.1,63.7,10.1z"
				/>
			<path class="st2" d="M69.7,10.1c1.6,0,3,1.2,3,3.3c0,2.1-1.4,3.3-3,3.3c-1.5,0-3-1.2-3-3.3C66.8,11.3,68.2,10.1,69.7,10.1z
				 M69.7,15.4c0.9,0,1.5-0.8,1.5-2.1c0-1.3-0.6-2.1-1.5-2.1c-0.9,0-1.5,0.8-1.5,2.1C68.3,14.6,68.8,15.4,69.7,15.4z"/>
			<path class="st2" d="M74.8,10.3H76l0.1,0.8h0.1c0.6-0.5,1.2-1,2-1c1.3,0,1.9,0.9,1.9,2.5v3.9h-1.5v-3.7c0-1-0.3-1.4-1-1.4
				c-0.5,0-0.9,0.3-1.4,0.8v4.3h-1.5V10.3z"/>
			<path class="st2" d="M88.2,10.1c1.7,0,2.6,1.2,2.6,3c0,0.3,0,0.5-0.1,0.7h-4c0.1,1.1,0.8,1.8,1.8,1.8c0.5,0,1-0.2,1.4-0.5
				l0.5,0.9c-0.6,0.4-1.3,0.7-2.1,0.7c-1.7,0-3.1-1.2-3.1-3.3C85.3,11.3,86.7,10.1,88.2,10.1z M89.5,12.8c0-1-0.4-1.6-1.3-1.6
				c-0.7,0-1.4,0.5-1.5,1.6H89.5z"/>
			<path class="st2" d="M92.8,7.5h1.5V15c0,0.4,0.2,0.5,0.3,0.5c0.1,0,0.1,0,0.2,0l0.2,1.1c-0.2,0.1-0.4,0.1-0.8,0.1
				c-1,0-1.4-0.7-1.4-1.8V7.5z"/>
			<path class="st2" d="M10.7,23.4h1.5v8.3h-1.5V23.4z"/>
			<path class="st2" d="M14.9,23.4h1.6l1.5,4.1l0.5,1.6h0.1l0.5-1.6l1.5-4.1h1.6v8.3h-1.4v-3.8c0-0.8,0.1-1.9,0.2-2.6H21l-0.7,1.9
				l-1.4,3.8h-0.7l-1.4-3.8l-0.7-1.9H16c0.1,0.8,0.2,1.9,0.2,2.6v3.8h-1.4V23.4z"/>
			<path class="st2" d="M28.3,23.3c1,0,1.8,0.5,2.4,1.1l-0.8,0.9c-0.4-0.4-0.9-0.7-1.5-0.7c-1.4,0-2.3,1.1-2.3,3c0,1.9,0.9,3,2.3,3
				c0.7,0,1.3-0.3,1.7-0.8l0.8,0.9c-0.7,0.8-1.5,1.2-2.6,1.2c-2.1,0-3.8-1.5-3.8-4.3C24.5,24.9,26.2,23.3,28.3,23.3z"/>
			<path class="st2" d="M36,25.5h1.2l0.1,1.1h0.1c0.4-0.8,1.1-1.3,1.8-1.3c0.3,0,0.5,0,0.7,0.1l-0.3,1.3c-0.2-0.1-0.4-0.1-0.6-0.1
				c-0.5,0-1.1,0.3-1.5,1.3v3.8H36V25.5z"/>
			<path class="st2" d="M43.7,25.3c1.7,0,2.6,1.2,2.6,3c0,0.3,0,0.5-0.1,0.7h-4c0.1,1.1,0.8,1.8,1.8,1.8c0.5,0,1-0.2,1.4-0.5
				l0.5,0.9c-0.6,0.4-1.3,0.7-2.1,0.7c-1.7,0-3.1-1.2-3.1-3.3C40.8,26.6,42.2,25.3,43.7,25.3z M45,28c0-1-0.4-1.6-1.3-1.6
				c-0.7,0-1.4,0.5-1.5,1.6H45z"/>
			<path class="st2" d="M51,25.3c0.8,0,1.4,0.3,1.8,0.7L52.1,27c-0.3-0.3-0.7-0.5-1.1-0.5c-1,0-1.7,0.8-1.7,2.1
				c0,1.2,0.7,2.1,1.7,2.1c0.5,0,0.9-0.3,1.3-0.5l0.6,0.9c-0.6,0.5-1.3,0.8-2,0.8c-1.7,0-3-1.2-3-3.3C47.9,26.5,49.4,25.3,51,25.3z"
				/>
			<path class="st2" d="M57,25.3c1.6,0,3,1.2,3,3.3c0,2.1-1.4,3.3-3,3.3c-1.5,0-3-1.2-3-3.3C54.1,26.5,55.5,25.3,57,25.3z M57,30.7
				c0.9,0,1.5-0.8,1.5-2.1c0-1.3-0.6-2.1-1.5-2.1c-0.9,0-1.5,0.8-1.5,2.1C55.6,29.8,56.1,30.7,57,30.7z"/>
			<path class="st2" d="M62.1,25.5h1.2l0.1,0.8h0c0.5-0.6,1.1-1,1.9-1c0.9,0,1.4,0.4,1.7,1.1c0.6-0.6,1.2-1.1,2-1.1
				c1.3,0,1.9,0.9,1.9,2.5v3.9h-1.5V28c0-1-0.3-1.4-1-1.4c-0.4,0-0.8,0.3-1.3,0.8v4.3h-1.5V28c0-1-0.3-1.4-1-1.4
				c-0.4,0-0.8,0.3-1.3,0.8v4.3h-1.5V25.5z"/>
			<path class="st2" d="M75.9,25.3c1.7,0,2.6,1.2,2.6,3c0,0.3,0,0.5-0.1,0.7h-4c0.1,1.1,0.8,1.8,1.8,1.8c0.5,0,1-0.2,1.4-0.5
				l0.5,0.9c-0.6,0.4-1.3,0.7-2.1,0.7c-1.7,0-3.1-1.2-3.1-3.3C73,26.6,74.4,25.3,75.9,25.3z M77.2,28c0-1-0.4-1.6-1.3-1.6
				c-0.7,0-1.4,0.5-1.5,1.6H77.2z"/>
			<path class="st2" d="M80.5,25.5h1.2l0.1,0.8h0c0.6-0.5,1.2-1,2-1c1.3,0,1.9,0.9,1.9,2.5v3.9h-1.5V28c0-1-0.3-1.4-1-1.4
				c-0.5,0-0.9,0.3-1.4,0.8v4.3h-1.5V25.5z"/>
			<path class="st2" d="M90.5,25.3c0.7,0,1.2,0.3,1.6,0.7l-0.1-1v-2.3h1.5v9h-1.2L92.2,31h-0.1c-0.5,0.5-1.1,0.8-1.8,0.8
				c-1.6,0-2.6-1.2-2.6-3.3C87.8,26.6,89.1,25.3,90.5,25.3z M90.8,30.6c0.5,0,0.9-0.2,1.3-0.7V27c-0.4-0.4-0.8-0.5-1.3-0.5
				c-0.8,0-1.4,0.7-1.4,2.1C89.3,29.9,89.9,30.6,90.8,30.6z"/>
			<path class="st2" d="M99.4,27.7c0-0.7-0.3-1.2-1.1-1.2c-0.6,0-1.2,0.3-1.8,0.6l-0.5-1c0.7-0.4,1.6-0.8,2.5-0.8
				c1.6,0,2.3,1,2.3,2.7v3.7h-1.2L99.6,31h0c-0.6,0.5-1.2,0.8-1.9,0.8c-1.1,0-1.9-0.7-1.9-1.8C95.7,28.7,96.9,28,99.4,27.7z
				 M98,30.7c0.5,0,0.9-0.3,1.4-0.7v-1.4c-1.7,0.2-2.2,0.7-2.2,1.3C97.2,30.5,97.5,30.7,98,30.7z"/>
			<path class="st2" d="M105.5,25.3c0.7,0,1.2,0.3,1.6,0.7l-0.1-1v-2.3h1.5v9h-1.2l-0.1-0.7h-0.1c-0.5,0.5-1.1,0.8-1.8,0.8
				c-1.6,0-2.6-1.2-2.6-3.3C102.9,26.6,104.2,25.3,105.5,25.3z M105.8,30.6c0.5,0,0.9-0.2,1.3-0.7V27c-0.4-0.4-0.8-0.5-1.3-0.5
				c-0.8,0-1.4,0.7-1.4,2.1C104.4,29.9,104.9,30.6,105.8,30.6z"/>
			<path class="st2" d="M113.6,25.3c1.6,0,3,1.2,3,3.3c0,2.1-1.4,3.3-3,3.3c-1.5,0-3-1.2-3-3.3C110.7,26.5,112.1,25.3,113.6,25.3z
				 M113.6,30.7c0.9,0,1.5-0.8,1.5-2.1c0-1.3-0.6-2.1-1.5-2.1s-1.5,0.8-1.5,2.1C112.2,29.8,112.7,30.7,113.6,30.7z"/>
		</g>
	</g>
</g>
<g>
	<g class="st1">
		<path class="st3" d="M13.5,40.9c0.9,0,1.6,0.4,2,0.9L15,42.5c-0.4-0.4-0.9-0.7-1.5-0.7c-1.4,0-2.4,1.2-2.4,3
			c0,1.9,0.9,3.1,2.3,3.1c0.7,0,1.2-0.3,1.7-0.8l0.5,0.6c-0.6,0.7-1.3,1.1-2.3,1.1c-1.9,0-3.3-1.4-3.3-3.9
			C10.2,42.4,11.6,40.9,13.5,40.9z"/>
		<path class="st3" d="M19.2,42.9c1.4,0,2.6,1.1,2.6,2.9c0,1.8-1.2,2.9-2.6,2.9s-2.6-1.1-2.6-2.9C16.6,43.9,17.9,42.9,19.2,42.9z
			 M19.2,47.9c1,0,1.6-0.9,1.6-2.1c0-1.3-0.6-2.1-1.6-2.1c-0.9,0-1.6,0.9-1.6,2.1C17.6,47.1,18.3,47.9,19.2,47.9z"/>
		<path class="st3" d="M23.2,40.4h0.9v2.2l0,1c0.5-0.4,1.1-0.8,1.7-0.8c1.4,0,2.2,1.1,2.2,2.8c0,1.9-1.1,3-2.4,3
			c-0.5,0-1.1-0.3-1.6-0.7h0L24,48.6h-0.8V40.4z M25.5,47.9c0.9,0,1.6-0.8,1.6-2.2c0-1.2-0.4-2-1.5-2c-0.5,0-1,0.3-1.5,0.8v2.9
			C24.7,47.7,25.2,47.9,25.5,47.9z"/>
		<path class="st3" d="M31.7,42.9c1.4,0,2.2,1,2.2,2.6c0,0.2,0,0.4,0,0.5h-3.7c0.1,1.2,0.8,2,1.8,2c0.5,0,1-0.2,1.4-0.4l0.3,0.6
			c-0.5,0.3-1.1,0.6-1.8,0.6c-1.5,0-2.7-1.1-2.7-2.9C29.2,44,30.4,42.9,31.7,42.9z M33,45.4c0-1.1-0.5-1.8-1.4-1.8
			c-0.8,0-1.5,0.6-1.6,1.8H33z"/>
		<path class="st3" d="M35.2,43H36l0.1,1h0c0.4-0.7,0.9-1.1,1.6-1.1c0.2,0,0.4,0,0.6,0.1l-0.2,0.8c-0.2-0.1-0.3-0.1-0.5-0.1
			c-0.5,0-1,0.3-1.4,1.3v3.6h-0.9V43z"/>
		<path class="st3" d="M39.4,43.8h-0.8v-0.7l0.9-0.1l0.1-1.6h0.8V43h1.5v0.8h-1.5v3.1c0,0.7,0.2,1.1,0.9,1.1c0.2,0,0.4-0.1,0.6-0.1
			l0.2,0.7c-0.3,0.1-0.7,0.2-1,0.2c-1.2,0-1.6-0.8-1.6-1.8V43.8z"/>
		<path class="st3" d="M42.9,43h0.9v3.4c0,1,0.3,1.5,1,1.5c0.6,0,1-0.3,1.5-0.9V43h0.9v5.5h-0.8l-0.1-0.9h0c-0.5,0.6-1.1,1-1.8,1
			c-1.2,0-1.7-0.8-1.7-2.2V43z"/>
		<path class="st3" d="M49.2,43H50l0.1,1h0c0.4-0.7,0.9-1.1,1.6-1.1c0.2,0,0.4,0,0.6,0.1l-0.2,0.8c-0.2-0.1-0.3-0.1-0.5-0.1
			c-0.5,0-1,0.3-1.4,1.3v3.6h-0.9V43z"/>
		<path class="st3" d="M56,45c0-0.7-0.2-1.4-1.1-1.4c-0.7,0-1.2,0.3-1.7,0.6l-0.4-0.7c0.5-0.3,1.3-0.7,2.2-0.7
			c1.4,0,1.9,0.9,1.9,2.3v3.4h-0.8l-0.1-0.7h0c-0.5,0.4-1.2,0.8-1.8,0.8c-0.9,0-1.6-0.6-1.6-1.6C52.6,45.9,53.7,45.3,56,45z
			 M54.5,47.9c0.5,0,1-0.3,1.5-0.7v-1.5c-1.9,0.2-2.5,0.7-2.5,1.4C53.5,47.7,54,47.9,54.5,47.9z"/>
	</g>
</g>
<line class="st4" x1="9.6" y1="53" x2="179.9" y2="53"/>
<g class="st5">
	<g class="st1">
		<path class="st2" d="M10.6,60.2h0.9v7.5h-0.9V60.2z"/>
		<path class="st2" d="M13.2,63.9c0-2.4,1.3-3.8,3.2-3.8c1.9,0,3.2,1.5,3.2,3.8c0,2.4-1.3,3.9-3.2,3.9
			C14.5,67.8,13.2,66.3,13.2,63.9z M18.6,63.9c0-1.9-0.9-3-2.2-3c-1.3,0-2.2,1.2-2.2,3c0,1.9,0.9,3.1,2.2,3.1
			C17.7,66.9,18.6,65.7,18.6,63.9z"/>
		<path class="st2" d="M21.2,60.2h0.9v3.1h3.5v-3.1h1v7.5h-1v-3.5h-3.5v3.5h-0.9V60.2z"/>
	</g>
</g>
</svg>
