<?xml version="1.0" encoding="utf-8"?>
<!-- Generator: Adobe Illustrator 20.0.0, SVG Export Plug-In . SVG Version: 6.00 Build 0)  -->
<svg version="1.1" id="Capa_1" xmlns="http://www.w3.org/2000/svg" xmlns:xlink="http://www.w3.org/1999/xlink" x="0px" y="0px"
	 viewBox="0 0 190.5 88.3" style="enable-background:new 0 0 190.5 88.3;" xml:space="preserve">
<style type="text/css">
	.st0{fill:#FFFFFF;stroke:#000000;stroke-width:0.25;stroke-miterlimit:10;}
	.st1{opacity:0.99;enable-background:new    ;}
	.st2{fill:#44B254;}
	.st3{fill:#495E4A;}
	.st4{opacity:0.5;fill:none;stroke:#000000;stroke-width:0.25;stroke-miterlimit:10;enable-background:new    ;}
	.st5{opacity:0.99;}
	.st6{enable-background:new    ;}
</style>
<polygon class="st0" points="190.4,80.4 104.5,80.4 96.9,88.1 89.3,80.4 0.1,80.4 0.1,0.1 190.4,0.1 "/>
<g class="st5">
	<g class="st1">
		<path class="st2" d="M10.9,13.5c0.6,0.5,1.3,0.9,2,0.9c0.9,0,1.4-0.4,1.4-1c0-0.6-0.5-0.9-1.2-1.2L12,11.7
			c-0.8-0.3-1.6-0.9-1.6-2.1c0-1.2,1.1-2.2,2.6-2.2c0.9,0,1.8,0.4,2.4,1l-0.7,0.9c-0.5-0.4-1-0.7-1.7-0.7c-0.7,0-1.2,0.3-1.2,0.9
			c0,0.6,0.6,0.8,1.2,1.1l1.1,0.4c0.9,0.4,1.6,1,1.6,2.1c0,1.3-1.1,2.3-2.8,2.3c-1.1,0-2.1-0.4-2.8-1.2L10.9,13.5z"/>
		<path class="st2" d="M19.9,9.4c1.6,0,2.4,1.2,2.4,2.8c0,0.3,0,0.5-0.1,0.6h-3.7c0.1,1.1,0.8,1.7,1.7,1.7c0.5,0,0.9-0.2,1.4-0.4
			l0.5,0.9c-0.6,0.4-1.3,0.6-2,0.6c-1.6,0-2.9-1.1-2.9-3.1C17.2,10.6,18.6,9.4,19.9,9.4z M21.2,12c0-0.9-0.4-1.5-1.2-1.5
			c-0.7,0-1.3,0.5-1.4,1.5H21.2z"/>
		<path class="st2" d="M27.4,7h1.4v7c0,0.3,0.2,0.5,0.3,0.5c0.1,0,0.1,0,0.2,0l0.2,1c-0.2,0.1-0.4,0.1-0.7,0.1c-1,0-1.3-0.6-1.3-1.7
			V7z"/>
		<path class="st2" d="M33.5,9.4c1.6,0,2.4,1.2,2.4,2.8c0,0.3,0,0.5-0.1,0.6h-3.7c0.1,1.1,0.8,1.7,1.7,1.7c0.5,0,0.9-0.2,1.4-0.4
			l0.5,0.9c-0.6,0.4-1.3,0.6-2,0.6c-1.6,0-2.9-1.1-2.9-3.1C30.8,10.6,32.2,9.4,33.5,9.4z M34.8,12c0-0.9-0.4-1.5-1.2-1.5
			c-0.7,0-1.3,0.5-1.4,1.5H34.8z"/>
		<path class="st2" d="M38,13.9c0.5,0.4,1,0.7,1.6,0.7c0.6,0,0.9-0.3,0.9-0.7c0-0.5-0.6-0.7-1.3-0.9c-0.8-0.3-1.7-0.7-1.7-1.7
			c0-1,0.8-1.8,2.1-1.8c0.8,0,1.5,0.3,2,0.7l-0.6,0.8c-0.4-0.3-0.8-0.5-1.3-0.5c-0.6,0-0.9,0.3-0.9,0.6c0,0.5,0.6,0.6,1.2,0.9
			c0.8,0.3,1.7,0.7,1.7,1.8c0,1-0.8,1.8-2.3,1.8c-0.8,0-1.7-0.3-2.2-0.8L38,13.9z"/>
		<path class="st2" d="M46.7,7h1.4v2.2l0,1.1c0.5-0.5,1.1-0.9,1.9-0.9c1.3,0,1.8,0.9,1.8,2.3v3.7h-1.4v-3.5c0-1-0.3-1.3-0.9-1.3
			c-0.5,0-0.9,0.3-1.3,0.7v4.1h-1.4V7z"/>
		<path class="st2" d="M57.2,11.7c0-0.6-0.3-1.2-1.1-1.2c-0.6,0-1.1,0.3-1.7,0.6L54,10.2c0.6-0.4,1.5-0.8,2.4-0.8
			c1.5,0,2.2,0.9,2.2,2.5v3.5h-1.1l-0.1-0.6h0c-0.5,0.4-1.1,0.8-1.8,0.8c-1,0-1.8-0.7-1.8-1.7C53.8,12.6,54.8,11.9,57.2,11.7z
			 M56,14.5c0.5,0,0.9-0.2,1.3-0.6v-1.3c-1.6,0.2-2.1,0.6-2.1,1.2C55.1,14.3,55.5,14.5,56,14.5z"/>
		<path class="st2" d="M66.4,9.4c1.5,0,2.8,1.1,2.8,3.1c0,2-1.3,3.1-2.8,3.1c-1.5,0-2.8-1.1-2.8-3.1C63.6,10.5,64.9,9.4,66.4,9.4z
			 M66.4,14.4c0.9,0,1.4-0.8,1.4-2c0-1.2-0.5-2-1.4-2c-0.9,0-1.4,0.8-1.4,2C65,13.7,65.5,14.4,66.4,14.4z"/>
		<path class="st2" d="M74.1,8c-0.2-0.1-0.4-0.1-0.6-0.1c-0.5,0-0.7,0.3-0.7,1v0.6h1.2v1.1h-1.2v4.8h-1.4v-4.8h-0.8v-1l0.8-0.1V8.9
			c0-1.2,0.6-2.1,2-2.1c0.4,0,0.8,0.1,1.1,0.2L74.1,8z"/>
		<path class="st2" d="M75.5,9.5h1.1l0.1,1h0c0.4-0.8,1-1.2,1.7-1.2c0.3,0,0.5,0,0.7,0.1l-0.2,1.2c-0.2-0.1-0.4-0.1-0.6-0.1
			c-0.5,0-1,0.3-1.4,1.2v3.6h-1.4V9.5z"/>
		<path class="st2" d="M82.8,9.4c1.6,0,2.4,1.2,2.4,2.8c0,0.3,0,0.5-0.1,0.6h-3.7c0.1,1.1,0.8,1.7,1.7,1.7c0.5,0,0.9-0.2,1.4-0.4
			l0.5,0.9c-0.6,0.4-1.3,0.6-2,0.6c-1.6,0-2.9-1.1-2.9-3.1C80.1,10.6,81.4,9.4,82.8,9.4z M84,12c0-0.9-0.4-1.5-1.2-1.5
			c-0.7,0-1.3,0.5-1.4,1.5H84z"/>
		<path class="st2" d="M89.7,9.4c0.8,0,1.3,0.3,1.7,0.7L90.8,11c-0.3-0.3-0.6-0.4-1-0.4c-0.9,0-1.6,0.8-1.6,2c0,1.2,0.6,2,1.6,2
			c0.5,0,0.9-0.2,1.2-0.5l0.6,0.9c-0.6,0.5-1.3,0.8-1.9,0.8c-1.6,0-2.8-1.1-2.8-3.1C86.8,10.5,88.1,9.4,89.7,9.4z"/>
		<path class="st2" d="M93.1,7.7c0-0.5,0.4-0.8,0.9-0.8c0.5,0,0.9,0.3,0.9,0.8c0,0.5-0.4,0.8-0.9,0.8C93.5,8.5,93.1,8.2,93.1,7.7z
			 M93.3,9.5h1.4v5.9h-1.4V9.5z"/>
		<path class="st2" d="M99.2,9.4c0.7,0,1.1,0.3,1.5,0.6l0-0.9V7h1.4v8.5h-1.1l-0.1-0.6h0c-0.4,0.4-1,0.8-1.7,0.8
			c-1.5,0-2.4-1.1-2.4-3.1C96.7,10.6,97.9,9.4,99.2,9.4z M99.4,14.4c0.5,0,0.8-0.2,1.2-0.7V11c-0.4-0.4-0.8-0.5-1.2-0.5
			c-0.8,0-1.4,0.7-1.4,1.9C98.1,13.7,98.6,14.4,99.4,14.4z"/>
		<path class="st2" d="M106.8,9.4c1.5,0,2.8,1.1,2.8,3.1c0,2-1.3,3.1-2.8,3.1c-1.5,0-2.8-1.1-2.8-3.1C104,10.5,105.3,9.4,106.8,9.4z
			 M106.8,14.4c0.9,0,1.4-0.8,1.4-2c0-1.2-0.5-2-1.4-2c-0.9,0-1.4,0.8-1.4,2C105.4,13.7,105.9,14.4,106.8,14.4z"/>
		<path class="st2" d="M114.6,9.5h1.4v3.5c0,1,0.3,1.3,0.9,1.3c0.5,0,0.9-0.2,1.3-0.8v-4h1.4v5.9h-1.1l-0.1-0.9h0
			c-0.5,0.6-1.1,1-1.9,1c-1.3,0-1.8-0.9-1.8-2.3V9.5z"/>
		<path class="st2" d="M121.9,9.5h1.1l0.1,0.8h0c0.5-0.5,1.1-0.9,1.9-0.9c1.3,0,1.8,0.9,1.8,2.3v3.7h-1.4v-3.5c0-1-0.3-1.3-0.9-1.3
			c-0.5,0-0.9,0.3-1.3,0.7v4.1h-1.4V9.5z"/>
		<path class="st2" d="M132.5,11.7c0-0.6-0.3-1.2-1.1-1.2c-0.6,0-1.1,0.3-1.7,0.6l-0.5-0.9c0.6-0.4,1.5-0.8,2.4-0.8
			c1.5,0,2.2,0.9,2.2,2.5v3.5h-1.1l-0.1-0.6h0c-0.5,0.4-1.1,0.8-1.8,0.8c-1,0-1.8-0.7-1.8-1.7C129,12.6,130,11.9,132.5,11.7z
			 M131.2,14.5c0.5,0,0.9-0.2,1.3-0.6v-1.3c-1.6,0.2-2.1,0.6-2.1,1.2C130.3,14.3,130.7,14.5,131.2,14.5z"/>
		<path class="st2" d="M140.6,15.9v1.8h-1.4V9.5h1.1l0.1,0.6h0c0.5-0.4,1.1-0.8,1.8-0.8c1.5,0,2.3,1.2,2.3,3c0,2-1.2,3.2-2.5,3.2
			c-0.5,0-1-0.2-1.5-0.6L140.6,15.9z M141.7,14.4c0.8,0,1.4-0.7,1.4-2c0-1.2-0.4-1.9-1.3-1.9c-0.4,0-0.8,0.2-1.3,0.7v2.7
			C141,14.3,141.4,14.4,141.7,14.4z"/>
		<path class="st2" d="M146.5,9.5h1.1l0.1,1h0c0.4-0.8,1-1.2,1.7-1.2c0.3,0,0.5,0,0.7,0.1l-0.2,1.2c-0.2-0.1-0.4-0.1-0.6-0.1
			c-0.5,0-1,0.3-1.4,1.2v3.6h-1.4V9.5z"/>
		<path class="st2" d="M151.6,9.5h1.4v3.5c0,1,0.3,1.3,0.9,1.3c0.5,0,0.9-0.2,1.3-0.8v-4h1.4v5.9h-1.1l-0.1-0.9h0
			c-0.5,0.6-1.1,1-1.9,1c-1.3,0-1.8-0.9-1.8-2.3V9.5z"/>
		<path class="st2" d="M161.2,9.4c1.6,0,2.4,1.2,2.4,2.8c0,0.3,0,0.5-0.1,0.6h-3.7c0.1,1.1,0.8,1.7,1.7,1.7c0.5,0,0.9-0.2,1.4-0.4
			l0.5,0.9c-0.6,0.4-1.3,0.6-2,0.6c-1.6,0-2.9-1.1-2.9-3.1C158.5,10.6,159.8,9.4,161.2,9.4z M162.5,12c0-0.9-0.4-1.5-1.2-1.5
			c-0.7,0-1.3,0.5-1.4,1.5H162.5z"/>
		<path class="st2" d="M165.6,7h1.4v2.2l0,1c0.5-0.4,1.1-0.7,1.7-0.7c1.5,0,2.3,1.2,2.3,3c0,2-1.2,3.2-2.5,3.2
			c-0.5,0-1.1-0.3-1.6-0.7h0l-0.1,0.6h-1.1V7z M168.1,14.4c0.8,0,1.4-0.7,1.4-2c0-1.2-0.4-1.9-1.3-1.9c-0.4,0-0.8,0.2-1.3,0.7v2.7
			C167.4,14.3,167.8,14.4,168.1,14.4z"/>
		<path class="st2" d="M176,11.7c0-0.6-0.3-1.2-1.1-1.2c-0.6,0-1.1,0.3-1.7,0.6l-0.5-0.9c0.6-0.4,1.5-0.8,2.4-0.8
			c1.5,0,2.2,0.9,2.2,2.5v3.5h-1.1l-0.1-0.6h0c-0.5,0.4-1.1,0.8-1.8,0.8c-1,0-1.8-0.7-1.8-1.7C172.5,12.6,173.6,11.9,176,11.7z
			 M174.7,14.5c0.5,0,0.9-0.2,1.3-0.6v-1.3c-1.6,0.2-2.1,0.6-2.1,1.2C173.9,14.3,174.2,14.5,174.7,14.5z"/>
	</g>
	<g class="st1">
		<path class="st2" d="M9.6,20.2H11l1.1,3.9c0.3,0.9,0.4,1.7,0.7,2.6h0c0.3-0.9,0.4-1.7,0.7-2.6l1.1-3.9h1.4l-2.4,7.8H12L9.6,20.2z"
			/>
		<path class="st2" d="M17.6,20.2H19v7.8h-1.4V20.2z"/>
		<path class="st2" d="M21.6,20.2H23v3.2h3.2v-3.2h1.4v7.8h-1.4v-3.5H23v3.5h-1.4V20.2z"/>
		<path class="st2" d="M38.3,22c0.7,0,1.1,0.3,1.5,0.6l0-0.9v-2.1h1.4v8.5H40l-0.1-0.6h0c-0.4,0.4-1,0.8-1.7,0.8
			c-1.5,0-2.4-1.1-2.4-3.1C35.8,23.2,37,22,38.3,22z M38.6,27.1c0.5,0,0.8-0.2,1.2-0.7v-2.7c-0.4-0.4-0.8-0.5-1.2-0.5
			c-0.8,0-1.4,0.7-1.4,1.9C37.2,26.4,37.7,27.1,38.6,27.1z"/>
		<path class="st2" d="M43.5,22.2h1.4v3.5c0,1,0.3,1.3,0.9,1.3c0.5,0,0.9-0.2,1.3-0.8v-4h1.4v5.9h-1.1l-0.1-0.9h0
			c-0.5,0.6-1.1,1-1.9,1c-1.3,0-1.8-0.9-1.8-2.3V22.2z"/>
		<path class="st2" d="M50.8,22.2h1.1l0.1,1h0c0.4-0.8,1-1.2,1.7-1.2c0.3,0,0.5,0,0.7,0.1l-0.2,1.2c-0.2-0.1-0.4-0.1-0.6-0.1
			c-0.5,0-1,0.3-1.4,1.2v3.6h-1.4V22.2z"/>
		<path class="st2" d="M58.8,24.3c0-0.6-0.3-1.2-1.1-1.2c-0.6,0-1.1,0.3-1.7,0.6l-0.5-0.9C56.2,22.4,57,22,58,22
			c1.5,0,2.2,0.9,2.2,2.5v3.5H59l-0.1-0.6h0c-0.5,0.4-1.1,0.8-1.8,0.8c-1,0-1.8-0.7-1.8-1.7C55.3,25.2,56.4,24.5,58.8,24.3z
			 M57.5,27.1c0.5,0,0.9-0.2,1.3-0.6v-1.3c-1.6,0.2-2.1,0.6-2.1,1.2C56.7,26.9,57,27.1,57.5,27.1z"/>
		<path class="st2" d="M62.4,22.2h1.1l0.1,0.8h0c0.5-0.5,1.1-0.9,1.9-0.9c1.3,0,1.8,0.9,1.8,2.3v3.7h-1.4v-3.5c0-1-0.3-1.3-0.9-1.3
			c-0.5,0-0.9,0.3-1.3,0.7v4.1h-1.4V22.2z"/>
		<path class="st2" d="M70,23.3h-0.8v-1l0.9-0.1l0.2-1.6h1.2v1.6h1.5v1.1h-1.5v2.8c0,0.7,0.3,1,0.8,1c0.2,0,0.4-0.1,0.6-0.1l0.2,1
			c-0.3,0.1-0.7,0.2-1.2,0.2c-1.4,0-1.9-0.9-1.9-2.1V23.3z"/>
		<path class="st2" d="M76.9,22c1.6,0,2.4,1.2,2.4,2.8c0,0.3,0,0.5-0.1,0.6h-3.7c0.1,1.1,0.8,1.7,1.7,1.7c0.5,0,0.9-0.2,1.4-0.4
			l0.5,0.9c-0.6,0.4-1.3,0.6-2,0.6c-1.6,0-2.9-1.1-2.9-3.1C74.2,23.2,75.5,22,76.9,22z M78.1,24.6c0-0.9-0.4-1.5-1.2-1.5
			c-0.7,0-1.3,0.5-1.4,1.5H78.1z"/>
		<path class="st2" d="M86.6,22c1.6,0,2.4,1.2,2.4,2.8c0,0.3,0,0.5-0.1,0.6h-3.7c0.1,1.1,0.8,1.7,1.7,1.7c0.5,0,0.9-0.2,1.4-0.4
			l0.5,0.9c-0.6,0.4-1.3,0.6-2,0.6c-1.6,0-2.9-1.1-2.9-3.1C83.9,23.2,85.3,22,86.6,22z M87.9,24.6c0-0.9-0.4-1.5-1.2-1.5
			c-0.7,0-1.3,0.5-1.4,1.5H87.9z"/>
		<path class="st2" d="M91,19.6h1.4v7c0,0.3,0.2,0.5,0.3,0.5c0.1,0,0.1,0,0.2,0l0.2,1c-0.2,0.1-0.4,0.1-0.7,0.1
			c-1,0-1.3-0.6-1.3-1.7V19.6z"/>
		<path class="st2" d="M100.2,22c1.6,0,2.4,1.2,2.4,2.8c0,0.3,0,0.5-0.1,0.6h-3.7c0.1,1.1,0.8,1.7,1.7,1.7c0.5,0,0.9-0.2,1.4-0.4
			l0.5,0.9c-0.6,0.4-1.3,0.6-2,0.6c-1.6,0-2.9-1.1-2.9-3.1C97.5,23.2,98.9,22,100.2,22z M101.5,24.6c0-0.9-0.4-1.5-1.2-1.5
			c-0.7,0-1.3,0.5-1.4,1.5H101.5z"/>
		<path class="st2" d="M104.6,22.2h1.1l0.1,0.8h0c0.5-0.5,1.1-0.9,1.8-0.9c0.9,0,1.4,0.4,1.6,1.1c0.6-0.6,1.2-1.1,1.9-1.1
			c1.2,0,1.8,0.9,1.8,2.3v3.7h-1.4v-3.5c0-1-0.3-1.3-0.9-1.3c-0.4,0-0.8,0.2-1.2,0.7v4.1h-1.4v-3.5c0-1-0.3-1.3-0.9-1.3
			c-0.4,0-0.8,0.2-1.2,0.7v4.1h-1.4V22.2z"/>
		<path class="st2" d="M115.3,19.6h1.4v2.2l0,1c0.5-0.4,1.1-0.7,1.7-0.7c1.5,0,2.3,1.2,2.3,3c0,2-1.2,3.2-2.5,3.2
			c-0.5,0-1.1-0.3-1.6-0.7h0l-0.1,0.6h-1.1V19.6z M117.9,27.1c0.8,0,1.4-0.7,1.4-2c0-1.2-0.4-1.9-1.3-1.9c-0.4,0-0.8,0.2-1.3,0.7
			v2.7C117.1,26.9,117.5,27.1,117.9,27.1z"/>
		<path class="st2" d="M125.7,24.3c0-0.6-0.3-1.2-1.1-1.2c-0.6,0-1.1,0.3-1.7,0.6l-0.5-0.9c0.6-0.4,1.5-0.8,2.4-0.8
			c1.5,0,2.2,0.9,2.2,2.5v3.5H126l-0.1-0.6h0c-0.5,0.4-1.1,0.8-1.8,0.8c-1,0-1.8-0.7-1.8-1.7C122.3,25.2,123.3,24.5,125.7,24.3z
			 M124.5,27.1c0.5,0,0.9-0.2,1.3-0.6v-1.3c-1.6,0.2-2.1,0.6-2.1,1.2C123.6,26.9,124,27.1,124.5,27.1z"/>
		<path class="st2" d="M129.4,22.2h1.1l0.1,1h0c0.4-0.8,1-1.2,1.7-1.2c0.3,0,0.5,0,0.7,0.1l-0.2,1.2c-0.2-0.1-0.4-0.1-0.6-0.1
			c-0.5,0-1,0.3-1.4,1.2v3.6h-1.4V22.2z"/>
		<path class="st2" d="M137.4,24.3c0-0.6-0.3-1.2-1.1-1.2c-0.6,0-1.1,0.3-1.7,0.6l-0.5-0.9c0.6-0.4,1.5-0.8,2.4-0.8
			c1.5,0,2.2,0.9,2.2,2.5v3.5h-1.1l-0.1-0.6h0c-0.5,0.4-1.1,0.8-1.8,0.8c-1,0-1.8-0.7-1.8-1.7C133.9,25.2,135,24.5,137.4,24.3z
			 M136.1,27.1c0.5,0,0.9-0.2,1.3-0.6v-1.3c-1.6,0.2-2.1,0.6-2.1,1.2C135.2,26.9,135.6,27.1,136.1,27.1z"/>
		<path class="st2" d="M140.6,27.3l2.8-4.1h-2.5v-1.1h4.2v0.7l-2.8,4.1h2.9v1.1h-4.6V27.3z"/>
		<path class="st2" d="M149.2,22c1.5,0,2.8,1.1,2.8,3.1c0,2-1.3,3.1-2.8,3.1c-1.5,0-2.8-1.1-2.8-3.1C146.4,23.1,147.8,22,149.2,22z
			 M149.2,27.1c0.9,0,1.4-0.8,1.4-2c0-1.2-0.5-2-1.4-2c-0.9,0-1.4,0.8-1.4,2C147.9,26.3,148.4,27.1,149.2,27.1z"/>
		<path class="st2" d="M154.7,26.3c0.5,0,0.9,0.4,0.9,0.9c0,0.5-0.4,0.9-0.9,0.9s-0.9-0.4-0.9-0.9C153.8,26.7,154.2,26.3,154.7,26.3
			z"/>
	</g>
</g>
<g>
	<g class="st1">
		<path class="st3" d="M13.5,40.9c0.9,0,1.6,0.4,2,0.9L15,42.4c-0.4-0.4-0.9-0.7-1.5-0.7c-1.4,0-2.4,1.2-2.4,3
			c0,1.9,0.9,3.1,2.3,3.1c0.7,0,1.2-0.3,1.7-0.8l0.5,0.6c-0.6,0.7-1.3,1.1-2.3,1.1c-1.9,0-3.3-1.4-3.3-3.9
			C10.2,42.3,11.6,40.9,13.5,40.9z"/>
		<path class="st3" d="M19.2,42.8c1.4,0,2.6,1.1,2.6,2.9c0,1.8-1.2,2.9-2.6,2.9s-2.6-1.1-2.6-2.9C16.6,43.9,17.9,42.8,19.2,42.8z
			 M19.2,47.9c1,0,1.6-0.9,1.6-2.1c0-1.3-0.6-2.1-1.6-2.1c-0.9,0-1.6,0.9-1.6,2.1C17.6,47,18.3,47.9,19.2,47.9z"/>
		<path class="st3" d="M23.2,40.4h0.9v2.2l0,1c0.5-0.4,1.1-0.8,1.7-0.8c1.4,0,2.2,1.1,2.2,2.8c0,1.9-1.1,3-2.4,3
			c-0.5,0-1.1-0.3-1.6-0.7h0L24,48.5h-0.8V40.4z M25.5,47.8c0.9,0,1.6-0.8,1.6-2.2c0-1.2-0.4-2-1.5-2c-0.5,0-1,0.3-1.5,0.8v2.9
			C24.7,47.7,25.2,47.8,25.5,47.8z"/>
		<path class="st3" d="M31.7,42.8c1.4,0,2.2,1,2.2,2.6c0,0.2,0,0.4,0,0.5h-3.7c0.1,1.2,0.8,2,1.8,2c0.5,0,1-0.2,1.4-0.4l0.3,0.6
			c-0.5,0.3-1.1,0.6-1.8,0.6c-1.5,0-2.7-1.1-2.7-2.9C29.2,43.9,30.4,42.8,31.7,42.8z M33,45.3c0-1.1-0.5-1.8-1.4-1.8
			c-0.8,0-1.5,0.6-1.6,1.8H33z"/>
		<path class="st3" d="M35.2,43H36l0.1,1h0c0.4-0.7,0.9-1.1,1.6-1.1c0.2,0,0.4,0,0.6,0.1l-0.2,0.8c-0.2-0.1-0.3-0.1-0.5-0.1
			c-0.5,0-1,0.3-1.4,1.3v3.6h-0.9V43z"/>
		<path class="st3" d="M39.4,43.7h-0.8V43l0.9-0.1l0.1-1.6h0.8V43h1.5v0.8h-1.5v3.1c0,0.7,0.2,1.1,0.9,1.1c0.2,0,0.4-0.1,0.6-0.1
			l0.2,0.7c-0.3,0.1-0.7,0.2-1,0.2c-1.2,0-1.6-0.8-1.6-1.8V43.7z"/>
		<path class="st3" d="M42.9,43h0.9v3.4c0,1,0.3,1.5,1,1.5c0.6,0,1-0.3,1.5-0.9V43h0.9v5.5h-0.8l-0.1-0.9h0c-0.5,0.6-1.1,1-1.8,1
			c-1.2,0-1.7-0.8-1.7-2.2V43z"/>
		<path class="st3" d="M49.2,43H50l0.1,1h0c0.4-0.7,0.9-1.1,1.6-1.1c0.2,0,0.4,0,0.6,0.1l-0.2,0.8c-0.2-0.1-0.3-0.1-0.5-0.1
			c-0.5,0-1,0.3-1.4,1.3v3.6h-0.9V43z"/>
		<path class="st3" d="M56,45c0-0.7-0.2-1.4-1.1-1.4c-0.7,0-1.2,0.3-1.7,0.6l-0.4-0.7c0.5-0.3,1.3-0.7,2.2-0.7
			c1.4,0,1.9,0.9,1.9,2.3v3.4h-0.8l-0.1-0.7h0c-0.5,0.4-1.2,0.8-1.8,0.8c-0.9,0-1.6-0.6-1.6-1.6C52.6,45.9,53.7,45.2,56,45z
			 M54.5,47.9c0.5,0,1-0.3,1.5-0.7v-1.5c-1.9,0.2-2.5,0.7-2.5,1.4C53.5,47.6,54,47.9,54.5,47.9z"/>
	</g>
</g>
<line class="st4" x1="9.6" y1="52.9" x2="179.9" y2="52.9"/>
<g class="st5">
	<g class="st1">
		<path class="st2" d="M10.6,60.1h0.9v7.5h-0.9V60.1z"/>
		<path class="st2" d="M13.2,63.8c0-2.4,1.3-3.8,3.2-3.8c1.9,0,3.2,1.5,3.2,3.8c0,2.4-1.3,3.9-3.2,3.9
			C14.5,67.7,13.2,66.2,13.2,63.8z M18.6,63.8c0-1.9-0.9-3-2.2-3c-1.3,0-2.2,1.2-2.2,3c0,1.9,0.9,3.1,2.2,3.1
			C17.7,66.9,18.6,65.7,18.6,63.8z"/>
		<path class="st2" d="M21.2,60.1h0.9v3.1h3.5v-3.1h1v7.5h-1v-3.5h-3.5v3.5h-0.9V60.1z"/>
	</g>
</g>
</svg>
