<?xml version="1.0" encoding="utf-8"?>
<!-- Generator: Adobe Illustrator 20.0.0, SVG Export Plug-In . SVG Version: 6.00 Build 0)  -->
<svg version="1.1" id="Capa_1" xmlns="http://www.w3.org/2000/svg" xmlns:xlink="http://www.w3.org/1999/xlink" x="0px" y="0px"
	 viewBox="0 0 190.6 88.3" style="enable-background:new 0 0 190.6 88.3;" xml:space="preserve">
<style type="text/css">
	.st0{fill:#FFFFFF;stroke:#000000;stroke-width:0.25;stroke-miterlimit:10;}
	.st1{opacity:0.99;enable-background:new    ;}
	.st2{fill:#44B254;}
	.st3{fill:#495E4A;}
	.st4{opacity:0.5;fill:none;stroke:#000000;stroke-width:0.25;stroke-miterlimit:10;enable-background:new    ;}
	.st5{opacity:0.99;}
	.st6{enable-background:new    ;}
</style>
<polygon class="st0" points="190.4,80.5 104.5,80.5 96.9,88.1 89.3,80.5 0.1,80.5 0.1,0.1 190.4,0.1 "/>
<g>
	<g>
		<g class="st6">
			<path class="st2" d="M10.9,14.4c0.6,0.6,1.4,0.9,2.2,0.9c0.9,0,1.4-0.4,1.4-1.1c0-0.7-0.5-0.9-1.3-1.2l-1.1-0.5
				c-0.8-0.3-1.7-1-1.7-2.2C10.5,9,11.6,8,13.2,8c1,0,1.9,0.4,2.5,1.1L15,10c-0.5-0.4-1.1-0.7-1.8-0.7c-0.8,0-1.3,0.4-1.3,1
				c0,0.6,0.6,0.9,1.3,1.2l1.1,0.5c1,0.4,1.7,1,1.7,2.2c0,1.3-1.1,2.5-3,2.5c-1.1,0-2.2-0.4-3-1.2L10.9,14.4z"/>
			<path class="st2" d="M21.5,12.5c0-0.7-0.3-1.2-1.1-1.2c-0.6,0-1.2,0.3-1.8,0.6l-0.5-1c0.7-0.4,1.6-0.8,2.5-0.8
				c1.6,0,2.3,1,2.3,2.7v3.7h-1.2l-0.1-0.7h0c-0.6,0.5-1.2,0.8-1.9,0.8c-1.1,0-1.9-0.7-1.9-1.8C17.8,13.5,18.9,12.8,21.5,12.5z
				 M20.1,15.5c0.5,0,0.9-0.3,1.4-0.7v-1.4c-1.7,0.2-2.2,0.7-2.2,1.3C19.2,15.2,19.6,15.5,20.1,15.5z"/>
			<path class="st2" d="M25.3,7.5h1.5v2.3l0,1c0.5-0.5,1.2-0.8,1.8-0.8c1.6,0,2.5,1.2,2.5,3.2c0,2.1-1.3,3.4-2.7,3.4
				c-0.6,0-1.2-0.3-1.7-0.8h0l-0.1,0.6h-1.2V7.5z M28.1,15.4c0.8,0,1.5-0.7,1.5-2.1c0-1.2-0.4-2-1.3-2c-0.5,0-0.9,0.2-1.4,0.7v2.9
				C27.2,15.3,27.7,15.4,28.1,15.4z"/>
			<path class="st2" d="M35.6,10.1c1.7,0,2.6,1.2,2.6,3c0,0.3,0,0.5-0.1,0.7h-4c0.1,1.1,0.8,1.8,1.8,1.8c0.5,0,1-0.2,1.4-0.5
				l0.5,0.9c-0.6,0.4-1.3,0.7-2.1,0.7c-1.7,0-3.1-1.2-3.1-3.3C32.7,11.3,34.1,10.1,35.6,10.1z M36.9,12.8c0-1-0.4-1.6-1.3-1.6
				c-0.7,0-1.4,0.5-1.5,1.6H36.9z"/>
			<path class="st2" d="M40.2,10.3h1.2l0.1,0.8h0c0.6-0.5,1.2-1,2-1c1.3,0,1.9,0.9,1.9,2.5v3.9H44v-3.7c0-1-0.3-1.4-1-1.4
				c-0.5,0-0.9,0.3-1.4,0.8v4.3h-1.5V10.3z"/>
			<path class="st2" d="M53.4,10.1c0.7,0,1.2,0.3,1.6,0.7l-0.1-1V7.5h1.5v9h-1.2l-0.1-0.7h-0.1c-0.5,0.5-1.1,0.8-1.8,0.8
				c-1.6,0-2.6-1.2-2.6-3.3C50.8,11.3,52.1,10.1,53.4,10.1z M53.7,15.4c0.5,0,0.9-0.2,1.3-0.7v-2.9c-0.4-0.4-0.8-0.5-1.3-0.5
				c-0.8,0-1.4,0.7-1.4,2.1C52.3,14.7,52.8,15.4,53.7,15.4z"/>
			<path class="st2" d="M61.5,10.1c1.6,0,3,1.2,3,3.3c0,2.1-1.4,3.3-3,3.3c-1.5,0-3-1.2-3-3.3C58.5,11.3,60,10.1,61.5,10.1z
				 M61.5,15.4c0.9,0,1.5-0.8,1.5-2.1c0-1.3-0.6-2.1-1.5-2.1S60,12.1,60,13.4C60,14.6,60.6,15.4,61.5,15.4z"/>
			<path class="st2" d="M66.6,10.3h1.2l0.1,0.8h0c0.6-0.5,1.2-1,2-1c1.3,0,1.9,0.9,1.9,2.5v3.9h-1.5v-3.7c0-1-0.3-1.4-1-1.4
				c-0.5,0-0.9,0.3-1.4,0.8v4.3h-1.5V10.3z"/>
			<path class="st2" d="M76.5,10.1c0.7,0,1.2,0.3,1.6,0.7l-0.1-1V7.5h1.5v9h-1.2l-0.1-0.7h-0.1c-0.5,0.5-1.1,0.8-1.8,0.8
				c-1.6,0-2.6-1.2-2.6-3.3C73.9,11.3,75.2,10.1,76.5,10.1z M76.8,15.4c0.5,0,0.9-0.2,1.3-0.7v-2.9c-0.4-0.4-0.8-0.5-1.3-0.5
				c-0.8,0-1.4,0.7-1.4,2.1C75.4,14.7,75.9,15.4,76.8,15.4z"/>
			<path class="st2" d="M84.5,10.1c1.7,0,2.6,1.2,2.6,3c0,0.3,0,0.5-0.1,0.7h-4c0.1,1.1,0.8,1.8,1.8,1.8c0.5,0,1-0.2,1.4-0.5
				l0.5,0.9c-0.6,0.4-1.3,0.7-2.1,0.7c-1.7,0-3.1-1.2-3.1-3.3C81.7,11.3,83.1,10.1,84.5,10.1z M85.8,12.8c0-1-0.4-1.6-1.3-1.6
				c-0.7,0-1.4,0.5-1.5,1.6H85.8z"/>
			<path class="st2" d="M92.4,10.3h1.2l0.1,1.1h0.1c0.4-0.8,1.1-1.3,1.8-1.3c0.3,0,0.5,0,0.7,0.1L96,11.5c-0.2-0.1-0.4-0.1-0.6-0.1
				c-0.5,0-1.1,0.3-1.5,1.3v3.8h-1.5V10.3z"/>
			<path class="st2" d="M100.1,10.1c1.7,0,2.6,1.2,2.6,3c0,0.3,0,0.5-0.1,0.7h-4c0.1,1.1,0.8,1.8,1.8,1.8c0.5,0,1-0.2,1.4-0.5
				l0.5,0.9c-0.6,0.4-1.3,0.7-2.1,0.7c-1.7,0-3.1-1.2-3.1-3.3C97.2,11.3,98.6,10.1,100.1,10.1z M101.4,12.8c0-1-0.4-1.6-1.3-1.6
				c-0.7,0-1.4,0.5-1.5,1.6H101.4z"/>
			<path class="st2" d="M107.9,12.5c0-0.7-0.3-1.2-1.1-1.2c-0.6,0-1.2,0.3-1.8,0.6l-0.5-1c0.7-0.4,1.6-0.8,2.5-0.8
				c1.6,0,2.3,1,2.3,2.7v3.7h-1.2l-0.1-0.7h0c-0.6,0.5-1.2,0.8-1.9,0.8c-1.1,0-1.9-0.7-1.9-1.8C104.3,13.5,105.4,12.8,107.9,12.5z
				 M106.6,15.5c0.5,0,0.9-0.3,1.4-0.7v-1.4c-1.7,0.2-2.2,0.7-2.2,1.3C105.7,15.2,106.1,15.5,106.6,15.5z"/>
			<path class="st2" d="M111.8,7.5h1.5V15c0,0.4,0.2,0.5,0.3,0.5c0.1,0,0.1,0,0.2,0l0.2,1.1c-0.2,0.1-0.4,0.1-0.8,0.1
				c-1,0-1.4-0.7-1.4-1.7V7.5z"/>
			<path class="st2" d="M115.7,8.3c0-0.5,0.4-0.8,0.9-0.8c0.5,0,0.9,0.3,0.9,0.8c0,0.5-0.4,0.8-0.9,0.8
				C116.1,9.2,115.7,8.8,115.7,8.3z M115.9,10.3h1.5v6.2h-1.5V10.3z"/>
			<path class="st2" d="M119.3,15.7l2.9-4.3h-2.6v-1.2h4.4V11l-2.9,4.3h3v1.2h-4.9V15.7z"/>
			<path class="st2" d="M129.2,12.5c0-0.7-0.3-1.2-1.1-1.2c-0.6,0-1.2,0.3-1.8,0.6l-0.5-1c0.7-0.4,1.6-0.8,2.5-0.8
				c1.6,0,2.3,1,2.3,2.7v3.7h-1.2l-0.1-0.7h0c-0.6,0.5-1.2,0.8-1.9,0.8c-1.1,0-1.9-0.7-1.9-1.8C125.6,13.5,126.7,12.8,129.2,12.5z
				 M127.9,15.5c0.5,0,0.9-0.3,1.4-0.7v-1.4c-1.7,0.2-2.2,0.7-2.2,1.3C127,15.2,127.4,15.5,127.9,15.5z"/>
			<path class="st2" d="M133.1,10.3h1.2l0.1,1.1h0c0.4-0.8,1.1-1.3,1.8-1.3c0.3,0,0.5,0,0.7,0.1l-0.3,1.3c-0.2-0.1-0.4-0.1-0.6-0.1
				c-0.5,0-1.1,0.3-1.5,1.3v3.8h-1.5V10.3z"/>
			<path class="st2" d="M138.4,14.8c0.6,0.4,1.1,0.7,1.7,0.7c0.7,0,1-0.3,1-0.7c0-0.5-0.7-0.7-1.3-1c-0.8-0.3-1.8-0.8-1.8-1.8
				c0-1.1,0.9-1.9,2.3-1.9c0.9,0,1.6,0.4,2.1,0.7l-0.7,0.9c-0.4-0.3-0.9-0.5-1.4-0.5c-0.6,0-0.9,0.3-0.9,0.7c0,0.5,0.6,0.7,1.3,0.9
				c0.8,0.3,1.8,0.7,1.8,1.9c0,1.1-0.8,1.9-2.4,1.9c-0.8,0-1.8-0.4-2.4-0.9L138.4,14.8z"/>
			<path class="st2" d="M146.9,10.1c1.7,0,2.6,1.2,2.6,3c0,0.3,0,0.5-0.1,0.7h-4c0.1,1.1,0.8,1.8,1.8,1.8c0.5,0,1-0.2,1.4-0.5
				l0.5,0.9c-0.6,0.4-1.3,0.7-2.1,0.7c-1.7,0-3.1-1.2-3.1-3.3C144.1,11.3,145.5,10.1,146.9,10.1z M148.2,12.8c0-1-0.4-1.6-1.3-1.6
				c-0.7,0-1.4,0.5-1.5,1.6H148.2z"/>
		</g>
		<g class="st6">
			<path class="st2" d="M13,24.3c1.7,0,2.6,1.2,2.6,3c0,0.3,0,0.5-0.1,0.7h-4c0.1,1.1,0.8,1.8,1.8,1.8c0.5,0,1-0.2,1.4-0.5l0.5,0.9
				c-0.6,0.4-1.3,0.7-2.1,0.7c-1.7,0-3.1-1.2-3.1-3.3C10.1,25.5,11.5,24.3,13,24.3z M14.3,27c0-1-0.4-1.6-1.3-1.6
				c-0.7,0-1.4,0.5-1.5,1.6H14.3z"/>
			<path class="st2" d="M17.6,21.7H19v7.4c0,0.4,0.2,0.5,0.3,0.5c0.1,0,0.1,0,0.2,0l0.2,1.1c-0.2,0.1-0.4,0.1-0.8,0.1
				c-1,0-1.4-0.7-1.4-1.8V21.7z"/>
			<path class="st2" d="M25.1,25.6h-0.9v-1.1l1-0.1l0.2-1.7h1.2v1.7h1.6v1.2h-1.6v3c0,0.7,0.3,1.1,0.9,1.1c0.2,0,0.5-0.1,0.6-0.1
				l0.3,1.1c-0.3,0.1-0.8,0.2-1.3,0.2c-1.4,0-2-0.9-2-2.3V25.6z"/>
			<path class="st2" d="M32.4,24.3c1.7,0,2.6,1.2,2.6,3c0,0.3,0,0.5-0.1,0.7h-4c0.1,1.1,0.8,1.8,1.8,1.8c0.5,0,1-0.2,1.4-0.5
				l0.5,0.9c-0.6,0.4-1.3,0.7-2.1,0.7c-1.7,0-3.1-1.2-3.1-3.3C29.6,25.5,31,24.3,32.4,24.3z M33.7,27c0-1-0.4-1.6-1.3-1.6
				c-0.7,0-1.4,0.5-1.5,1.6H33.7z"/>
			<path class="st2" d="M37.1,29c0.6,0.4,1.1,0.7,1.7,0.7c0.7,0,1-0.3,1-0.7c0-0.5-0.7-0.7-1.3-1c-0.8-0.3-1.8-0.8-1.8-1.8
				c0-1.1,0.9-1.9,2.3-1.9c0.9,0,1.6,0.4,2.1,0.7l-0.7,0.9c-0.4-0.3-0.9-0.5-1.4-0.5c-0.6,0-0.9,0.3-0.9,0.7c0,0.5,0.6,0.7,1.3,0.9
				c0.8,0.3,1.8,0.7,1.8,1.9c0,1.1-0.8,1.9-2.4,1.9c-0.8,0-1.7-0.4-2.4-0.9L37.1,29z"/>
			<path class="st2" d="M43.4,25.6h-0.9v-1.1l1-0.1l0.2-1.7h1.2v1.7h1.6v1.2h-1.6v3c0,0.7,0.3,1.1,0.9,1.1c0.2,0,0.5-0.1,0.6-0.1
				l0.3,1.1c-0.3,0.1-0.8,0.2-1.3,0.2c-1.4,0-2-0.9-2-2.3V25.6z"/>
			<path class="st2" d="M53.9,24.3c0.7,0,1.2,0.3,1.6,0.7l-0.1-1v-2.3h1.5v9h-1.2L55.6,30h-0.1c-0.5,0.5-1.1,0.8-1.8,0.8
				c-1.6,0-2.6-1.2-2.6-3.3C51.2,25.5,52.5,24.3,53.9,24.3z M54.1,29.6c0.5,0,0.9-0.2,1.3-0.7V26c-0.4-0.4-0.8-0.5-1.3-0.5
				c-0.8,0-1.4,0.7-1.4,2.1C52.7,28.9,53.2,29.6,54.1,29.6z"/>
			<path class="st2" d="M61.8,24.3c1.7,0,2.6,1.2,2.6,3c0,0.3,0,0.5-0.1,0.7h-4c0.1,1.1,0.8,1.8,1.8,1.8c0.5,0,1-0.2,1.4-0.5
				l0.5,0.9c-0.6,0.4-1.3,0.7-2.1,0.7c-1.7,0-3.1-1.2-3.1-3.3C59,25.5,60.4,24.3,61.8,24.3z M63.2,27c0-1-0.4-1.6-1.3-1.6
				c-0.7,0-1.4,0.5-1.5,1.6H63.2z"/>
			<path class="st2" d="M68.7,22.4h1.6l1.2,4.2c0.3,0.9,0.5,1.8,0.7,2.7h0c0.3-1,0.5-1.8,0.7-2.7l1.2-4.2h1.5L73,30.7h-1.7
				L68.7,22.4z"/>
			<path class="st2" d="M77.2,22.4h1.5v8.3h-1.5V22.4z"/>
			<path class="st2" d="M81.5,22.4h1.5v3.3h3.4v-3.3h1.5v8.3h-1.5V27h-3.4v3.7h-1.5V22.4z"/>
		</g>
	</g>
</g>
<g>
	<g class="st1">
		<path class="st3" d="M13.5,40.9c0.9,0,1.6,0.4,2,0.9L15,42.5c-0.4-0.4-0.9-0.7-1.5-0.7c-1.4,0-2.4,1.2-2.4,3
			c0,1.9,0.9,3.1,2.3,3.1c0.7,0,1.2-0.3,1.7-0.8l0.5,0.6c-0.6,0.7-1.3,1.1-2.3,1.1c-1.9,0-3.3-1.4-3.3-3.9
			C10.2,42.4,11.6,40.9,13.5,40.9z"/>
		<path class="st3" d="M19.2,42.9c1.4,0,2.6,1.1,2.6,2.9c0,1.8-1.2,2.9-2.6,2.9s-2.6-1.1-2.6-2.9C16.6,43.9,17.9,42.9,19.2,42.9z
			 M19.2,47.9c1,0,1.6-0.9,1.6-2.1c0-1.3-0.6-2.1-1.6-2.1c-0.9,0-1.6,0.9-1.6,2.1C17.6,47.1,18.3,47.9,19.2,47.9z"/>
		<path class="st3" d="M23.2,40.4h0.9v2.2l0,1c0.5-0.4,1.1-0.8,1.7-0.8c1.4,0,2.2,1.1,2.2,2.8c0,1.9-1.1,3-2.4,3
			c-0.5,0-1.1-0.3-1.6-0.7h0L24,48.5h-0.8V40.4z M25.5,47.9c0.9,0,1.6-0.8,1.6-2.2c0-1.2-0.4-2-1.5-2c-0.5,0-1,0.3-1.5,0.8v2.9
			C24.7,47.7,25.2,47.9,25.5,47.9z"/>
		<path class="st3" d="M31.7,42.9c1.4,0,2.2,1,2.2,2.6c0,0.2,0,0.4,0,0.5h-3.7c0.1,1.2,0.8,2,1.8,2c0.5,0,1-0.2,1.4-0.4l0.3,0.6
			c-0.5,0.3-1.1,0.6-1.8,0.6c-1.5,0-2.7-1.1-2.7-2.9C29.2,44,30.4,42.9,31.7,42.9z M33,45.4c0-1.1-0.5-1.8-1.4-1.8
			c-0.8,0-1.5,0.6-1.6,1.8H33z"/>
		<path class="st3" d="M35.2,43H36l0.1,1h0c0.4-0.7,0.9-1.1,1.6-1.1c0.2,0,0.4,0,0.6,0.1l-0.2,0.8c-0.2-0.1-0.3-0.1-0.5-0.1
			c-0.5,0-1,0.3-1.4,1.3v3.6h-0.9V43z"/>
		<path class="st3" d="M39.4,43.8h-0.8v-0.7l0.9-0.1l0.1-1.6h0.8V43h1.5v0.8h-1.5v3.1c0,0.7,0.2,1.1,0.9,1.1c0.2,0,0.4-0.1,0.6-0.1
			l0.2,0.7c-0.3,0.1-0.7,0.2-1,0.2c-1.2,0-1.6-0.8-1.6-1.8V43.8z"/>
		<path class="st3" d="M42.9,43h0.9v3.4c0,1,0.3,1.5,1,1.5c0.6,0,1-0.3,1.5-0.9V43h0.9v5.5h-0.8l-0.1-0.9h0c-0.5,0.6-1.1,1-1.8,1
			c-1.2,0-1.7-0.8-1.7-2.2V43z"/>
		<path class="st3" d="M49.2,43H50l0.1,1h0c0.4-0.7,0.9-1.1,1.6-1.1c0.2,0,0.4,0,0.6,0.1l-0.2,0.8c-0.2-0.1-0.3-0.1-0.5-0.1
			c-0.5,0-1,0.3-1.4,1.3v3.6h-0.9V43z"/>
		<path class="st3" d="M56,45c0-0.7-0.2-1.4-1.1-1.4c-0.7,0-1.2,0.3-1.7,0.6l-0.4-0.7c0.5-0.3,1.3-0.7,2.2-0.7
			c1.4,0,1.9,0.9,1.9,2.3v3.4h-0.8l-0.1-0.7h0c-0.5,0.4-1.2,0.8-1.8,0.8c-0.9,0-1.6-0.6-1.6-1.6C52.6,45.9,53.7,45.3,56,45z
			 M54.5,47.9c0.5,0,1-0.3,1.5-0.7v-1.5c-1.9,0.2-2.5,0.7-2.5,1.4C53.5,47.7,54,47.9,54.5,47.9z"/>
	</g>
</g>
<line class="st4" x1="9.6" y1="53" x2="179.9" y2="53"/>
<g class="st5">
	<g class="st1">
		<path class="st2" d="M10.6,60.2h0.9v7.5h-0.9V60.2z"/>
		<path class="st2" d="M13.2,63.9c0-2.4,1.3-3.8,3.2-3.8c1.9,0,3.2,1.5,3.2,3.8c0,2.4-1.3,3.9-3.2,3.9
			C14.5,67.8,13.2,66.3,13.2,63.9z M18.6,63.9c0-1.9-0.9-3-2.2-3c-1.3,0-2.2,1.2-2.2,3c0,1.9,0.9,3.1,2.2,3.1
			C17.7,66.9,18.6,65.7,18.6,63.9z"/>
		<path class="st2" d="M21.2,60.2h0.9v3.1h3.5v-3.1h1v7.5h-1v-3.5h-3.5v3.5h-0.9V60.2z"/>
	</g>
</g>
</svg>
