<?xml version="1.0" encoding="utf-8"?>
<!-- Generator: Adobe Illustrator 20.0.0, SVG Export Plug-In . SVG Version: 6.00 Build 0)  -->
<svg version="1.1" id="Capa_1" xmlns="http://www.w3.org/2000/svg" xmlns:xlink="http://www.w3.org/1999/xlink" x="0px" y="0px"
	 viewBox="0 0 190.6 88.3" style="enable-background:new 0 0 190.6 88.3;" xml:space="preserve">
<style type="text/css">
	.st0{fill:#FFFFFF;stroke:#000000;stroke-width:0.25;stroke-miterlimit:10;}
	.st1{opacity:0.99;enable-background:new    ;}
	.st2{fill:#44B254;}
	.st3{fill:#495E4A;}
	.st4{opacity:0.5;fill:none;stroke:#000000;stroke-width:0.25;stroke-miterlimit:10;enable-background:new    ;}
	.st5{opacity:0.99;}
	.st6{enable-background:new    ;}
</style>
<polygon class="st0" points="190.4,80.4 104.5,80.4 96.9,88.1 89.3,80.4 0.1,80.4 0.1,0.1 190.4,0.1 "/>
<g class="st5">
	<g class="st6">
		<path class="st2" d="M10.6,8.4H12v3.2h3.2V8.4h1.4v7.8h-1.4v-3.5H12v3.5h-1.4V8.4z"/>
		<path class="st2" d="M21.6,12.5c0-0.6-0.3-1.2-1.1-1.2c-0.6,0-1.1,0.3-1.7,0.6L18.4,11c0.6-0.4,1.5-0.8,2.4-0.8
			c1.5,0,2.2,0.9,2.2,2.5v3.5h-1.1l-0.1-0.6h0c-0.5,0.4-1.1,0.8-1.8,0.8c-1,0-1.8-0.7-1.8-1.7C18.2,13.4,19.2,12.8,21.6,12.5z
			 M20.4,15.3c0.5,0,0.9-0.2,1.3-0.6v-1.3c-1.6,0.2-2.1,0.6-2.1,1.2C19.5,15.1,19.9,15.3,20.4,15.3z"/>
		<path class="st2" d="M24.7,10.4h1.1l0.1,0.8h0c0.5-0.5,1.1-0.9,1.9-0.9c1.3,0,1.8,0.9,1.8,2.3v3.7h-1.4v-3.5c0-1-0.3-1.3-0.9-1.3
			c-0.5,0-0.9,0.3-1.3,0.7v4.1h-1.4V10.4z"/>
		<path class="st2" d="M33.9,10.4H35l0.1,1h0c0.4-0.8,1-1.2,1.7-1.2c0.3,0,0.5,0,0.7,0.1l-0.2,1.2c-0.2-0.1-0.4-0.1-0.6-0.1
			c-0.5,0-1,0.3-1.4,1.2v3.6h-1.4V10.4z"/>
		<path class="st2" d="M40.6,10.2c1.6,0,2.4,1.2,2.4,2.8c0,0.3,0,0.5-0.1,0.6h-3.7c0.1,1.1,0.8,1.7,1.7,1.7c0.5,0,0.9-0.2,1.4-0.4
			l0.5,0.9c-0.6,0.4-1.3,0.6-2,0.6c-1.6,0-2.9-1.1-2.9-3.1C37.9,11.4,39.2,10.2,40.6,10.2z M41.8,12.8c0-0.9-0.4-1.5-1.2-1.5
			c-0.7,0-1.3,0.5-1.4,1.5H41.8z"/>
		<path class="st2" d="M46.9,10.2c0.8,0,1.3,0.3,1.7,0.7L48,11.8c-0.3-0.3-0.6-0.4-1-0.4c-0.9,0-1.6,0.8-1.6,2c0,1.2,0.6,2,1.6,2
			c0.5,0,0.9-0.2,1.2-0.5l0.6,0.9c-0.6,0.5-1.3,0.8-1.9,0.8c-1.6,0-2.8-1.1-2.8-3.1C43.9,11.3,45.3,10.2,46.9,10.2z"/>
		<path class="st2" d="M49.7,8.6c0-0.5,0.4-0.8,0.9-0.8c0.5,0,0.9,0.3,0.9,0.8c0,0.5-0.4,0.8-0.9,0.8C50.1,9.3,49.7,9,49.7,8.6z
			 M49.9,10.4h1.4v5.9h-1.4V10.4z"/>
		<path class="st2" d="M53,7.8h1.4V10l0,1c0.5-0.4,1.1-0.7,1.7-0.7c1.5,0,2.3,1.2,2.3,3c0,2-1.2,3.2-2.5,3.2c-0.5,0-1.1-0.3-1.6-0.7
			h0l-0.1,0.6H53V7.8z M55.6,15.3c0.8,0,1.4-0.7,1.4-2c0-1.2-0.4-1.9-1.3-1.9c-0.4,0-0.8,0.2-1.3,0.7v2.7
			C54.8,15.1,55.2,15.3,55.6,15.3z"/>
		<path class="st2" d="M59.6,8.6c0-0.5,0.4-0.8,0.9-0.8c0.5,0,0.9,0.3,0.9,0.8c0,0.5-0.4,0.8-0.9,0.8C60,9.3,59.6,9,59.6,8.6z
			 M59.8,10.4h1.4v5.9h-1.4V10.4z"/>
		<path class="st2" d="M65.1,10.2c0.7,0,1.1,0.3,1.5,0.6l0-0.9V7.8h1.4v8.5h-1.1l-0.1-0.6h0c-0.4,0.4-1,0.8-1.7,0.8
			c-1.5,0-2.4-1.1-2.4-3.1C62.6,11.4,63.8,10.2,65.1,10.2z M65.3,15.3c0.5,0,0.8-0.2,1.2-0.7v-2.7c-0.4-0.4-0.8-0.5-1.2-0.5
			c-0.8,0-1.4,0.7-1.4,1.9C64,14.6,64.5,15.3,65.3,15.3z"/>
		<path class="st2" d="M72.1,10.2c1.5,0,2.8,1.1,2.8,3.1c0,2-1.3,3.1-2.8,3.1c-1.5,0-2.8-1.1-2.8-3.1C69.3,11.3,70.6,10.2,72.1,10.2
			z M72.1,15.3c0.9,0,1.4-0.8,1.4-2c0-1.2-0.5-2-1.4-2c-0.9,0-1.4,0.8-1.4,2C70.7,14.5,71.2,15.3,72.1,15.3z"/>
		<path class="st2" d="M80.1,16.7v1.8h-1.4v-8.2h1.1L80,11h0c0.5-0.4,1.1-0.8,1.8-0.8c1.5,0,2.3,1.2,2.3,3c0,2-1.2,3.2-2.5,3.2
			c-0.5,0-1-0.2-1.5-0.6L80.1,16.7z M81.3,15.3c0.8,0,1.4-0.7,1.4-2c0-1.2-0.4-1.9-1.3-1.9c-0.4,0-0.8,0.2-1.3,0.7v2.7
			C80.6,15.1,81,15.3,81.3,15.3z"/>
		<path class="st2" d="M85.5,10.4h1.1l0.1,1h0c0.4-0.8,1-1.2,1.7-1.2c0.3,0,0.5,0,0.7,0.1l-0.2,1.2c-0.2-0.1-0.4-0.1-0.6-0.1
			c-0.5,0-1,0.3-1.4,1.2v3.6h-1.4V10.4z"/>
		<path class="st2" d="M92.3,10.2c1.5,0,2.8,1.1,2.8,3.1c0,2-1.3,3.1-2.8,3.1c-1.5,0-2.8-1.1-2.8-3.1C89.5,11.3,90.8,10.2,92.3,10.2
			z M92.3,15.3c0.9,0,1.4-0.8,1.4-2c0-1.2-0.5-2-1.4-2s-1.4,0.8-1.4,2C90.9,14.5,91.4,15.3,92.3,15.3z"/>
		<path class="st2" d="M99.4,8.9c-0.2-0.1-0.4-0.1-0.6-0.1c-0.5,0-0.7,0.3-0.7,1v0.6h1.2v1.1H98v4.8h-1.4v-4.8h-0.8v-1l0.8-0.1V9.8
			c0-1.2,0.6-2.1,2-2.1c0.4,0,0.8,0.1,1.1,0.2L99.4,8.9z"/>
		<path class="st2" d="M100.1,8.6c0-0.5,0.4-0.8,0.9-0.8c0.5,0,0.9,0.3,0.9,0.8c0,0.5-0.4,0.8-0.9,0.8C100.4,9.3,100.1,9,100.1,8.6z
			 M100.2,10.4h1.4v5.9h-1.4V10.4z"/>
		<path class="st2" d="M103.4,7.8h1.4v7c0,0.3,0.2,0.5,0.3,0.5c0.1,0,0.1,0,0.2,0l0.2,1c-0.2,0.1-0.4,0.1-0.7,0.1
			c-1,0-1.3-0.6-1.3-1.7V7.8z"/>
		<path class="st2" d="M109.8,12.5c0-0.6-0.3-1.2-1.1-1.2c-0.6,0-1.1,0.3-1.7,0.6l-0.5-0.9c0.6-0.4,1.5-0.8,2.4-0.8
			c1.5,0,2.2,0.9,2.2,2.5v3.5h-1.1l-0.1-0.6h0c-0.5,0.4-1.1,0.8-1.8,0.8c-1,0-1.8-0.7-1.8-1.7C106.4,13.4,107.4,12.8,109.8,12.5z
			 M108.5,15.3c0.5,0,0.9-0.2,1.3-0.6v-1.3c-1.6,0.2-2.1,0.6-2.1,1.2C107.7,15.1,108,15.3,108.5,15.3z"/>
		<path class="st2" d="M114,13.2l-1.8-2.8h1.5l0.7,1.1c0.2,0.3,0.4,0.7,0.5,1h0c0.1-0.3,0.3-0.7,0.5-1l0.6-1.1h1.4l-1.7,3l1.9,2.9
			h-1.5l-0.7-1.2c-0.2-0.3-0.4-0.7-0.6-1h0c-0.2,0.3-0.3,0.7-0.5,1l-0.6,1.2h-1.4L114,13.2z"/>
		<path class="st2" d="M118.5,8.6c0-0.5,0.4-0.8,0.9-0.8c0.5,0,0.9,0.3,0.9,0.8c0,0.5-0.4,0.8-0.9,0.8C118.9,9.3,118.5,9,118.5,8.6z
			 M118.7,10.4h1.4v5.9h-1.4V10.4z"/>
		<path class="st2" d="M121.9,14.7c0.5,0.4,1,0.7,1.6,0.7c0.6,0,0.9-0.3,0.9-0.7c0-0.5-0.6-0.7-1.3-0.9c-0.8-0.3-1.7-0.7-1.7-1.7
			c0-1,0.8-1.8,2.1-1.8c0.8,0,1.5,0.3,2,0.7l-0.6,0.8c-0.4-0.3-0.8-0.5-1.3-0.5c-0.6,0-0.9,0.3-0.9,0.6c0,0.5,0.6,0.6,1.2,0.9
			c0.8,0.3,1.7,0.7,1.7,1.8c0,1-0.8,1.8-2.3,1.8c-0.8,0-1.7-0.3-2.2-0.8L121.9,14.7z"/>
		<path class="st2" d="M132,10.2c0.8,0,1.3,0.3,1.7,0.7l-0.7,0.9c-0.3-0.3-0.6-0.4-1-0.4c-0.9,0-1.6,0.8-1.6,2c0,1.2,0.6,2,1.6,2
			c0.5,0,0.9-0.2,1.2-0.5l0.6,0.9c-0.6,0.5-1.3,0.8-1.9,0.8c-1.6,0-2.8-1.1-2.8-3.1C129,11.3,130.4,10.2,132,10.2z"/>
		<path class="st2" d="M137.1,10.2c1.5,0,2.8,1.1,2.8,3.1c0,2-1.3,3.1-2.8,3.1c-1.5,0-2.8-1.1-2.8-3.1
			C134.3,11.3,135.6,10.2,137.1,10.2z M137.1,15.3c0.9,0,1.4-0.8,1.4-2c0-1.2-0.5-2-1.4-2s-1.4,0.8-1.4,2
			C135.7,14.5,136.2,15.3,137.1,15.3z"/>
		<path class="st2" d="M141.3,10.4h1.1l0.1,0.8h0c0.5-0.5,1.1-0.9,1.9-0.9c1.3,0,1.8,0.9,1.8,2.3v3.7h-1.4v-3.5c0-1-0.3-1.3-0.9-1.3
			c-0.5,0-0.9,0.3-1.3,0.7v4.1h-1.4V10.4z"/>
		<path class="st2" d="M148.2,11.5h-0.8v-1l0.9-0.1l0.2-1.6h1.2v1.6h1.5v1.1h-1.5v2.8c0,0.7,0.3,1,0.8,1c0.2,0,0.4-0.1,0.6-0.1
			l0.2,1c-0.3,0.1-0.7,0.2-1.2,0.2c-1.4,0-1.9-0.9-1.9-2.1V11.5z"/>
		<path class="st2" d="M152.3,10.4h1.1l0.1,1h0c0.4-0.8,1-1.2,1.7-1.2c0.3,0,0.5,0,0.7,0.1l-0.2,1.2c-0.2-0.1-0.4-0.1-0.6-0.1
			c-0.5,0-1,0.3-1.4,1.2v3.6h-1.4V10.4z"/>
		<path class="st2" d="M159.7,12.5c0-0.6-0.3-1.2-1.1-1.2c-0.6,0-1.1,0.3-1.7,0.6l-0.5-0.9c0.6-0.4,1.5-0.8,2.4-0.8
			c1.5,0,2.2,0.9,2.2,2.5v3.5h-1.1l-0.1-0.6h0c-0.5,0.4-1.1,0.8-1.8,0.8c-1,0-1.8-0.7-1.8-1.7C156.2,13.4,157.3,12.8,159.7,12.5z
			 M158.4,15.3c0.5,0,0.9-0.2,1.3-0.6v-1.3c-1.6,0.2-2.1,0.6-2.1,1.2C157.6,15.1,157.9,15.3,158.4,15.3z"/>
	</g>
	<g class="st6">
		<path class="st2" d="M10.5,21h1.4v7c0,0.3,0.2,0.5,0.3,0.5c0.1,0,0.1,0,0.2,0l0.2,1c-0.2,0.1-0.4,0.1-0.7,0.1
			c-1,0-1.3-0.6-1.3-1.7V21z"/>
		<path class="st2" d="M16.9,25.7c0-0.6-0.3-1.2-1.1-1.2c-0.6,0-1.1,0.3-1.7,0.6l-0.5-0.9c0.6-0.4,1.5-0.8,2.4-0.8
			c1.5,0,2.2,0.9,2.2,2.5v3.5h-1.1l-0.1-0.6h0c-0.5,0.4-1.1,0.8-1.8,0.8c-1,0-1.8-0.7-1.8-1.7C13.5,26.6,14.5,26,16.9,25.7z
			 M15.7,28.5c0.5,0,0.9-0.2,1.3-0.6v-1.3c-1.6,0.2-2.1,0.6-2.1,1.2C14.8,28.3,15.2,28.5,15.7,28.5z"/>
		<path class="st2" d="M22.5,23.6h1.1l0.1,0.8h0c0.5-0.5,1.1-0.9,1.8-0.9c0.9,0,1.4,0.4,1.6,1.1c0.6-0.6,1.2-1.1,1.9-1.1
			c1.2,0,1.8,0.9,1.8,2.3v3.7h-1.4v-3.5c0-1-0.3-1.3-0.9-1.3c-0.4,0-0.8,0.2-1.2,0.7v4.1H26v-3.5c0-1-0.3-1.3-0.9-1.3
			c-0.4,0-0.8,0.2-1.2,0.7v4.1h-1.4V23.6z"/>
		<path class="st2" d="M35.8,25.7c0-0.6-0.3-1.2-1.1-1.2c-0.6,0-1.1,0.3-1.7,0.6l-0.5-0.9c0.6-0.4,1.5-0.8,2.4-0.8
			c1.5,0,2.2,0.9,2.2,2.5v3.5H36l-0.1-0.6h0c-0.5,0.4-1.1,0.8-1.8,0.8c-1,0-1.8-0.7-1.8-1.7C32.3,26.6,33.4,26,35.8,25.7z
			 M34.5,28.5c0.5,0,0.9-0.2,1.3-0.6v-1.3c-1.6,0.2-2.1,0.6-2.1,1.2C33.7,28.3,34,28.5,34.5,28.5z"/>
		<path class="st2" d="M38.9,21h1.4v7c0,0.3,0.2,0.5,0.3,0.5c0.1,0,0.1,0,0.2,0l0.2,1c-0.2,0.1-0.4,0.1-0.7,0.1
			c-1,0-1.3-0.6-1.3-1.7V21z"/>
		<path class="st2" d="M45.3,25.7c0-0.6-0.3-1.2-1.1-1.2c-0.6,0-1.1,0.3-1.7,0.6l-0.5-0.9c0.6-0.4,1.5-0.8,2.4-0.8
			c1.5,0,2.2,0.9,2.2,2.5v3.5h-1.1l-0.1-0.6h0c-0.5,0.4-1.1,0.8-1.8,0.8c-1,0-1.8-0.7-1.8-1.7C41.9,26.6,42.9,26,45.3,25.7z
			 M44,28.5c0.5,0,0.9-0.2,1.3-0.6v-1.3c-1.6,0.2-2.1,0.6-2.1,1.2C43.2,28.3,43.5,28.5,44,28.5z"/>
		<path class="st2" d="M48.4,23.6h1.1l0.1,1h0c0.4-0.8,1-1.2,1.7-1.2c0.3,0,0.5,0,0.7,0.1l-0.2,1.2c-0.2-0.1-0.4-0.1-0.6-0.1
			c-0.5,0-1,0.3-1.4,1.2v3.6h-1.4V23.6z"/>
		<path class="st2" d="M52.7,21.8c0-0.5,0.4-0.8,0.9-0.8c0.5,0,0.9,0.3,0.9,0.8c0,0.5-0.4,0.8-0.9,0.8
			C53.1,22.5,52.7,22.2,52.7,21.8z M52.9,23.6h1.4v5.9h-1.4V23.6z"/>
		<path class="st2" d="M59.2,25.7c0-0.6-0.3-1.2-1.1-1.2c-0.6,0-1.1,0.3-1.7,0.6L56,24.2c0.6-0.4,1.5-0.8,2.4-0.8
			c1.5,0,2.2,0.9,2.2,2.5v3.5h-1.1l-0.1-0.6h0c-0.5,0.4-1.1,0.8-1.8,0.8c-1,0-1.8-0.7-1.8-1.7C55.8,26.6,56.8,26,59.2,25.7z
			 M57.9,28.5c0.5,0,0.9-0.2,1.3-0.6v-1.3c-1.6,0.2-2.1,0.6-2.1,1.2C57.1,28.3,57.4,28.5,57.9,28.5z"/>
		<path class="st2" d="M66.9,23.4c0.7,0,1.1,0.3,1.5,0.6l0-0.9V21h1.4v8.5h-1.1l-0.1-0.6h0c-0.4,0.4-1,0.8-1.7,0.8
			c-1.5,0-2.4-1.1-2.4-3.1C64.4,24.6,65.6,23.4,66.9,23.4z M67.1,28.5c0.5,0,0.8-0.2,1.2-0.7v-2.7c-0.4-0.4-0.8-0.5-1.2-0.5
			c-0.8,0-1.4,0.7-1.4,1.9C65.8,27.8,66.3,28.5,67.1,28.5z"/>
		<path class="st2" d="M71.4,23.6h1.4v3.5c0,1,0.3,1.3,0.9,1.3c0.5,0,0.9-0.2,1.3-0.8v-4h1.4v5.9h-1.1l-0.1-0.9h0
			c-0.5,0.6-1.1,1-1.9,1c-1.3,0-1.8-0.9-1.8-2.3V23.6z"/>
		<path class="st2" d="M78.2,23.6h1.1l0.1,1h0c0.4-0.8,1-1.2,1.7-1.2c0.3,0,0.5,0,0.7,0.1l-0.2,1.2c-0.2-0.1-0.4-0.1-0.6-0.1
			c-0.5,0-1,0.3-1.4,1.2v3.6h-1.4V23.6z"/>
		<path class="st2" d="M85.5,25.7c0-0.6-0.3-1.2-1.1-1.2c-0.6,0-1.1,0.3-1.7,0.6l-0.5-0.9c0.6-0.4,1.5-0.8,2.4-0.8
			c1.5,0,2.2,0.9,2.2,2.5v3.5h-1.1l-0.1-0.6h0c-0.5,0.4-1.1,0.8-1.8,0.8c-1,0-1.8-0.7-1.8-1.7C82.1,26.6,83.1,26,85.5,25.7z
			 M84.3,28.5c0.5,0,0.9-0.2,1.3-0.6v-1.3c-1.6,0.2-2.1,0.6-2.1,1.2C83.4,28.3,83.8,28.5,84.3,28.5z"/>
		<path class="st2" d="M88.6,23.6h1.1l0.1,0.8h0c0.5-0.5,1.1-0.9,1.9-0.9c1.3,0,1.8,0.9,1.8,2.3v3.7h-1.4v-3.5c0-1-0.3-1.3-0.9-1.3
			c-0.5,0-0.9,0.3-1.3,0.7v4.1h-1.4V23.6z"/>
		<path class="st2" d="M95.5,24.7h-0.8v-1l0.9-0.1l0.2-1.6h1.2v1.6h1.5v1.1h-1.5v2.8c0,0.7,0.3,1,0.8,1c0.2,0,0.4-0.1,0.6-0.1l0.2,1
			c-0.3,0.1-0.7,0.2-1.2,0.2c-1.4,0-1.9-0.9-1.9-2.1V24.7z"/>
		<path class="st2" d="M101.9,23.4c1.6,0,2.4,1.2,2.4,2.8c0,0.3,0,0.5-0.1,0.6h-3.7c0.1,1.1,0.8,1.7,1.7,1.7c0.5,0,0.9-0.2,1.4-0.4
			l0.5,0.9c-0.6,0.4-1.3,0.6-2,0.6c-1.6,0-2.9-1.1-2.9-3.1C99.2,24.6,100.5,23.4,101.9,23.4z M103.1,26c0-0.9-0.4-1.5-1.2-1.5
			c-0.7,0-1.3,0.5-1.4,1.5H103.1z"/>
		<path class="st2" d="M110.4,23.4c1.6,0,2.4,1.2,2.4,2.8c0,0.3,0,0.5-0.1,0.6H109c0.1,1.1,0.8,1.7,1.7,1.7c0.5,0,0.9-0.2,1.4-0.4
			l0.5,0.9c-0.6,0.4-1.3,0.6-2,0.6c-1.6,0-2.9-1.1-2.9-3.1C107.7,24.6,109,23.4,110.4,23.4z M111.6,26c0-0.9-0.4-1.5-1.2-1.5
			c-0.7,0-1.3,0.5-1.4,1.5H111.6z"/>
		<path class="st2" d="M114.2,21h1.4v7c0,0.3,0.2,0.5,0.3,0.5c0.1,0,0.1,0,0.2,0l0.2,1c-0.2,0.1-0.4,0.1-0.7,0.1
			c-1,0-1.3-0.6-1.3-1.7V21z"/>
		<path class="st2" d="M122.2,23.4c1.6,0,2.4,1.2,2.4,2.8c0,0.3,0,0.5-0.1,0.6h-3.7c0.1,1.1,0.8,1.7,1.7,1.7c0.5,0,0.9-0.2,1.4-0.4
			l0.5,0.9c-0.6,0.4-1.3,0.6-2,0.6c-1.6,0-2.9-1.1-2.9-3.1C119.5,24.6,120.8,23.4,122.2,23.4z M123.4,26c0-0.9-0.4-1.5-1.2-1.5
			c-0.7,0-1.3,0.5-1.4,1.5H123.4z"/>
		<path class="st2" d="M126,23.6h1.1l0.1,0.8h0c0.5-0.5,1.1-0.9,1.8-0.9c0.9,0,1.4,0.4,1.6,1.1c0.6-0.6,1.2-1.1,1.9-1.1
			c1.2,0,1.8,0.9,1.8,2.3v3.7H133v-3.5c0-1-0.3-1.3-0.9-1.3c-0.4,0-0.8,0.2-1.2,0.7v4.1h-1.4v-3.5c0-1-0.3-1.3-0.9-1.3
			c-0.4,0-0.8,0.2-1.2,0.7v4.1H126V23.6z"/>
		<path class="st2" d="M136.1,21h1.4v2.2l0,1c0.5-0.4,1.1-0.7,1.7-0.7c1.5,0,2.3,1.2,2.3,3c0,2-1.2,3.2-2.5,3.2
			c-0.5,0-1.1-0.3-1.6-0.7h0l-0.1,0.6h-1.1V21z M138.6,28.5c0.8,0,1.4-0.7,1.4-2c0-1.2-0.4-1.9-1.3-1.9c-0.4,0-0.8,0.2-1.3,0.7V28
			C137.9,28.3,138.3,28.5,138.6,28.5z"/>
		<path class="st2" d="M145.9,25.7c0-0.6-0.3-1.2-1.1-1.2c-0.6,0-1.1,0.3-1.7,0.6l-0.5-0.9c0.6-0.4,1.5-0.8,2.4-0.8
			c1.5,0,2.2,0.9,2.2,2.5v3.5h-1.1l-0.1-0.6h0c-0.5,0.4-1.1,0.8-1.8,0.8c-1,0-1.8-0.7-1.8-1.7C142.4,26.6,143.5,26,145.9,25.7z
			 M144.6,28.5c0.5,0,0.9-0.2,1.3-0.6v-1.3c-1.6,0.2-2.1,0.6-2.1,1.2C143.8,28.3,144.1,28.5,144.6,28.5z"/>
		<path class="st2" d="M149,23.6h1.1l0.1,1h0c0.4-0.8,1-1.2,1.7-1.2c0.3,0,0.5,0,0.7,0.1l-0.2,1.2c-0.2-0.1-0.4-0.1-0.6-0.1
			c-0.5,0-1,0.3-1.4,1.2v3.6H149V23.6z"/>
		<path class="st2" d="M156.3,25.7c0-0.6-0.3-1.2-1.1-1.2c-0.6,0-1.1,0.3-1.7,0.6l-0.5-0.9c0.6-0.4,1.5-0.8,2.4-0.8
			c1.5,0,2.2,0.9,2.2,2.5v3.5h-1.1l-0.1-0.6h0c-0.5,0.4-1.1,0.8-1.8,0.8c-1,0-1.8-0.7-1.8-1.7C152.9,26.6,153.9,26,156.3,25.7z
			 M155.1,28.5c0.5,0,0.9-0.2,1.3-0.6v-1.3c-1.6,0.2-2.1,0.6-2.1,1.2C154.2,28.3,154.6,28.5,155.1,28.5z"/>
		<path class="st2" d="M158.9,28.7l2.8-4.1h-2.5v-1.1h4.2v0.7l-2.8,4.1h2.9v1.1h-4.6V28.7z"/>
		<path class="st2" d="M167,23.4c1.5,0,2.8,1.1,2.8,3.1c0,2-1.3,3.1-2.8,3.1c-1.5,0-2.8-1.1-2.8-3.1C164.2,24.6,165.5,23.4,167,23.4
			z M167,28.5c0.9,0,1.4-0.8,1.4-2c0-1.2-0.5-2-1.4-2c-0.9,0-1.4,0.8-1.4,2C165.6,27.7,166.1,28.5,167,28.5z"/>
	</g>
</g>
<g>
	<g class="st1">
		<path class="st3" d="M13.5,40.9c0.9,0,1.6,0.4,2,0.9L15,42.4c-0.4-0.4-0.9-0.7-1.5-0.7c-1.4,0-2.4,1.2-2.4,3
			c0,1.9,0.9,3.1,2.3,3.1c0.7,0,1.2-0.3,1.7-0.8l0.5,0.6c-0.6,0.7-1.3,1.1-2.3,1.1c-1.9,0-3.3-1.4-3.3-3.9
			C10.2,42.3,11.6,40.9,13.5,40.9z"/>
		<path class="st3" d="M19.2,42.8c1.4,0,2.6,1.1,2.6,2.9c0,1.8-1.2,2.9-2.6,2.9s-2.6-1.1-2.6-2.9C16.6,43.9,17.9,42.8,19.2,42.8z
			 M19.2,47.9c1,0,1.6-0.9,1.6-2.1c0-1.3-0.6-2.1-1.6-2.1c-0.9,0-1.6,0.9-1.6,2.1C17.6,47,18.3,47.9,19.2,47.9z"/>
		<path class="st3" d="M23.2,40.4h0.9v2.2l0,1c0.5-0.4,1.1-0.8,1.7-0.8c1.4,0,2.2,1.1,2.2,2.8c0,1.9-1.1,3-2.4,3
			c-0.5,0-1.1-0.3-1.6-0.7h0L24,48.5h-0.8V40.4z M25.5,47.8c0.9,0,1.6-0.8,1.6-2.2c0-1.2-0.4-2-1.5-2c-0.5,0-1,0.3-1.5,0.8v2.9
			C24.7,47.7,25.2,47.8,25.5,47.8z"/>
		<path class="st3" d="M31.7,42.8c1.4,0,2.2,1,2.2,2.6c0,0.2,0,0.4,0,0.5h-3.7c0.1,1.2,0.8,2,1.8,2c0.5,0,1-0.2,1.4-0.4l0.3,0.6
			c-0.5,0.3-1.1,0.6-1.8,0.6c-1.5,0-2.7-1.1-2.7-2.9C29.2,43.9,30.4,42.8,31.7,42.8z M33,45.3c0-1.1-0.5-1.8-1.4-1.8
			c-0.8,0-1.5,0.6-1.6,1.8H33z"/>
		<path class="st3" d="M35.2,43H36l0.1,1h0c0.4-0.7,0.9-1.1,1.6-1.1c0.2,0,0.4,0,0.6,0.1l-0.2,0.8c-0.2-0.1-0.3-0.1-0.5-0.1
			c-0.5,0-1,0.3-1.4,1.3v3.6h-0.9V43z"/>
		<path class="st3" d="M39.4,43.7h-0.8V43l0.9-0.1l0.1-1.6h0.8V43h1.5v0.8h-1.5v3.1c0,0.7,0.2,1.1,0.9,1.1c0.2,0,0.4-0.1,0.6-0.1
			l0.2,0.7c-0.3,0.1-0.7,0.2-1,0.2c-1.2,0-1.6-0.8-1.6-1.8V43.7z"/>
		<path class="st3" d="M42.9,43h0.9v3.4c0,1,0.3,1.5,1,1.5c0.6,0,1-0.3,1.5-0.9V43h0.9v5.5h-0.8l-0.1-0.9h0c-0.5,0.6-1.1,1-1.8,1
			c-1.2,0-1.7-0.8-1.7-2.2V43z"/>
		<path class="st3" d="M49.2,43H50l0.1,1h0c0.4-0.7,0.9-1.1,1.6-1.1c0.2,0,0.4,0,0.6,0.1l-0.2,0.8c-0.2-0.1-0.3-0.1-0.5-0.1
			c-0.5,0-1,0.3-1.4,1.3v3.6h-0.9V43z"/>
		<path class="st3" d="M56,45c0-0.7-0.2-1.4-1.1-1.4c-0.7,0-1.2,0.3-1.7,0.6l-0.4-0.7c0.5-0.3,1.3-0.7,2.2-0.7
			c1.4,0,1.9,0.9,1.9,2.3v3.4h-0.8l-0.1-0.7h0c-0.5,0.4-1.2,0.8-1.8,0.8c-0.9,0-1.6-0.6-1.6-1.6C52.6,45.9,53.7,45.2,56,45z
			 M54.5,47.9c0.5,0,1-0.3,1.5-0.7v-1.5c-1.9,0.2-2.5,0.7-2.5,1.4C53.5,47.6,54,47.9,54.5,47.9z"/>
	</g>
</g>
<line class="st4" x1="9.6" y1="52.9" x2="179.9" y2="52.9"/>
<g class="st5">
	<g class="st1">
		<path class="st2" d="M10.6,60.1h0.9v7.5h-0.9V60.1z"/>
		<path class="st2" d="M13.2,63.8c0-2.4,1.3-3.8,3.2-3.8c1.9,0,3.2,1.5,3.2,3.8c0,2.4-1.3,3.9-3.2,3.9
			C14.5,67.7,13.2,66.2,13.2,63.8z M18.6,63.8c0-1.9-0.9-3-2.2-3c-1.3,0-2.2,1.2-2.2,3c0,1.9,0.9,3.1,2.2,3.1
			C17.7,66.9,18.6,65.7,18.6,63.8z"/>
		<path class="st2" d="M21.2,60.1h0.9v3.1h3.5v-3.1h1v7.5h-1v-3.5h-3.5v3.5h-0.9V60.1z"/>
	</g>
</g>
</svg>
