<?xml version="1.0" encoding="utf-8"?>
<!-- Generator: Adobe Illustrator 20.0.0, SVG Export Plug-In . SVG Version: 6.00 Build 0)  -->
<svg version="1.1" id="Capa_1" xmlns="http://www.w3.org/2000/svg" xmlns:xlink="http://www.w3.org/1999/xlink" x="0px" y="0px"
	 viewBox="0 0 190.6 88.3" style="enable-background:new 0 0 190.6 88.3;" xml:space="preserve">
<style type="text/css">
	.st0{fill:#FFFFFF;stroke:#000000;stroke-width:0.25;stroke-miterlimit:10;}
	.st1{opacity:0.99;enable-background:new    ;}
	.st2{fill:#44B254;}
	.st3{fill:#495E4A;}
	.st4{opacity:0.5;fill:none;stroke:#000000;stroke-width:0.25;stroke-miterlimit:10;enable-background:new    ;}
	.st5{opacity:0.99;}
	.st6{enable-background:new    ;}
</style>
<polygon class="st0" points="190.4,80.4 104.5,80.4 96.9,88.1 89.3,80.4 0.1,80.4 0.1,0.1 190.4,0.1 "/>
<g class="st5">
	<g class="st6">
		<path class="st2" d="M10.5,8.2h1.3v2.9h2.9V8.2H16v7.2h-1.3v-3.2h-2.9v3.2h-1.3V8.2z"/>
		<path class="st2" d="M21.2,12c0-0.6-0.3-1.1-1-1.1c-0.5,0-1,0.2-1.5,0.5l-0.5-0.8c0.6-0.4,1.4-0.7,2.2-0.7c1.4,0,2,0.8,2,2.3v3.2
			h-1l-0.1-0.6h0c-0.5,0.4-1,0.7-1.7,0.7c-0.9,0-1.6-0.6-1.6-1.6C18,12.8,19,12.2,21.2,12z M20,14.6c0.4,0,0.8-0.2,1.2-0.6v-1.2
			c-1.5,0.2-1.9,0.6-1.9,1.1C19.2,14.4,19.6,14.6,20,14.6z"/>
		<path class="st2" d="M24.5,10h1l0.1,0.7h0c0.5-0.5,1-0.9,1.8-0.9c1.2,0,1.7,0.8,1.7,2.1v3.4h-1.3v-3.2c0-0.9-0.3-1.2-0.8-1.2
			c-0.5,0-0.8,0.2-1.2,0.7v3.8h-1.3V10z"/>
		<path class="st2" d="M37,12c0-0.6-0.3-1.1-1-1.1c-0.5,0-1,0.2-1.5,0.5l-0.5-0.8c0.6-0.4,1.4-0.7,2.2-0.7c1.4,0,2,0.8,2,2.3v3.2h-1
			l-0.1-0.6h0c-0.5,0.4-1,0.7-1.7,0.7c-0.9,0-1.6-0.6-1.6-1.6C33.8,12.8,34.8,12.2,37,12z M35.8,14.6c0.4,0,0.8-0.2,1.2-0.6v-1.2
			c-1.5,0.2-1.9,0.6-1.9,1.1C35.1,14.4,35.4,14.6,35.8,14.6z"/>
		<path class="st2" d="M42.7,9.9c0.7,0,1.2,0.3,1.6,0.6l-0.6,0.8c-0.3-0.3-0.6-0.4-0.9-0.4c-0.9,0-1.5,0.7-1.5,1.8
			c0,1.1,0.6,1.8,1.4,1.8c0.4,0,0.8-0.2,1.1-0.5l0.5,0.8c-0.5,0.5-1.2,0.7-1.8,0.7c-1.5,0-2.6-1-2.6-2.8C40,10.9,41.3,9.9,42.7,9.9z
			"/>
		<path class="st2" d="M48.1,9.9c0.7,0,1.2,0.3,1.6,0.6l-0.6,0.8c-0.3-0.3-0.6-0.4-0.9-0.4c-0.9,0-1.5,0.7-1.5,1.8
			c0,1.1,0.6,1.8,1.4,1.8c0.4,0,0.8-0.2,1.1-0.5l0.5,0.8c-0.5,0.5-1.2,0.7-1.8,0.7c-1.5,0-2.6-1-2.6-2.8
			C45.4,10.9,46.6,9.9,48.1,9.9z"/>
		<path class="st2" d="M53.2,9.9c1.5,0,2.2,1.1,2.2,2.6c0,0.2,0,0.5-0.1,0.6H52c0.1,1,0.7,1.5,1.6,1.5c0.5,0,0.9-0.1,1.3-0.4
			l0.4,0.8c-0.5,0.3-1.2,0.6-1.8,0.6c-1.5,0-2.7-1-2.7-2.8C50.8,11,52,9.9,53.2,9.9z M54.4,12.2c0-0.9-0.4-1.4-1.1-1.4
			c-0.6,0-1.2,0.5-1.3,1.4H54.4z"/>
		<path class="st2" d="M59.2,9.9c0.6,0,1,0.2,1.4,0.6l0-0.9v-2h1.3v7.8h-1l-0.1-0.6h0c-0.4,0.4-0.9,0.7-1.5,0.7
			c-1.4,0-2.2-1-2.2-2.8C56.9,11,58,9.9,59.2,9.9z M59.4,14.5c0.4,0,0.8-0.2,1.1-0.6v-2.5c-0.4-0.3-0.7-0.5-1.1-0.5
			c-0.7,0-1.3,0.6-1.3,1.8C58.2,13.9,58.6,14.5,59.4,14.5z"/>
		<path class="st2" d="M63.8,8.4c0-0.4,0.3-0.7,0.8-0.7c0.5,0,0.8,0.3,0.8,0.7c0,0.4-0.3,0.7-0.8,0.7C64.2,9.1,63.8,8.8,63.8,8.4z
			 M64,10h1.3v5.4H64V10z"/>
		<path class="st2" d="M69.4,9.9c0.6,0,1,0.2,1.4,0.6l0-0.9v-2H72v7.8h-1l-0.1-0.6h0c-0.4,0.4-0.9,0.7-1.5,0.7c-1.4,0-2.2-1-2.2-2.8
			C67.1,11,68.2,9.9,69.4,9.9z M69.6,14.5c0.4,0,0.8-0.2,1.1-0.6v-2.5c-0.4-0.3-0.7-0.5-1.1-0.5c-0.7,0-1.3,0.6-1.3,1.8
			C68.4,13.9,68.8,14.5,69.6,14.5z"/>
		<path class="st2" d="M76.4,9.9c1.4,0,2.6,1,2.6,2.8c0,1.8-1.2,2.8-2.6,2.8c-1.3,0-2.6-1-2.6-2.8C73.8,10.9,75,9.9,76.4,9.9z
			 M76.4,14.5c0.8,0,1.3-0.7,1.3-1.8c0-1.1-0.5-1.8-1.3-1.8c-0.8,0-1.3,0.7-1.3,1.8C75.1,13.8,75.6,14.5,76.4,14.5z"/>
		<path class="st2" d="M86.5,12c0-0.6-0.3-1.1-1-1.1c-0.5,0-1,0.2-1.5,0.5l-0.5-0.8c0.6-0.4,1.4-0.7,2.2-0.7c1.4,0,2,0.8,2,2.3v3.2
			h-1l-0.1-0.6h0c-0.5,0.4-1,0.7-1.7,0.7c-0.9,0-1.6-0.6-1.6-1.6C83.3,12.8,84.3,12.2,86.5,12z M85.3,14.6c0.4,0,0.8-0.2,1.2-0.6
			v-1.2c-1.5,0.2-1.9,0.6-1.9,1.1C84.6,14.4,84.9,14.6,85.3,14.6z"/>
		<path class="st2" d="M89.9,7.7h1.3v6.4c0,0.3,0.1,0.4,0.3,0.4c0.1,0,0.1,0,0.2,0l0.2,0.9c-0.2,0.1-0.4,0.1-0.7,0.1
			c-0.9,0-1.2-0.6-1.2-1.5V7.7z"/>
		<path class="st2" d="M97.5,15.9v1.7h-1.3V10h1l0.1,0.6h0c0.5-0.4,1-0.7,1.6-0.7c1.3,0,2.1,1.1,2.1,2.8c0,1.8-1.1,2.9-2.3,2.9
			c-0.5,0-0.9-0.2-1.4-0.6L97.5,15.9z M98.6,14.5c0.7,0,1.3-0.6,1.3-1.9c0-1.1-0.4-1.7-1.2-1.7c-0.4,0-0.8,0.2-1.2,0.6v2.5
			C97.9,14.4,98.2,14.5,98.6,14.5z"/>
		<path class="st2" d="M105.8,12c0-0.6-0.3-1.1-1-1.1c-0.5,0-1,0.2-1.5,0.5l-0.5-0.8c0.6-0.4,1.4-0.7,2.2-0.7c1.4,0,2,0.8,2,2.3v3.2
			h-1l-0.1-0.6h0c-0.5,0.4-1,0.7-1.7,0.7c-0.9,0-1.6-0.6-1.6-1.6C102.6,12.8,103.6,12.2,105.8,12z M104.6,14.6
			c0.4,0,0.8-0.2,1.2-0.6v-1.2c-1.5,0.2-1.9,0.6-1.9,1.1C103.8,14.4,104.1,14.6,104.6,14.6z"/>
		<path class="st2" d="M111.1,9.9c0.6,0,1,0.2,1.5,0.6h0l0.1-0.5h1v7.5h-1.3v-1.8l0-0.9c-0.4,0.4-0.9,0.7-1.5,0.7
			c-1.4,0-2.2-1-2.2-2.8C108.8,11,109.9,9.9,111.1,9.9z M111.3,14.5c0.4,0,0.8-0.2,1.1-0.6v-2.5c-0.4-0.3-0.7-0.5-1.1-0.5
			c-0.7,0-1.3,0.6-1.3,1.8C110.1,13.9,110.5,14.5,111.3,14.5z"/>
		<path class="st2" d="M115.8,10h1.3v3.2c0,0.9,0.3,1.2,0.8,1.2c0.5,0,0.8-0.2,1.2-0.7V10h1.3v5.4h-1l-0.1-0.8h0
			c-0.5,0.6-1,0.9-1.7,0.9c-1.2,0-1.7-0.8-1.7-2.1V10z"/>
		<path class="st2" d="M124.6,9.9c1.5,0,2.2,1.1,2.2,2.6c0,0.2,0,0.5-0.1,0.6h-3.4c0.1,1,0.7,1.5,1.6,1.5c0.5,0,0.9-0.1,1.3-0.4
			l0.4,0.8c-0.5,0.3-1.2,0.6-1.8,0.6c-1.5,0-2.7-1-2.7-2.8C122.2,11,123.4,9.9,124.6,9.9z M125.8,12.2c0-0.9-0.4-1.4-1.1-1.4
			c-0.6,0-1.2,0.5-1.3,1.4H125.8z"/>
		<path class="st2" d="M128.7,11h-0.8v-0.9l0.8-0.1l0.2-1.5h1.1V10h1.4v1h-1.4v2.6c0,0.6,0.2,0.9,0.8,0.9c0.2,0,0.4-0.1,0.6-0.1
			l0.2,0.9c-0.3,0.1-0.7,0.2-1.1,0.2c-1.3,0-1.7-0.8-1.7-2V11z"/>
		<path class="st2" d="M135,9.9c1.5,0,2.2,1.1,2.2,2.6c0,0.2,0,0.5-0.1,0.6h-3.4c0.1,1,0.7,1.5,1.6,1.5c0.5,0,0.9-0.1,1.3-0.4
			L137,15c-0.5,0.3-1.2,0.6-1.8,0.6c-1.5,0-2.7-1-2.7-2.8C132.5,11,133.7,9.9,135,9.9z M136.1,12.2c0-0.9-0.4-1.4-1.1-1.4
			c-0.6,0-1.2,0.5-1.3,1.4H136.1z"/>
	</g>
	<g class="st6">
		<path class="st2" d="M10.4,20.9h1.3v2l0,0.9c0.5-0.4,1-0.7,1.6-0.7c1.4,0,2.1,1.1,2.1,2.7c0,1.9-1.1,2.9-2.3,2.9
			c-0.5,0-1-0.2-1.5-0.7h0l-0.1,0.5h-1V20.9z M12.8,27.7c0.7,0,1.3-0.6,1.3-1.9c0-1.1-0.4-1.7-1.2-1.7c-0.4,0-0.8,0.2-1.2,0.6v2.5
			C12.1,27.6,12.4,27.7,12.8,27.7z"/>
		<path class="st2" d="M20,25.2c0-0.6-0.3-1.1-1-1.1c-0.5,0-1,0.2-1.5,0.5L17,23.8c0.6-0.4,1.4-0.7,2.2-0.7c1.4,0,2,0.8,2,2.3v3.2
			h-1L20.1,28h0c-0.5,0.4-1,0.7-1.7,0.7c-0.9,0-1.6-0.6-1.6-1.6C16.8,26,17.8,25.4,20,25.2z M18.8,27.8c0.4,0,0.8-0.2,1.2-0.6V26
			c-1.5,0.2-1.9,0.6-1.9,1.1C18,27.6,18.3,27.8,18.8,27.8z M19.4,22.3h-0.9l1-1.6h1.3L19.4,22.3z"/>
		<path class="st2" d="M23.4,27.2c0.5,0.4,0.9,0.6,1.5,0.6c0.6,0,0.9-0.3,0.9-0.6c0-0.5-0.6-0.6-1.2-0.9c-0.7-0.3-1.5-0.7-1.5-1.6
			c0-0.9,0.8-1.6,2-1.6c0.7,0,1.4,0.3,1.8,0.6l-0.6,0.8c-0.4-0.3-0.8-0.5-1.2-0.5c-0.5,0-0.8,0.3-0.8,0.6c0,0.4,0.5,0.6,1.1,0.8
			c0.7,0.3,1.6,0.6,1.6,1.6c0,0.9-0.7,1.7-2.1,1.7c-0.7,0-1.5-0.3-2-0.7L23.4,27.2z"/>
		<path class="st2" d="M28.5,21.6c0-0.4,0.3-0.7,0.8-0.7c0.5,0,0.8,0.3,0.8,0.7c0,0.4-0.3,0.7-0.8,0.7C28.8,22.3,28.5,22,28.5,21.6z
			 M28.6,23.2h1.3v5.4h-1.3V23.2z"/>
		<path class="st2" d="M34.4,23.1c0.7,0,1.2,0.3,1.6,0.6l-0.6,0.8c-0.3-0.3-0.6-0.4-0.9-0.4c-0.9,0-1.5,0.7-1.5,1.8
			c0,1.1,0.6,1.8,1.4,1.8c0.4,0,0.8-0.2,1.1-0.5l0.5,0.8c-0.5,0.5-1.2,0.7-1.8,0.7c-1.5,0-2.6-1-2.6-2.8
			C31.7,24.1,33,23.1,34.4,23.1z"/>
		<path class="st2" d="M39.6,23.1c1.4,0,2.6,1,2.6,2.8c0,1.8-1.2,2.8-2.6,2.8c-1.3,0-2.6-1-2.6-2.8C37.1,24.1,38.3,23.1,39.6,23.1z
			 M39.6,27.7c0.8,0,1.3-0.7,1.3-1.8c0-1.1-0.5-1.8-1.3-1.8c-0.8,0-1.3,0.7-1.3,1.8C38.4,27,38.8,27.7,39.6,27.7z"/>
		<path class="st2" d="M48.8,23.1c0.6,0,1,0.2,1.4,0.6l0-0.9v-2h1.3v7.8h-1L50.3,28h0c-0.4,0.4-0.9,0.7-1.5,0.7
			c-1.4,0-2.2-1-2.2-2.8C46.5,24.2,47.6,23.1,48.8,23.1z M49,27.7c0.4,0,0.8-0.2,1.1-0.6v-2.5c-0.4-0.3-0.7-0.5-1.1-0.5
			c-0.7,0-1.3,0.6-1.3,1.8C47.8,27.1,48.2,27.7,49,27.7z"/>
		<path class="st2" d="M55.7,23.1c1.5,0,2.2,1.1,2.2,2.6c0,0.2,0,0.5-0.1,0.6h-3.4c0.1,1,0.7,1.5,1.6,1.5c0.5,0,0.9-0.1,1.3-0.4
			l0.4,0.8c-0.5,0.3-1.2,0.6-1.8,0.6c-1.5,0-2.7-1-2.7-2.8C53.2,24.2,54.4,23.1,55.7,23.1z M56.8,25.4c0-0.9-0.4-1.4-1.1-1.4
			c-0.6,0-1.2,0.5-1.3,1.4H56.8z"/>
		<path class="st2" d="M65.4,25.2c0-0.6-0.3-1.1-1-1.1c-0.5,0-1,0.2-1.5,0.5l-0.5-0.8c0.6-0.4,1.4-0.7,2.2-0.7c1.4,0,2,0.8,2,2.3
			v3.2h-1L65.6,28h0c-0.5,0.4-1,0.7-1.7,0.7c-0.9,0-1.6-0.6-1.6-1.6C62.3,26,63.2,25.4,65.4,25.2z M64.3,27.8c0.4,0,0.8-0.2,1.2-0.6
			V26c-1.5,0.2-1.9,0.6-1.9,1.1C63.5,27.6,63.8,27.8,64.3,27.8z"/>
		<path class="st2" d="M69,24.2h-0.8v-0.9l0.8-0.1l0.2-1.5h1.1v1.5h1.4v1h-1.4v2.6c0,0.6,0.2,0.9,0.8,0.9c0.2,0,0.4-0.1,0.6-0.1
			l0.2,0.9c-0.3,0.1-0.7,0.2-1.1,0.2c-1.3,0-1.7-0.8-1.7-2V24.2z"/>
		<path class="st2" d="M75.3,23.1c1.5,0,2.2,1.1,2.2,2.6c0,0.2,0,0.5-0.1,0.6h-3.4c0.1,1,0.7,1.5,1.6,1.5c0.5,0,0.9-0.1,1.3-0.4
			l0.4,0.8c-0.5,0.3-1.2,0.6-1.8,0.6c-1.5,0-2.7-1-2.7-2.8C72.9,24.2,74.1,23.1,75.3,23.1z M76.5,25.4c0-0.9-0.4-1.4-1.1-1.4
			c-0.6,0-1.2,0.5-1.3,1.4H76.5z"/>
		<path class="st2" d="M79.3,23.2h1l0.1,0.7h0c0.5-0.5,1-0.9,1.8-0.9c1.2,0,1.7,0.8,1.7,2.1v3.4h-1.3v-3.2c0-0.9-0.3-1.2-0.8-1.2
			c-0.5,0-0.8,0.2-1.2,0.7v3.8h-1.3V23.2z"/>
		<path class="st2" d="M88.4,23.1c0.7,0,1.2,0.3,1.6,0.6l-0.6,0.8c-0.3-0.3-0.6-0.4-0.9-0.4c-0.9,0-1.5,0.7-1.5,1.8
			c0,1.1,0.6,1.8,1.4,1.8c0.4,0,0.8-0.2,1.1-0.5l0.5,0.8c-0.5,0.5-1.2,0.7-1.8,0.7c-1.5,0-2.6-1-2.6-2.8
			C85.7,24.1,87,23.1,88.4,23.1z"/>
		<path class="st2" d="M91.5,21.6c0-0.4,0.3-0.7,0.8-0.7c0.5,0,0.8,0.3,0.8,0.7c0,0.4-0.3,0.7-0.8,0.7C91.9,22.3,91.5,22,91.5,21.6z
			 M91.7,23.2h1.3v5.4h-1.3V23.2z"/>
		<path class="st2" d="M97.3,23.1c1.4,0,2.6,1,2.6,2.8c0,1.8-1.2,2.8-2.6,2.8c-1.3,0-2.6-1-2.6-2.8C94.8,24.1,96,23.1,97.3,23.1z
			 M97.3,27.7c0.8,0,1.3-0.7,1.3-1.8c0-1.1-0.5-1.8-1.3-1.8c-0.8,0-1.3,0.7-1.3,1.8C96.1,27,96.5,27.7,97.3,27.7z M97.5,22.3h-0.9
			l1-1.6h1.3L97.5,22.3z"/>
		<path class="st2" d="M101.7,23.2h1l0.1,0.7h0c0.5-0.5,1-0.9,1.8-0.9c1.2,0,1.7,0.8,1.7,2.1v3.4H105v-3.2c0-0.9-0.3-1.2-0.8-1.2
			c-0.5,0-0.8,0.2-1.2,0.7v3.8h-1.3V23.2z"/>
		<path class="st2" d="M111.2,23.2h1l0.1,0.7h0c0.5-0.5,1-0.9,1.7-0.9c0.8,0,1.2,0.4,1.5,1c0.5-0.6,1.1-1,1.7-1
			c1.1,0,1.7,0.8,1.7,2.1v3.4h-1.3v-3.2c0-0.9-0.3-1.2-0.8-1.2c-0.3,0-0.7,0.2-1.1,0.7v3.8h-1.3v-3.2c0-0.9-0.3-1.2-0.8-1.2
			c-0.3,0-0.7,0.2-1.1,0.7v3.8h-1.3V23.2z"/>
		<path class="st2" d="M124,25.2c0-0.6-0.3-1.1-1-1.1c-0.5,0-1,0.2-1.5,0.5l-0.5-0.8c0.6-0.4,1.4-0.7,2.2-0.7c1.4,0,2,0.8,2,2.3v3.2
			h-1l-0.1-0.6h0c-0.5,0.4-1,0.7-1.7,0.7c-0.9,0-1.6-0.6-1.6-1.6C120.8,26,121.8,25.4,124,25.2z M122.8,27.8c0.4,0,0.8-0.2,1.2-0.6
			V26c-1.5,0.2-1.9,0.6-1.9,1.1C122,27.6,122.4,27.8,122.8,27.8z"/>
		<path class="st2" d="M127.5,24.2h-0.8v-0.9l0.8-0.1l0.2-1.5h1.1v1.5h1.4v1h-1.4v2.6c0,0.6,0.2,0.9,0.8,0.9c0.2,0,0.4-0.1,0.6-0.1
			l0.2,0.9c-0.3,0.1-0.7,0.2-1.1,0.2c-1.3,0-1.7-0.8-1.7-2V24.2z"/>
		<path class="st2" d="M133.9,23.1c1.5,0,2.2,1.1,2.2,2.6c0,0.2,0,0.5-0.1,0.6h-3.4c0.1,1,0.7,1.5,1.6,1.5c0.5,0,0.9-0.1,1.3-0.4
			l0.4,0.8c-0.5,0.3-1.2,0.6-1.8,0.6c-1.5,0-2.7-1-2.7-2.8C131.4,24.2,132.6,23.1,133.9,23.1z M135,25.4c0-0.9-0.4-1.4-1.1-1.4
			c-0.6,0-1.2,0.5-1.3,1.4H135z"/>
		<path class="st2" d="M137.9,23.2h1l0.1,1h0c0.4-0.7,1-1.1,1.5-1.1c0.3,0,0.5,0,0.6,0.1l-0.2,1.1c-0.2-0.1-0.3-0.1-0.6-0.1
			c-0.4,0-0.9,0.3-1.3,1.1v3.3h-1.3V23.2z"/>
		<path class="st2" d="M142.5,23.2h1l0.1,0.7h0c0.5-0.5,1-0.9,1.8-0.9c1.2,0,1.7,0.8,1.7,2.1v3.4h-1.3v-3.2c0-0.9-0.3-1.2-0.8-1.2
			c-0.5,0-0.8,0.2-1.2,0.7v3.8h-1.3V23.2z"/>
		<path class="st2" d="M152.2,25.2c0-0.6-0.3-1.1-1-1.1c-0.5,0-1,0.2-1.5,0.5l-0.5-0.8c0.6-0.4,1.4-0.7,2.2-0.7c1.4,0,2,0.8,2,2.3
			v3.2h-1l-0.1-0.6h0c-0.5,0.4-1,0.7-1.7,0.7c-0.9,0-1.6-0.6-1.6-1.6C149,26,150,25.4,152.2,25.2z M151,27.8c0.4,0,0.8-0.2,1.2-0.6
			V26c-1.5,0.2-1.9,0.6-1.9,1.1C150.2,27.6,150.6,27.8,151,27.8z"/>
	</g>
</g>
<g>
	<g class="st1">
		<path class="st3" d="M13.5,40.9c0.9,0,1.6,0.4,2,0.9L15,42.4c-0.4-0.4-0.9-0.7-1.5-0.7c-1.4,0-2.4,1.2-2.4,3
			c0,1.9,0.9,3.1,2.3,3.1c0.7,0,1.2-0.3,1.7-0.8l0.5,0.6c-0.6,0.7-1.3,1.1-2.3,1.1c-1.9,0-3.3-1.4-3.3-3.9
			C10.2,42.3,11.6,40.9,13.5,40.9z"/>
		<path class="st3" d="M19.2,42.8c1.4,0,2.6,1.1,2.6,2.9c0,1.8-1.2,2.9-2.6,2.9c-1.4,0-2.6-1.1-2.6-2.9
			C16.6,43.9,17.9,42.8,19.2,42.8z M19.2,47.9c1,0,1.6-0.9,1.6-2.1c0-1.3-0.6-2.1-1.6-2.1c-0.9,0-1.6,0.9-1.6,2.1
			C17.6,47,18.3,47.9,19.2,47.9z"/>
		<path class="st3" d="M23.2,40.4h0.9v2.2l0,1c0.5-0.4,1.1-0.8,1.7-0.8c1.4,0,2.2,1.1,2.2,2.8c0,1.9-1.1,3-2.4,3
			c-0.5,0-1.1-0.3-1.6-0.7h0L24,48.5h-0.8V40.4z M25.5,47.8c0.9,0,1.6-0.8,1.6-2.2c0-1.2-0.4-2-1.5-2c-0.5,0-1,0.3-1.5,0.8v2.9
			C24.7,47.7,25.2,47.8,25.5,47.8z"/>
		<path class="st3" d="M31.7,42.8c1.4,0,2.2,1,2.2,2.6c0,0.2,0,0.4,0,0.5h-3.7c0.1,1.2,0.8,2,1.8,2c0.5,0,1-0.2,1.4-0.4l0.3,0.6
			c-0.5,0.3-1.1,0.6-1.8,0.6c-1.5,0-2.7-1.1-2.7-2.9C29.2,43.9,30.4,42.8,31.7,42.8z M33,45.3c0-1.1-0.5-1.8-1.4-1.8
			c-0.8,0-1.5,0.6-1.6,1.8H33z"/>
		<path class="st3" d="M35.2,43H36l0.1,1h0c0.4-0.7,0.9-1.1,1.6-1.1c0.2,0,0.4,0,0.6,0.1l-0.2,0.8c-0.2-0.1-0.3-0.1-0.5-0.1
			c-0.5,0-1,0.3-1.4,1.3v3.6h-0.9V43z"/>
		<path class="st3" d="M39.4,43.7h-0.8V43l0.9-0.1l0.1-1.6h0.8V43h1.5v0.8h-1.5v3.1c0,0.7,0.2,1.1,0.9,1.1c0.2,0,0.4-0.1,0.6-0.1
			l0.2,0.7c-0.3,0.1-0.7,0.2-1,0.2c-1.2,0-1.6-0.8-1.6-1.8V43.7z"/>
		<path class="st3" d="M42.9,43h0.9v3.4c0,1,0.3,1.5,1,1.5c0.6,0,1-0.3,1.5-0.9V43h0.9v5.5h-0.8l-0.1-0.9h0c-0.5,0.6-1.1,1-1.8,1
			c-1.2,0-1.7-0.8-1.7-2.2V43z"/>
		<path class="st3" d="M49.2,43H50l0.1,1h0c0.4-0.7,0.9-1.1,1.6-1.1c0.2,0,0.4,0,0.6,0.1l-0.2,0.8c-0.2-0.1-0.3-0.1-0.5-0.1
			c-0.5,0-1,0.3-1.4,1.3v3.6h-0.9V43z"/>
		<path class="st3" d="M56,45c0-0.7-0.2-1.4-1.1-1.4c-0.7,0-1.2,0.3-1.7,0.6l-0.4-0.7c0.5-0.3,1.3-0.7,2.2-0.7
			c1.4,0,1.9,0.9,1.9,2.3v3.4h-0.8l-0.1-0.7h0c-0.5,0.4-1.2,0.8-1.8,0.8c-0.9,0-1.6-0.6-1.6-1.6C52.6,45.9,53.7,45.2,56,45z
			 M54.5,47.9c0.5,0,1-0.3,1.5-0.7v-1.5c-1.9,0.2-2.5,0.7-2.5,1.4C53.5,47.6,54,47.9,54.5,47.9z"/>
	</g>
</g>
<line class="st4" x1="9.6" y1="52.9" x2="179.9" y2="52.9"/>
<g class="st5">
	<g class="st1">
		<path class="st2" d="M10.6,60.1h0.9v7.5h-0.9V60.1z"/>
		<path class="st2" d="M13.2,63.8c0-2.4,1.3-3.8,3.2-3.8c1.9,0,3.2,1.5,3.2,3.8c0,2.4-1.3,3.9-3.2,3.9
			C14.5,67.7,13.2,66.2,13.2,63.8z M18.6,63.8c0-1.9-0.9-3-2.2-3c-1.3,0-2.2,1.2-2.2,3c0,1.9,0.9,3.1,2.2,3.1
			C17.7,66.9,18.6,65.7,18.6,63.8z"/>
		<path class="st2" d="M21.2,60.1h0.9v3.1h3.5v-3.1h1v7.5h-1v-3.5h-3.5v3.5h-0.9V60.1z"/>
	</g>
</g>
</svg>
