<?xml version="1.0" encoding="utf-8"?>
<!-- Generator: Adobe Illustrator 20.0.0, SVG Export Plug-In . SVG Version: 6.00 Build 0)  -->
<svg version="1.1" id="Capa_1" xmlns="http://www.w3.org/2000/svg" xmlns:xlink="http://www.w3.org/1999/xlink" x="0px" y="0px"
	 viewBox="0 0 190.5 88.3" style="enable-background:new 0 0 190.5 88.3;" xml:space="preserve">
<style type="text/css">
	.st0{fill:#FFFFFF;stroke:#000000;stroke-width:0.25;stroke-miterlimit:10;}
	.st1{opacity:0.99;enable-background:new    ;}
	.st2{fill:#44B254;}
	.st3{fill:#495E4A;}
	.st4{opacity:0.5;fill:none;stroke:#000000;stroke-width:0.25;stroke-miterlimit:10;enable-background:new    ;}
	.st5{opacity:0.99;}
	.st6{enable-background:new    ;}
</style>
<polygon class="st0" points="190.4,80.4 104.5,80.4 96.9,88.1 89.3,80.4 0.1,80.4 0.1,0.1 190.4,0.1 "/>
<g>
	<g>
		<g class="st6">
			<path class="st2" d="M10.7,7.1h1.5v7.1h3.4v1.2h-4.9V7.1z"/>
			<path class="st2" d="M20.9,11.4c0-0.7-0.3-1.2-1.1-1.2c-0.6,0-1.2,0.3-1.8,0.6l-0.5-1C18.2,9.4,19.1,9,20.1,9
				c1.6,0,2.3,1,2.3,2.7v3.7h-1.2l-0.1-0.7h0c-0.6,0.5-1.2,0.8-1.9,0.8c-1.1,0-1.9-0.7-1.9-1.8C17.3,12.4,18.4,11.7,20.9,11.4z
				 M19.6,14.4c0.5,0,0.9-0.3,1.4-0.7v-1.4c-1.7,0.2-2.2,0.7-2.2,1.3C18.7,14.2,19,14.4,19.6,14.4z"/>
			<path class="st2" d="M27.5,9c0.8,0,1.4,0.3,1.8,0.7l-0.7,0.9c-0.3-0.3-0.7-0.5-1.1-0.5c-1,0-1.7,0.8-1.7,2.1
				c0,1.2,0.7,2.1,1.7,2.1c0.5,0,0.9-0.3,1.3-0.5l0.6,0.9c-0.6,0.5-1.3,0.8-2,0.8c-1.7,0-3-1.2-3-3.3C24.4,10.2,25.8,9,27.5,9z"/>
			<path class="st2" d="M31.5,10.4h-0.9V9.3l1-0.1l0.2-1.7H33v1.7h1.6v1.2H33v3c0,0.7,0.3,1.1,0.9,1.1c0.2,0,0.5-0.1,0.6-0.1
				l0.3,1.1c-0.3,0.1-0.8,0.2-1.3,0.2c-1.4,0-2-0.9-2-2.3V10.4z"/>
			<path class="st2" d="M39.7,11.4c0-0.7-0.3-1.2-1.1-1.2c-0.6,0-1.2,0.3-1.8,0.6l-0.5-1C37,9.4,37.9,9,38.8,9c1.6,0,2.3,1,2.3,2.7
				v3.7H40l-0.1-0.7h0c-0.6,0.5-1.2,0.8-1.9,0.8c-1.1,0-1.9-0.7-1.9-1.8C36,12.4,37.2,11.7,39.7,11.4z M38.4,14.4
				c0.5,0,0.9-0.3,1.4-0.7v-1.4c-1.7,0.2-2.2,0.7-2.2,1.3C37.5,14.2,37.8,14.4,38.4,14.4z"/>
			<path class="st2" d="M43.6,9.2h1.2l0.1,0.8h0.1c0.6-0.5,1.2-1,2-1c1.3,0,1.9,0.9,1.9,2.5v3.9h-1.5v-3.7c0-1-0.3-1.4-1-1.4
				c-0.5,0-0.9,0.3-1.4,0.8v4.3h-1.5V9.2z"/>
			<path class="st2" d="M54,9c0.8,0,1.4,0.3,1.8,0.7l-0.7,0.9c-0.3-0.3-0.7-0.5-1.1-0.5c-1,0-1.7,0.8-1.7,2.1c0,1.2,0.7,2.1,1.7,2.1
				c0.5,0,0.9-0.3,1.3-0.5l0.6,0.9c-0.6,0.5-1.3,0.8-2,0.8c-1.7,0-3-1.2-3-3.3C50.9,10.2,52.4,9,54,9z"/>
			<path class="st2" d="M57.6,7.3c0-0.5,0.4-0.8,0.9-0.8c0.5,0,0.9,0.3,0.9,0.8c0,0.5-0.4,0.8-0.9,0.8C58,8.1,57.6,7.8,57.6,7.3z
				 M57.8,9.2h1.5v6.2h-1.5V9.2z"/>
			<path class="st2" d="M65.2,11.4c0-0.7-0.3-1.2-1.1-1.2c-0.6,0-1.2,0.3-1.8,0.6l-0.5-1C62.4,9.4,63.3,9,64.3,9
				c1.6,0,2.3,1,2.3,2.7v3.7h-1.2l-0.1-0.7h0c-0.6,0.5-1.2,0.8-1.9,0.8c-1.1,0-1.9-0.7-1.9-1.8C61.5,12.4,62.6,11.7,65.2,11.4z
				 M63.8,14.4c0.5,0,0.9-0.3,1.4-0.7v-1.4c-1.7,0.2-2.2,0.7-2.2,1.3C62.9,14.2,63.3,14.4,63.8,14.4z"/>
			<path class="st2" d="M72.3,9.2h1.2l0.1,0.8h0.1c0.5-0.6,1.1-1,1.9-1c0.9,0,1.4,0.4,1.7,1.1c0.6-0.6,1.2-1.1,2-1.1
				c1.3,0,1.9,0.9,1.9,2.5v3.9h-1.5v-3.7c0-1-0.3-1.4-1-1.4c-0.4,0-0.8,0.3-1.3,0.8v4.3H76v-3.7c0-1-0.3-1.4-1-1.4
				c-0.4,0-0.8,0.3-1.3,0.8v4.3h-1.5V9.2z"/>
			<path class="st2" d="M87,11.4c0-0.7-0.3-1.2-1.1-1.2c-0.6,0-1.2,0.3-1.8,0.6l-0.5-1C84.3,9.4,85.1,9,86.1,9c1.6,0,2.3,1,2.3,2.7
				v3.7h-1.2l-0.1-0.7h0c-0.6,0.5-1.2,0.8-1.9,0.8c-1.1,0-1.9-0.7-1.9-1.8C83.3,12.4,84.4,11.7,87,11.4z M85.6,14.4
				c0.5,0,0.9-0.3,1.4-0.7v-1.4c-1.7,0.2-2.2,0.7-2.2,1.3C84.8,14.2,85.1,14.4,85.6,14.4z"/>
			<path class="st2" d="M91.1,10.4h-0.9V9.3l1-0.1l0.2-1.7h1.2v1.7h1.6v1.2h-1.6v3c0,0.7,0.3,1.1,0.9,1.1c0.2,0,0.5-0.1,0.6-0.1
				l0.3,1.1c-0.3,0.1-0.8,0.2-1.3,0.2c-1.4,0-2-0.9-2-2.3V10.4z"/>
			<path class="st2" d="M98.4,9c1.7,0,2.6,1.2,2.6,3c0,0.3,0,0.5-0.1,0.7h-4c0.1,1.1,0.8,1.8,1.8,1.8c0.5,0,1-0.2,1.4-0.5l0.5,0.9
				c-0.6,0.4-1.3,0.7-2.1,0.7c-1.7,0-3.1-1.2-3.1-3.3C95.5,10.3,97,9,98.4,9z M99.7,11.8c0-1-0.4-1.6-1.3-1.6
				c-0.7,0-1.4,0.5-1.5,1.6H99.7z"/>
			<path class="st2" d="M103,9.2h1.2l0.1,1.1h0c0.4-0.8,1.1-1.3,1.8-1.3c0.3,0,0.5,0,0.7,0.1l-0.3,1.3c-0.2-0.1-0.4-0.1-0.6-0.1
				c-0.5,0-1.1,0.3-1.5,1.3v3.8H103V9.2z"/>
			<path class="st2" d="M108.4,9.2h1.2l0.1,0.8h0c0.6-0.5,1.2-1,2-1c1.3,0,1.9,0.9,1.9,2.5v3.9h-1.5v-3.7c0-1-0.3-1.4-1-1.4
				c-0.5,0-0.9,0.3-1.4,0.8v4.3h-1.5V9.2z"/>
			<path class="st2" d="M119.5,11.4c0-0.7-0.3-1.2-1.1-1.2c-0.6,0-1.2,0.3-1.8,0.6l-0.5-1c0.7-0.4,1.6-0.8,2.5-0.8
				c1.6,0,2.3,1,2.3,2.7v3.7h-1.2l-0.1-0.7h0c-0.6,0.5-1.2,0.8-1.9,0.8c-1.1,0-1.9-0.7-1.9-1.8C115.9,12.4,117,11.7,119.5,11.4z
				 M118.2,14.4c0.5,0,0.9-0.3,1.4-0.7v-1.4c-1.7,0.2-2.2,0.7-2.2,1.3C117.3,14.2,117.6,14.4,118.2,14.4z"/>
			<path class="st2" d="M129.1,9c1.7,0,2.6,1.2,2.6,3c0,0.3,0,0.5-0.1,0.7h-4c0.1,1.1,0.8,1.8,1.8,1.8c0.5,0,1-0.2,1.4-0.5l0.5,0.9
				c-0.6,0.4-1.3,0.7-2.1,0.7c-1.7,0-3.1-1.2-3.1-3.3C126.2,10.3,127.6,9,129.1,9z M130.4,11.8c0-1-0.4-1.6-1.3-1.6
				c-0.7,0-1.4,0.5-1.5,1.6H130.4z"/>
			<path class="st2" d="M134.8,12.2l-1.9-3h1.6l0.7,1.2c0.2,0.3,0.4,0.7,0.6,1.1h0.1c0.2-0.3,0.3-0.7,0.5-1.1l0.6-1.2h1.5l-1.8,3.1
				l2,3.1H137l-0.8-1.2c-0.2-0.4-0.4-0.7-0.6-1.1h-0.1c-0.2,0.4-0.4,0.7-0.5,1.1l-0.7,1.2h-1.5L134.8,12.2z"/>
			<path class="st2" d="M142.7,9c0.8,0,1.4,0.3,1.8,0.7l-0.7,0.9c-0.3-0.3-0.7-0.5-1.1-0.5c-1,0-1.7,0.8-1.7,2.1
				c0,1.2,0.7,2.1,1.7,2.1c0.5,0,0.9-0.3,1.3-0.5l0.6,0.9c-0.6,0.5-1.3,0.8-2,0.8c-1.7,0-3-1.2-3-3.3C139.6,10.2,141,9,142.7,9z"/>
			<path class="st2" d="M146.5,6.5h1.5v7.4c0,0.4,0.2,0.5,0.3,0.5c0.1,0,0.1,0,0.2,0l0.2,1.1c-0.2,0.1-0.4,0.1-0.8,0.1
				c-1,0-1.4-0.7-1.4-1.8V6.5z"/>
			<path class="st2" d="M150.5,9.2h1.5v3.7c0,1,0.3,1.4,1,1.4c0.5,0,0.9-0.3,1.4-0.9V9.2h1.5v6.2h-1.2l-0.1-0.9h0
				c-0.5,0.6-1.2,1.1-2,1.1c-1.3,0-1.9-0.9-1.9-2.5V9.2z"/>
			<path class="st2" d="M158.3,13.8c0.6,0.4,1.1,0.7,1.7,0.7c0.7,0,1-0.3,1-0.7c0-0.5-0.7-0.7-1.3-1c-0.8-0.3-1.8-0.8-1.8-1.8
				c0-1.1,0.9-1.9,2.3-1.9c0.9,0,1.6,0.4,2.1,0.7l-0.7,0.9c-0.4-0.3-0.9-0.5-1.4-0.5c-0.6,0-0.9,0.3-0.9,0.7c0,0.5,0.6,0.7,1.3,0.9
				c0.8,0.3,1.8,0.7,1.8,1.9c0,1.1-0.8,1.9-2.4,1.9c-0.8,0-1.8-0.4-2.4-0.9L158.3,13.8z"/>
			<path class="st2" d="M164.2,7.3c0-0.5,0.4-0.8,0.9-0.8c0.5,0,0.9,0.3,0.9,0.8c0,0.5-0.4,0.8-0.9,0.8
				C164.6,8.1,164.2,7.8,164.2,7.3z M164.3,9.2h1.5v6.2h-1.5V9.2z"/>
			<path class="st2" d="M167.5,9.2h1.5l1,3.2c0.2,0.6,0.4,1.2,0.5,1.9h0.1c0.2-0.6,0.4-1.3,0.5-1.9l1-3.2h1.4l-2.1,6.2h-1.7
				L167.5,9.2z"/>
			<path class="st2" d="M178.4,11.4c0-0.7-0.3-1.2-1.1-1.2c-0.6,0-1.2,0.3-1.8,0.6l-0.5-1c0.7-0.4,1.6-0.8,2.5-0.8
				c1.6,0,2.3,1,2.3,2.7v3.7h-1.2l-0.1-0.7h0c-0.6,0.5-1.2,0.8-1.9,0.8c-1.1,0-1.9-0.7-1.9-1.8C174.7,12.4,175.8,11.7,178.4,11.4z
				 M177,14.4c0.5,0,0.9-0.3,1.4-0.7v-1.4c-1.7,0.2-2.2,0.7-2.2,1.3C176.1,14.2,176.5,14.4,177,14.4z"/>
		</g>
		<g class="st6">
			<path class="st2" d="M12.8,23.2c0.7,0,1.2,0.3,1.6,0.7l-0.1-1v-2.3h1.5v9h-1.2L14.5,29h-0.1c-0.5,0.5-1.1,0.8-1.8,0.8
				c-1.6,0-2.6-1.2-2.6-3.3C10.1,24.5,11.4,23.2,12.8,23.2z M13.1,28.6c0.5,0,0.9-0.2,1.3-0.7V25c-0.4-0.4-0.8-0.5-1.3-0.5
				c-0.8,0-1.4,0.7-1.4,2.1C11.7,27.8,12.2,28.6,13.1,28.6z"/>
			<path class="st2" d="M18.3,23.4h1.5v3.7c0,1,0.3,1.4,1,1.4c0.5,0,0.9-0.3,1.4-0.9v-4.3h1.5v6.2h-1.2l-0.1-0.9h0
				c-0.5,0.6-1.2,1.1-2,1.1c-1.3,0-1.9-0.9-1.9-2.5V23.4z"/>
			<path class="st2" d="M26,23.4h1.2l0.1,1.1h0.1c0.4-0.8,1.1-1.3,1.8-1.3c0.3,0,0.5,0,0.7,0.1l-0.3,1.3c-0.2-0.1-0.4-0.1-0.6-0.1
				c-0.5,0-1.1,0.3-1.5,1.3v3.8H26V23.4z"/>
			<path class="st2" d="M34.4,25.6c0-0.7-0.3-1.2-1.1-1.2c-0.6,0-1.2,0.3-1.8,0.6l-0.5-1c0.7-0.4,1.6-0.8,2.5-0.8
				c1.6,0,2.3,1,2.3,2.7v3.7h-1.2l-0.1-0.7h0c-0.6,0.5-1.2,0.8-1.9,0.8c-1.1,0-1.9-0.7-1.9-1.8C30.8,26.6,31.9,25.9,34.4,25.6z
				 M33.1,28.6c0.5,0,0.9-0.3,1.4-0.7v-1.4c-1.7,0.2-2.2,0.7-2.2,1.3C32.2,28.4,32.5,28.6,33.1,28.6z"/>
			<path class="st2" d="M38.3,23.4h1.2l0.1,0.8h0.1c0.6-0.5,1.2-1,2-1c1.3,0,1.9,0.9,1.9,2.5v3.9h-1.5v-3.7c0-1-0.3-1.4-1-1.4
				c-0.5,0-0.9,0.3-1.4,0.8v4.3h-1.5V23.4z"/>
			<path class="st2" d="M46.2,24.6h-0.9v-1.1l1-0.1l0.2-1.7h1.2v1.7h1.6v1.2h-1.6v3c0,0.7,0.3,1.1,0.9,1.1c0.2,0,0.5-0.1,0.6-0.1
				l0.3,1.1c-0.3,0.1-0.8,0.2-1.3,0.2c-1.4,0-2-0.9-2-2.3V24.6z"/>
			<path class="st2" d="M53.6,23.2c1.7,0,2.6,1.2,2.6,3c0,0.3,0,0.5-0.1,0.7h-4c0.1,1.1,0.8,1.8,1.8,1.8c0.5,0,1-0.2,1.4-0.5
				l0.5,0.9c-0.6,0.4-1.3,0.7-2.1,0.7c-1.7,0-3.1-1.2-3.1-3.3C50.7,24.5,52.1,23.2,53.6,23.2z M54.9,26c0-1-0.4-1.6-1.3-1.6
				c-0.7,0-1.4,0.5-1.5,1.6H54.9z"/>
			<path class="st2" d="M65.6,23.2c-0.3-0.4-0.8-0.6-1.3-0.6c-1,0-1.8,0.7-1.9,3c0.5-0.6,1.2-1,1.8-1c1.4,0,2.4,0.8,2.4,2.5
				c0,1.6-1.2,2.7-2.5,2.7c-1.6,0-2.9-1.2-2.9-3.9c0-3.1,1.5-4.4,3.2-4.4c1,0,1.7,0.4,2.2,0.9L65.6,23.2z M65.2,27.1
				c0-1-0.5-1.4-1.3-1.4c-0.5,0-1,0.3-1.4,0.9c0.2,1.4,0.7,2,1.5,2C64.6,28.7,65.2,28.1,65.2,27.1z"/>
			<path class="st2" d="M71.8,23.4H73l0.1,0.8h0c0.5-0.6,1.1-1,1.9-1c0.9,0,1.4,0.4,1.7,1.1c0.6-0.6,1.2-1.1,2-1.1
				c1.3,0,1.9,0.9,1.9,2.5v3.9h-1.5v-3.7c0-1-0.3-1.4-1-1.4c-0.4,0-0.8,0.3-1.3,0.8v4.3h-1.5v-3.7c0-1-0.3-1.4-1-1.4
				c-0.4,0-0.8,0.3-1.3,0.8v4.3h-1.5V23.4z"/>
			<path class="st2" d="M85.6,23.2c1.7,0,2.6,1.2,2.6,3c0,0.3,0,0.5-0.1,0.7h-4c0.1,1.1,0.8,1.8,1.8,1.8c0.5,0,1-0.2,1.4-0.5
				l0.5,0.9c-0.6,0.4-1.3,0.7-2.1,0.7c-1.7,0-3.1-1.2-3.1-3.3C82.7,24.5,84.1,23.2,85.6,23.2z M86.9,26c0-1-0.4-1.6-1.3-1.6
				c-0.7,0-1.4,0.5-1.5,1.6H86.9z"/>
			<path class="st2" d="M90.2,28c0.6,0.4,1.1,0.7,1.7,0.7c0.7,0,1-0.3,1-0.7c0-0.5-0.7-0.7-1.3-1c-0.8-0.3-1.8-0.8-1.8-1.8
				c0-1.1,0.9-1.9,2.3-1.9c0.9,0,1.6,0.4,2.1,0.7l-0.7,0.9c-0.4-0.3-0.9-0.5-1.4-0.5c-0.6,0-0.9,0.3-0.9,0.7c0,0.5,0.6,0.7,1.3,0.9
				c0.8,0.3,1.8,0.7,1.8,1.9c0,1.1-0.8,1.9-2.4,1.9c-0.8,0-1.7-0.4-2.4-0.9L90.2,28z"/>
			<path class="st2" d="M98.7,23.2c1.7,0,2.6,1.2,2.6,3c0,0.3,0,0.5-0.1,0.7h-4c0.1,1.1,0.8,1.8,1.8,1.8c0.5,0,1-0.2,1.4-0.5
				l0.5,0.9c-0.6,0.4-1.3,0.7-2.1,0.7c-1.7,0-3.1-1.2-3.1-3.3C95.9,24.5,97.3,23.2,98.7,23.2z M100,26c0-1-0.4-1.6-1.3-1.6
				c-0.7,0-1.4,0.5-1.5,1.6H100z"/>
			<path class="st2" d="M103.4,28c0.6,0.4,1.1,0.7,1.7,0.7c0.7,0,1-0.3,1-0.7c0-0.5-0.7-0.7-1.3-1c-0.8-0.3-1.8-0.8-1.8-1.8
				c0-1.1,0.9-1.9,2.3-1.9c0.9,0,1.6,0.4,2.1,0.7l-0.7,0.9c-0.4-0.3-0.9-0.5-1.4-0.5c-0.6,0-0.9,0.3-0.9,0.7c0,0.5,0.6,0.7,1.3,0.9
				c0.8,0.3,1.8,0.7,1.8,1.9c0,1.1-0.8,1.9-2.4,1.9c-0.8,0-1.7-0.4-2.4-0.9L103.4,28z"/>
		</g>
	</g>
</g>
<g>
	<g class="st1">
		<path class="st3" d="M13.5,40.9c0.9,0,1.6,0.4,2,0.9L15,42.4c-0.4-0.4-0.9-0.7-1.5-0.7c-1.4,0-2.4,1.2-2.4,3
			c0,1.9,0.9,3.1,2.3,3.1c0.7,0,1.2-0.3,1.7-0.8l0.5,0.6c-0.6,0.7-1.3,1.1-2.3,1.1c-1.9,0-3.3-1.4-3.3-3.9
			C10.2,42.3,11.6,40.9,13.5,40.9z"/>
		<path class="st3" d="M19.2,42.8c1.4,0,2.6,1.1,2.6,2.9c0,1.8-1.2,2.9-2.6,2.9s-2.6-1.1-2.6-2.9C16.6,43.9,17.9,42.8,19.2,42.8z
			 M19.2,47.9c1,0,1.6-0.9,1.6-2.1c0-1.3-0.6-2.1-1.6-2.1c-0.9,0-1.6,0.9-1.6,2.1C17.6,47,18.3,47.9,19.2,47.9z"/>
		<path class="st3" d="M23.2,40.4h0.9v2.2l0,1c0.5-0.4,1.1-0.8,1.7-0.8c1.4,0,2.2,1.1,2.2,2.8c0,1.9-1.1,3-2.4,3
			c-0.5,0-1.1-0.3-1.6-0.7h0L24,48.5h-0.8V40.4z M25.5,47.8c0.9,0,1.6-0.8,1.6-2.2c0-1.2-0.4-2-1.5-2c-0.5,0-1,0.3-1.5,0.8v2.9
			C24.7,47.7,25.2,47.8,25.5,47.8z"/>
		<path class="st3" d="M31.7,42.8c1.4,0,2.2,1,2.2,2.6c0,0.2,0,0.4,0,0.5h-3.7c0.1,1.2,0.8,2,1.8,2c0.5,0,1-0.2,1.4-0.4l0.3,0.6
			c-0.5,0.3-1.1,0.6-1.8,0.6c-1.5,0-2.7-1.1-2.7-2.9C29.2,43.9,30.4,42.8,31.7,42.8z M33,45.3c0-1.1-0.5-1.8-1.4-1.8
			c-0.8,0-1.5,0.6-1.6,1.8H33z"/>
		<path class="st3" d="M35.2,43H36l0.1,1h0c0.4-0.7,0.9-1.1,1.6-1.1c0.2,0,0.4,0,0.6,0.1l-0.2,0.8c-0.2-0.1-0.3-0.1-0.5-0.1
			c-0.5,0-1,0.3-1.4,1.3v3.6h-0.9V43z"/>
		<path class="st3" d="M39.4,43.7h-0.8V43l0.9-0.1l0.1-1.6h0.8V43h1.5v0.8h-1.5v3.1c0,0.7,0.2,1.1,0.9,1.1c0.2,0,0.4-0.1,0.6-0.1
			l0.2,0.7c-0.3,0.1-0.7,0.2-1,0.2c-1.2,0-1.6-0.8-1.6-1.8V43.7z"/>
		<path class="st3" d="M42.9,43h0.9v3.4c0,1,0.3,1.5,1,1.5c0.6,0,1-0.3,1.5-0.9V43h0.9v5.5h-0.8l-0.1-0.9h0c-0.5,0.6-1.1,1-1.8,1
			c-1.2,0-1.7-0.8-1.7-2.2V43z"/>
		<path class="st3" d="M49.2,43H50l0.1,1h0c0.4-0.7,0.9-1.1,1.6-1.1c0.2,0,0.4,0,0.6,0.1l-0.2,0.8c-0.2-0.1-0.3-0.1-0.5-0.1
			c-0.5,0-1,0.3-1.4,1.3v3.6h-0.9V43z"/>
		<path class="st3" d="M56,45c0-0.7-0.2-1.4-1.1-1.4c-0.7,0-1.2,0.3-1.7,0.6l-0.4-0.7c0.5-0.3,1.3-0.7,2.2-0.7
			c1.4,0,1.9,0.9,1.9,2.3v3.4h-0.8l-0.1-0.7h0c-0.5,0.4-1.2,0.8-1.8,0.8c-0.9,0-1.6-0.6-1.6-1.6C52.6,45.9,53.7,45.2,56,45z
			 M54.5,47.9c0.5,0,1-0.3,1.5-0.7v-1.5c-1.9,0.2-2.5,0.7-2.5,1.4C53.5,47.6,54,47.9,54.5,47.9z"/>
	</g>
</g>
<line class="st4" x1="9.6" y1="52.9" x2="179.9" y2="52.9"/>
<g class="st5">
	<g class="st1">
		<path class="st2" d="M10.6,60.1h0.9v7.5h-0.9V60.1z"/>
		<path class="st2" d="M13.2,63.8c0-2.4,1.3-3.8,3.2-3.8c1.9,0,3.2,1.5,3.2,3.8c0,2.4-1.3,3.9-3.2,3.9
			C14.5,67.7,13.2,66.2,13.2,63.8z M18.6,63.8c0-1.9-0.9-3-2.2-3c-1.3,0-2.2,1.2-2.2,3c0,1.9,0.9,3.1,2.2,3.1
			C17.7,66.9,18.6,65.7,18.6,63.8z"/>
		<path class="st2" d="M21.2,60.1h0.9v3.1h3.5v-3.1h1v7.5h-1v-3.5h-3.5v3.5h-0.9V60.1z"/>
	</g>
</g>
</svg>
