<?xml version="1.0" encoding="utf-8"?>
<!-- Generator: Adobe Illustrator 20.0.0, SVG Export Plug-In . SVG Version: 6.00 Build 0)  -->
<svg version="1.1" id="Capa_1" xmlns="http://www.w3.org/2000/svg" xmlns:xlink="http://www.w3.org/1999/xlink" x="0px" y="0px"
	 viewBox="0 0 190.5 88.3" style="enable-background:new 0 0 190.5 88.3;" xml:space="preserve">
<style type="text/css">
	.st0{fill:#FFFFFF;stroke:#000000;stroke-width:0.25;stroke-miterlimit:10;}
	.st1{opacity:0.99;enable-background:new    ;}
	.st2{fill:#44B254;}
	.st3{fill:#495E4A;}
	.st4{opacity:0.5;fill:none;stroke:#000000;stroke-width:0.25;stroke-miterlimit:10;enable-background:new    ;}
	.st5{opacity:0.99;}
	.st6{enable-background:new    ;}
</style>
<polygon class="st0" points="190.4,80.4 104.5,80.4 96.9,88.1 89.3,80.4 0.1,80.4 0.1,0.1 190.4,0.1 "/>
<g class="st5">
	<g class="st6">
		<path class="st2" d="M14.4,15.4l-1.6-2.8h-1.1v2.8h-1.3V8.2h2.4c1.5,0,2.6,0.5,2.6,2.1c0,1.1-0.6,1.8-1.4,2.1l1.7,3H14.4z
			 M11.8,11.6h1c1,0,1.5-0.4,1.5-1.2c0-0.8-0.5-1.1-1.5-1.1h-1V11.6z"/>
		<path class="st2" d="M19.6,9.9c1.5,0,2.2,1.1,2.2,2.6c0,0.2,0,0.5-0.1,0.6h-3.4c0.1,1,0.7,1.5,1.6,1.5c0.5,0,0.9-0.1,1.3-0.4
			l0.4,0.8c-0.5,0.3-1.2,0.6-1.8,0.6c-1.5,0-2.7-1-2.7-2.8C17.1,11,18.3,9.9,19.6,9.9z M20.7,12.2c0-0.9-0.4-1.4-1.1-1.4
			c-0.6,0-1.2,0.5-1.3,1.4H20.7z"/>
		<path class="st2" d="M22.9,10h1.3l0.9,2.8c0.1,0.5,0.3,1.1,0.5,1.6h0c0.2-0.6,0.3-1.1,0.5-1.6l0.9-2.8h1.2l-1.8,5.4h-1.5L22.9,10z
			"/>
		<path class="st2" d="M29.4,8.4c0-0.4,0.3-0.7,0.8-0.7S31,7.9,31,8.4c0,0.4-0.3,0.7-0.8,0.7S29.4,8.8,29.4,8.4z M29.6,10h1.3v5.4
			h-1.3V10z"/>
		<path class="st2" d="M33,14c0.5,0.4,0.9,0.6,1.5,0.6c0.6,0,0.9-0.3,0.9-0.6c0-0.5-0.6-0.6-1.2-0.9c-0.7-0.3-1.5-0.7-1.5-1.6
			c0-0.9,0.8-1.6,2-1.6c0.7,0,1.4,0.3,1.8,0.6l-0.6,0.8c-0.4-0.3-0.8-0.5-1.2-0.5c-0.5,0-0.8,0.3-0.8,0.6c0,0.4,0.5,0.6,1.1,0.8
			c0.7,0.3,1.6,0.6,1.6,1.6c0,0.9-0.7,1.7-2.1,1.7c-0.7,0-1.5-0.3-2-0.7L33,14z"/>
		<path class="st2" d="M38.1,8.4c0-0.4,0.3-0.7,0.8-0.7c0.5,0,0.8,0.3,0.8,0.7c0,0.4-0.3,0.7-0.8,0.7C38.5,9.1,38.1,8.8,38.1,8.4z
			 M38.3,10h1.3v5.4h-1.3V10z"/>
		<path class="st2" d="M43.9,9.9c1.4,0,2.6,1,2.6,2.8c0,1.8-1.2,2.8-2.6,2.8c-1.3,0-2.6-1-2.6-2.8C41.4,10.9,42.6,9.9,43.9,9.9z
			 M43.9,14.5c0.8,0,1.3-0.7,1.3-1.8c0-1.1-0.5-1.8-1.3-1.8c-0.8,0-1.3,0.7-1.3,1.8C42.7,13.8,43.1,14.5,43.9,14.5z M44.1,9.1h-0.9
			l1-1.6h1.3L44.1,9.1z"/>
		<path class="st2" d="M48.3,10h1l0.1,0.7h0c0.5-0.5,1-0.9,1.8-0.9c1.2,0,1.7,0.8,1.7,2.1v3.4h-1.3v-3.2c0-0.9-0.3-1.2-0.8-1.2
			c-0.5,0-0.8,0.2-1.2,0.7v3.8h-1.3V10z"/>
		<path class="st2" d="M57.8,10h1l0.1,0.7h0c0.5-0.5,1-0.9,1.7-0.9c0.8,0,1.2,0.4,1.5,1c0.5-0.6,1.1-1,1.7-1c1.1,0,1.7,0.8,1.7,2.1
			v3.4h-1.3v-3.2c0-0.9-0.3-1.2-0.8-1.2c-0.3,0-0.7,0.2-1.1,0.7v3.8H61v-3.2c0-0.9-0.3-1.2-0.8-1.2c-0.3,0-0.7,0.2-1.1,0.7v3.8h-1.3
			V10z"/>
		<path class="st2" d="M69.8,9.9c1.5,0,2.2,1.1,2.2,2.6c0,0.2,0,0.5-0.1,0.6h-3.4c0.1,1,0.7,1.5,1.6,1.5c0.5,0,0.9-0.1,1.3-0.4
			l0.4,0.8c-0.5,0.3-1.2,0.6-1.8,0.6c-1.5,0-2.7-1-2.7-2.8C67.3,11,68.5,9.9,69.8,9.9z M70.9,12.2c0-0.9-0.4-1.4-1.1-1.4
			c-0.6,0-1.2,0.5-1.3,1.4H70.9z M69.9,9.1H69l1-1.6h1.3L69.9,9.1z"/>
		<path class="st2" d="M75.7,9.9c0.6,0,1,0.2,1.4,0.6l0-0.9v-2h1.3v7.8h-1l-0.1-0.6h0c-0.4,0.4-0.9,0.7-1.5,0.7
			c-1.4,0-2.2-1-2.2-2.8C73.4,11,74.5,9.9,75.7,9.9z M76,14.5c0.4,0,0.8-0.2,1.1-0.6v-2.5c-0.4-0.3-0.7-0.5-1.1-0.5
			c-0.7,0-1.3,0.6-1.3,1.8C74.7,13.9,75.2,14.5,76,14.5z"/>
		<path class="st2" d="M80.4,8.4c0-0.4,0.3-0.7,0.8-0.7c0.5,0,0.8,0.3,0.8,0.7c0,0.4-0.3,0.7-0.8,0.7C80.7,9.1,80.4,8.8,80.4,8.4z
			 M80.5,10h1.3v5.4h-1.3V10z"/>
		<path class="st2" d="M86.3,9.9c0.7,0,1.2,0.3,1.6,0.6l-0.6,0.8c-0.3-0.3-0.6-0.4-0.9-0.4c-0.9,0-1.5,0.7-1.5,1.8
			c0,1.1,0.6,1.8,1.4,1.8c0.4,0,0.8-0.2,1.1-0.5l0.5,0.8c-0.5,0.5-1.2,0.7-1.8,0.7c-1.5,0-2.6-1-2.6-2.8
			C83.6,10.9,84.9,9.9,86.3,9.9z"/>
		<path class="st2" d="M92.4,12c0-0.6-0.3-1.1-1-1.1c-0.5,0-1,0.2-1.5,0.5l-0.5-0.8c0.6-0.4,1.4-0.7,2.2-0.7c1.4,0,2,0.8,2,2.3v3.2
			h-1l-0.1-0.6h0c-0.5,0.4-1,0.7-1.7,0.7c-0.9,0-1.6-0.6-1.6-1.6C89.2,12.8,90.2,12.2,92.4,12z M91.2,14.6c0.4,0,0.8-0.2,1.2-0.6
			v-1.2c-1.5,0.2-1.9,0.6-1.9,1.1C90.5,14.4,90.8,14.6,91.2,14.6z"/>
		<path class="st2" d="M100.5,9.9c0.6,0,1,0.2,1.4,0.6l0-0.9v-2h1.3v7.8h-1l-0.1-0.6h0c-0.4,0.4-0.9,0.7-1.5,0.7
			c-1.4,0-2.2-1-2.2-2.8C98.2,11,99.4,9.9,100.5,9.9z M100.8,14.5c0.4,0,0.8-0.2,1.1-0.6v-2.5c-0.4-0.3-0.7-0.5-1.1-0.5
			c-0.7,0-1.3,0.6-1.3,1.8C99.6,13.9,100,14.5,100.8,14.5z"/>
		<path class="st2" d="M107.5,9.9c1.5,0,2.2,1.1,2.2,2.6c0,0.2,0,0.5-0.1,0.6h-3.4c0.1,1,0.7,1.5,1.6,1.5c0.5,0,0.9-0.1,1.3-0.4
			l0.4,0.8c-0.5,0.3-1.2,0.6-1.8,0.6c-1.5,0-2.7-1-2.7-2.8C105,11,106.2,9.9,107.5,9.9z M108.6,12.2c0-0.9-0.4-1.4-1.1-1.4
			c-0.6,0-1.2,0.5-1.3,1.4H108.6z"/>
		<path class="st2" d="M111.5,7.7h1.3v6.4c0,0.3,0.1,0.4,0.3,0.4c0.1,0,0.1,0,0.2,0l0.2,0.9c-0.2,0.1-0.4,0.1-0.7,0.1
			c-0.9,0-1.2-0.6-1.2-1.5V7.7z"/>
		<path class="st2" d="M117.8,7.7h1.3v2l0,0.9c0.5-0.4,1-0.7,1.6-0.7c1.4,0,2.1,1.1,2.1,2.7c0,1.9-1.1,2.9-2.3,2.9
			c-0.5,0-1-0.2-1.5-0.7h0l-0.1,0.5h-1V7.7z M120.1,14.5c0.7,0,1.3-0.6,1.3-1.9c0-1.1-0.4-1.7-1.2-1.7c-0.4,0-0.8,0.2-1.2,0.6v2.5
			C119.4,14.4,119.8,14.5,120.1,14.5z"/>
		<path class="st2" d="M126.7,9.9c1.5,0,2.2,1.1,2.2,2.6c0,0.2,0,0.5-0.1,0.6h-3.4c0.1,1,0.7,1.5,1.6,1.5c0.5,0,0.9-0.1,1.3-0.4
			l0.4,0.8c-0.5,0.3-1.2,0.6-1.8,0.6c-1.5,0-2.7-1-2.7-2.8C124.2,11,125.4,9.9,126.7,9.9z M127.8,12.2c0-0.9-0.4-1.4-1.1-1.4
			c-0.6,0-1.2,0.5-1.3,1.4H127.8z"/>
		<path class="st2" d="M130.7,7.7h1.3v2l0,0.9c0.5-0.4,1-0.7,1.6-0.7c1.4,0,2.1,1.1,2.1,2.7c0,1.9-1.1,2.9-2.3,2.9
			c-0.5,0-1-0.2-1.5-0.7h0l-0.1,0.5h-1V7.7z M133,14.5c0.7,0,1.3-0.6,1.3-1.9c0-1.1-0.4-1.7-1.2-1.7c-0.4,0-0.8,0.2-1.2,0.6v2.5
			C132.3,14.4,132.7,14.5,133,14.5z"/>
		<path class="st2" d="M139.6,9.9c1.5,0,2.2,1.1,2.2,2.6c0,0.2,0,0.5-0.1,0.6h-3.4c0.1,1,0.7,1.5,1.6,1.5c0.5,0,0.9-0.1,1.3-0.4
			l0.4,0.8c-0.5,0.3-1.2,0.6-1.8,0.6c-1.5,0-2.7-1-2.7-2.8C137.1,11,138.3,9.9,139.6,9.9z M140.7,12.2c0-0.9-0.4-1.4-1.1-1.4
			c-0.6,0-1.2,0.5-1.3,1.4H140.7z M139.7,9.1h-0.9l1-1.6h1.3L139.7,9.1z"/>
		<path class="st2" d="M148.3,9.9c0.6,0,1,0.2,1.4,0.6l0-0.9v-2h1.3v7.8h-1l-0.1-0.6h0c-0.4,0.4-0.9,0.7-1.5,0.7
			c-1.4,0-2.2-1-2.2-2.8C146,11,147.1,9.9,148.3,9.9z M148.6,14.5c0.4,0,0.8-0.2,1.1-0.6v-2.5c-0.4-0.3-0.7-0.5-1.1-0.5
			c-0.7,0-1.3,0.6-1.3,1.8C147.3,13.9,147.8,14.5,148.6,14.5z"/>
		<path class="st2" d="M153.1,10h1.3v3.2c0,0.9,0.3,1.2,0.8,1.2c0.5,0,0.8-0.2,1.2-0.7V10h1.3v5.4h-1l-0.1-0.8h0
			c-0.5,0.6-1,0.9-1.7,0.9c-1.2,0-1.7-0.8-1.7-2.1V10z"/>
		<path class="st2" d="M159.8,10h1l0.1,1h0c0.4-0.7,1-1.1,1.5-1.1c0.3,0,0.5,0,0.6,0.1l-0.2,1.1c-0.2-0.1-0.3-0.1-0.6-0.1
			c-0.4,0-0.9,0.3-1.3,1.1v3.3h-1.3V10z"/>
		<path class="st2" d="M167.1,12c0-0.6-0.3-1.1-1-1.1c-0.5,0-1,0.2-1.5,0.5l-0.5-0.8c0.6-0.4,1.4-0.7,2.2-0.7c1.4,0,2,0.8,2,2.3v3.2
			h-1l-0.1-0.6h0c-0.5,0.4-1,0.7-1.7,0.7c-0.9,0-1.6-0.6-1.6-1.6C163.9,12.8,164.9,12.2,167.1,12z M165.9,14.6
			c0.4,0,0.8-0.2,1.2-0.6v-1.2c-1.5,0.2-1.9,0.6-1.9,1.1C165.1,14.4,165.5,14.6,165.9,14.6z"/>
		<path class="st2" d="M170.4,10h1l0.1,0.7h0c0.5-0.5,1-0.9,1.8-0.9c1.2,0,1.7,0.8,1.7,2.1v3.4h-1.3v-3.2c0-0.9-0.3-1.2-0.8-1.2
			c-0.5,0-0.8,0.2-1.2,0.7v3.8h-1.3V10z"/>
		<path class="st2" d="M177.3,11h-0.8v-0.9l0.8-0.1l0.2-1.5h1.1V10h1.4v1h-1.4v2.6c0,0.6,0.2,0.9,0.8,0.9c0.2,0,0.4-0.1,0.6-0.1
			l0.2,0.9c-0.3,0.1-0.7,0.2-1.1,0.2c-1.3,0-1.7-0.8-1.7-2V11z"/>
		<path class="st2" d="M183.7,9.9c1.5,0,2.2,1.1,2.2,2.6c0,0.2,0,0.5-0.1,0.6h-3.4c0.1,1,0.7,1.5,1.6,1.5c0.5,0,0.9-0.1,1.3-0.4
			l0.4,0.8c-0.5,0.3-1.2,0.6-1.8,0.6c-1.5,0-2.7-1-2.7-2.8C181.2,11,182.4,9.9,183.7,9.9z M184.8,12.2c0-0.9-0.4-1.4-1.1-1.4
			c-0.6,0-1.2,0.5-1.3,1.4H184.8z"/>
	</g>
	<g class="st6">
		<path class="st2" d="M10.4,20.5h1.3v6.4c0,0.3,0.1,0.4,0.3,0.4c0.1,0,0.1,0,0.2,0l0.2,0.9c-0.2,0.1-0.4,0.1-0.7,0.1
			c-0.9,0-1.2-0.6-1.2-1.5V20.5z"/>
		<path class="st2" d="M16.1,22.7c1.4,0,2.6,1,2.6,2.8c0,1.8-1.2,2.8-2.6,2.8c-1.3,0-2.6-1-2.6-2.8C13.6,23.7,14.8,22.7,16.1,22.7z
			 M16.1,27.3c0.8,0,1.3-0.7,1.3-1.8c0-1.1-0.5-1.8-1.3-1.8s-1.3,0.7-1.3,1.8C14.9,26.6,15.4,27.3,16.1,27.3z"/>
		<path class="st2" d="M20.5,26.8c0.5,0.4,0.9,0.6,1.5,0.6c0.6,0,0.9-0.3,0.9-0.6c0-0.5-0.6-0.6-1.2-0.9c-0.7-0.3-1.5-0.7-1.5-1.6
			c0-0.9,0.8-1.6,2-1.6c0.7,0,1.4,0.3,1.8,0.6l-0.6,0.8c-0.4-0.3-0.8-0.5-1.2-0.5c-0.5,0-0.8,0.3-0.8,0.6c0,0.4,0.5,0.6,1.1,0.8
			c0.7,0.3,1.6,0.6,1.6,1.6c0,0.9-0.7,1.7-2.1,1.7c-0.7,0-1.5-0.3-2-0.7L20.5,26.8z"/>
		<path class="st2" d="M28.2,27.5c1.9-1.9,3.2-3.1,3.2-4.2c0-0.7-0.4-1.2-1.2-1.2c-0.5,0-1,0.4-1.4,0.8l-0.7-0.7
			c0.6-0.7,1.3-1.1,2.2-1.1c1.3,0,2.2,0.8,2.2,2.1c0,1.2-1.2,2.5-2.5,4c0.4,0,0.8-0.1,1.2-0.1h1.7v1.1h-4.7V27.5z"/>
		<path class="st2" d="M37.6,22.8h1l0.1,0.7h0c0.5-0.5,1-0.9,1.7-0.9c0.8,0,1.2,0.4,1.5,1c0.5-0.6,1.1-1,1.7-1
			c1.1,0,1.7,0.8,1.7,2.1v3.4H44V25c0-0.9-0.3-1.2-0.8-1.2c-0.3,0-0.7,0.2-1.1,0.7v3.8h-1.3V25c0-0.9-0.3-1.2-0.8-1.2
			c-0.3,0-0.7,0.2-1.1,0.7v3.8h-1.3V22.8z"/>
		<path class="st2" d="M49.5,22.7c1.5,0,2.2,1.1,2.2,2.6c0,0.2,0,0.5-0.1,0.6h-3.4c0.1,1,0.7,1.5,1.6,1.5c0.5,0,0.9-0.1,1.3-0.4
			l0.4,0.8c-0.5,0.3-1.2,0.6-1.8,0.6c-1.5,0-2.7-1-2.7-2.8C47,23.8,48.3,22.7,49.5,22.7z M50.7,25c0-0.9-0.4-1.4-1.1-1.4
			c-0.6,0-1.2,0.5-1.3,1.4H50.7z"/>
		<path class="st2" d="M53.6,26.8c0.5,0.4,0.9,0.6,1.5,0.6c0.6,0,0.9-0.3,0.9-0.6c0-0.5-0.6-0.6-1.2-0.9c-0.7-0.3-1.5-0.7-1.5-1.6
			c0-0.9,0.8-1.6,2-1.6c0.7,0,1.4,0.3,1.8,0.6l-0.6,0.8c-0.4-0.3-0.8-0.5-1.2-0.5c-0.5,0-0.8,0.3-0.8,0.6c0,0.4,0.5,0.6,1.1,0.8
			c0.7,0.3,1.6,0.6,1.6,1.6c0,0.9-0.7,1.7-2.1,1.7c-0.7,0-1.5-0.3-2-0.7L53.6,26.8z"/>
		<path class="st2" d="M60.9,22.7c1.5,0,2.2,1.1,2.2,2.6c0,0.2,0,0.5-0.1,0.6h-3.4c0.1,1,0.7,1.5,1.6,1.5c0.5,0,0.9-0.1,1.3-0.4
			l0.4,0.8c-0.5,0.3-1.2,0.6-1.8,0.6c-1.5,0-2.7-1-2.7-2.8C58.5,23.8,59.7,22.7,60.9,22.7z M62.1,25c0-0.9-0.4-1.4-1.1-1.4
			c-0.6,0-1.2,0.5-1.3,1.4H62.1z"/>
		<path class="st2" d="M65,26.8c0.5,0.4,0.9,0.6,1.5,0.6c0.6,0,0.9-0.3,0.9-0.6c0-0.5-0.6-0.6-1.2-0.9c-0.7-0.3-1.5-0.7-1.5-1.6
			c0-0.9,0.8-1.6,2-1.6c0.7,0,1.4,0.3,1.8,0.6l-0.6,0.8c-0.4-0.3-0.8-0.5-1.2-0.5c-0.5,0-0.8,0.3-0.8,0.6c0,0.4,0.5,0.6,1.1,0.8
			c0.7,0.3,1.6,0.6,1.6,1.6c0,0.9-0.7,1.7-2.1,1.7c-0.7,0-1.5-0.3-2-0.7L65,26.8z"/>
		<path class="st2" d="M73.1,26.8c0.5,0.4,0.9,0.6,1.5,0.6c0.6,0,0.9-0.3,0.9-0.6c0-0.5-0.6-0.6-1.2-0.9c-0.7-0.3-1.5-0.7-1.5-1.6
			c0-0.9,0.8-1.6,2-1.6c0.7,0,1.4,0.3,1.8,0.6L76,24.1c-0.4-0.3-0.8-0.5-1.2-0.5c-0.5,0-0.8,0.3-0.8,0.6c0,0.4,0.5,0.6,1.1,0.8
			c0.7,0.3,1.6,0.6,1.6,1.6c0,0.9-0.7,1.7-2.1,1.7c-0.7,0-1.5-0.3-2-0.7L73.1,26.8z"/>
		<path class="st2" d="M78.2,21.2c0-0.4,0.3-0.7,0.8-0.7c0.5,0,0.8,0.3,0.8,0.7c0,0.4-0.3,0.7-0.8,0.7
			C78.5,21.9,78.2,21.6,78.2,21.2z M78.3,22.8h1.3v5.4h-1.3V22.8z"/>
		<path class="st2" d="M82.2,28L82.2,28c-0.3-0.2-0.5-0.5-0.5-0.9c0-0.4,0.3-0.8,0.6-1v0c-0.4-0.3-0.7-0.8-0.7-1.4
			c0-1.2,1-1.9,2.1-1.9c0.3,0,0.6,0.1,0.8,0.1h1.9v0.9h-1c0.2,0.2,0.3,0.5,0.3,0.9c0,1.2-0.9,1.8-2,1.8c-0.2,0-0.5,0-0.7-0.1
			c-0.2,0.1-0.3,0.3-0.3,0.5c0,0.3,0.2,0.5,0.9,0.5h1c1.3,0,2,0.4,2,1.3c0,1.1-1.1,1.9-2.9,1.9c-1.3,0-2.2-0.5-2.2-1.4
			C81.4,28.7,81.7,28.4,82.2,28z M83.8,29.8c0.9,0,1.5-0.4,1.5-0.9c0-0.4-0.3-0.5-1-0.5h-0.7c-0.3,0-0.5,0-0.7-0.1
			c-0.3,0.2-0.4,0.5-0.4,0.7C82.5,29.5,83,29.8,83.8,29.8z M84.6,24.6c0-0.7-0.4-1.1-0.9-1.1c-0.5,0-0.9,0.4-0.9,1.1
			c0,0.7,0.4,1.1,0.9,1.1C84.2,25.7,84.6,25.3,84.6,24.6z"/>
		<path class="st2" d="M88,22.8h1.3V26c0,0.9,0.3,1.2,0.8,1.2c0.5,0,0.8-0.2,1.2-0.7v-3.7h1.3v5.4h-1l-0.1-0.8h0
			c-0.5,0.6-1,0.9-1.7,0.9c-1.2,0-1.7-0.8-1.7-2.1V22.8z"/>
		<path class="st2" d="M94.6,21.2c0-0.4,0.3-0.7,0.8-0.7s0.8,0.3,0.8,0.7c0,0.4-0.3,0.7-0.8,0.7S94.6,21.6,94.6,21.2z M94.7,22.8H96
			v5.4h-1.3V22.8z"/>
		<path class="st2" d="M100.3,22.7c1.5,0,2.2,1.1,2.2,2.6c0,0.2,0,0.5-0.1,0.6H99c0.1,1,0.7,1.5,1.6,1.5c0.5,0,0.9-0.1,1.3-0.4
			l0.4,0.8c-0.5,0.3-1.2,0.6-1.8,0.6c-1.5,0-2.7-1-2.7-2.8C97.8,23.8,99,22.7,100.3,22.7z M101.4,25c0-0.9-0.4-1.4-1.1-1.4
			c-0.6,0-1.2,0.5-1.3,1.4H101.4z"/>
		<path class="st2" d="M104.3,22.8h1l0.1,0.7h0c0.5-0.5,1-0.9,1.8-0.9c1.2,0,1.7,0.8,1.7,2.1v3.4h-1.3V25c0-0.9-0.3-1.2-0.8-1.2
			c-0.5,0-0.8,0.2-1.2,0.7v3.8h-1.3V22.8z"/>
		<path class="st2" d="M111.2,23.8h-0.8v-0.9l0.8-0.1l0.2-1.5h1.1v1.5h1.4v1h-1.4v2.6c0,0.6,0.2,0.9,0.8,0.9c0.2,0,0.4-0.1,0.6-0.1
			l0.2,0.9c-0.3,0.1-0.7,0.2-1.1,0.2c-1.3,0-1.7-0.8-1.7-2V23.8z"/>
		<path class="st2" d="M117.5,22.7c1.5,0,2.2,1.1,2.2,2.6c0,0.2,0,0.5-0.1,0.6h-3.4c0.1,1,0.7,1.5,1.6,1.5c0.5,0,0.9-0.1,1.3-0.4
			l0.4,0.8c-0.5,0.3-1.2,0.6-1.8,0.6c-1.5,0-2.7-1-2.7-2.8C115,23.8,116.2,22.7,117.5,22.7z M118.6,25c0-0.9-0.4-1.4-1.1-1.4
			c-0.6,0-1.2,0.5-1.3,1.4H118.6z"/>
		<path class="st2" d="M121.6,26.8c0.5,0.4,0.9,0.6,1.5,0.6c0.6,0,0.9-0.3,0.9-0.6c0-0.5-0.6-0.6-1.2-0.9c-0.7-0.3-1.5-0.7-1.5-1.6
			c0-0.9,0.8-1.6,2-1.6c0.7,0,1.4,0.3,1.8,0.6l-0.6,0.8c-0.4-0.3-0.8-0.5-1.2-0.5c-0.5,0-0.8,0.3-0.8,0.6c0,0.4,0.5,0.6,1.1,0.8
			c0.7,0.3,1.6,0.6,1.6,1.6c0,0.9-0.7,1.7-2.1,1.7c-0.7,0-1.5-0.3-2-0.7L121.6,26.8z"/>
		<path class="st2" d="M132.5,24.8c0-0.6-0.3-1.1-1-1.1c-0.5,0-1,0.2-1.5,0.5l-0.5-0.8c0.6-0.4,1.4-0.7,2.2-0.7c1.4,0,2,0.8,2,2.3
			v3.2h-1l-0.1-0.6h0c-0.5,0.4-1,0.7-1.7,0.7c-0.9,0-1.6-0.6-1.6-1.6C129.4,25.6,130.3,25,132.5,24.8z M131.4,27.4
			c0.4,0,0.8-0.2,1.2-0.6v-1.2c-1.5,0.2-1.9,0.6-1.9,1.1C130.6,27.2,130.9,27.4,131.4,27.4z"/>
		<path class="st2" d="M135.9,20.5h1.3v6.4c0,0.3,0.1,0.4,0.3,0.4c0.1,0,0.1,0,0.2,0l0.2,0.9c-0.2,0.1-0.4,0.1-0.7,0.1
			c-0.9,0-1.2-0.6-1.2-1.5V20.5z"/>
		<path class="st2" d="M143.5,28.7v1.7h-1.3v-7.5h1l0.1,0.6h0c0.5-0.4,1-0.7,1.6-0.7c1.3,0,2.1,1.1,2.1,2.8c0,1.8-1.1,2.9-2.3,2.9
			c-0.5,0-0.9-0.2-1.4-0.6L143.5,28.7z M144.6,27.3c0.7,0,1.3-0.6,1.3-1.9c0-1.1-0.4-1.7-1.2-1.7c-0.4,0-0.8,0.2-1.2,0.6v2.5
			C143.9,27.2,144.3,27.3,144.6,27.3z"/>
		<path class="st2" d="M151.8,24.8c0-0.6-0.3-1.1-1-1.1c-0.5,0-1,0.2-1.5,0.5l-0.5-0.8c0.6-0.4,1.4-0.7,2.2-0.7c1.4,0,2,0.8,2,2.3
			v3.2h-1l-0.1-0.6h0c-0.5,0.4-1,0.7-1.7,0.7c-0.9,0-1.6-0.6-1.6-1.6C148.6,25.6,149.6,25,151.8,24.8z M150.6,27.4
			c0.4,0,0.8-0.2,1.2-0.6v-1.2c-1.5,0.2-1.9,0.6-1.9,1.1C149.9,27.2,150.2,27.4,150.6,27.4z"/>
		<path class="st2" d="M155.2,22.8h1l0.1,1h0c0.4-0.7,1-1.1,1.5-1.1c0.3,0,0.5,0,0.6,0.1l-0.2,1.1c-0.2-0.1-0.3-0.1-0.6-0.1
			c-0.4,0-0.9,0.3-1.3,1.1v3.3h-1.3V22.8z"/>
		<path class="st2" d="M160,23.8h-0.8v-0.9l0.8-0.1l0.2-1.5h1.1v1.5h1.4v1h-1.4v2.6c0,0.6,0.2,0.9,0.8,0.9c0.2,0,0.4-0.1,0.6-0.1
			l0.2,0.9c-0.3,0.1-0.7,0.2-1.1,0.2c-1.3,0-1.7-0.8-1.7-2V23.8z"/>
		<path class="st2" d="M166.4,22.7c1.4,0,2.6,1,2.6,2.8c0,1.8-1.2,2.8-2.6,2.8c-1.3,0-2.6-1-2.6-2.8
			C163.9,23.7,165.1,22.7,166.4,22.7z M166.4,27.3c0.8,0,1.3-0.7,1.3-1.8c0-1.1-0.5-1.8-1.3-1.8s-1.3,0.7-1.3,1.8
			C165.2,26.6,165.6,27.3,166.4,27.3z"/>
	</g>
</g>
<g>
	<g class="st1">
		<path class="st3" d="M13.5,40.9c0.9,0,1.6,0.4,2,0.9L15,42.4c-0.4-0.4-0.9-0.7-1.5-0.7c-1.4,0-2.4,1.2-2.4,3
			c0,1.9,0.9,3.1,2.3,3.1c0.7,0,1.2-0.3,1.7-0.8l0.5,0.6c-0.6,0.7-1.3,1.1-2.3,1.1c-1.9,0-3.3-1.4-3.3-3.9
			C10.2,42.3,11.6,40.9,13.5,40.9z"/>
		<path class="st3" d="M19.2,42.8c1.4,0,2.6,1.1,2.6,2.9c0,1.8-1.2,2.9-2.6,2.9s-2.6-1.1-2.6-2.9C16.6,43.9,17.9,42.8,19.2,42.8z
			 M19.2,47.9c1,0,1.6-0.9,1.6-2.1c0-1.3-0.6-2.1-1.6-2.1c-0.9,0-1.6,0.9-1.6,2.1C17.6,47,18.3,47.9,19.2,47.9z"/>
		<path class="st3" d="M23.2,40.4h0.9v2.2l0,1c0.5-0.4,1.1-0.8,1.7-0.8c1.4,0,2.2,1.1,2.2,2.8c0,1.9-1.1,3-2.4,3
			c-0.5,0-1.1-0.3-1.6-0.7h0L24,48.5h-0.8V40.4z M25.5,47.8c0.9,0,1.6-0.8,1.6-2.2c0-1.2-0.4-2-1.5-2c-0.5,0-1,0.3-1.5,0.8v2.9
			C24.7,47.7,25.2,47.8,25.5,47.8z"/>
		<path class="st3" d="M31.7,42.8c1.4,0,2.2,1,2.2,2.6c0,0.2,0,0.4,0,0.5h-3.7c0.1,1.2,0.8,2,1.8,2c0.5,0,1-0.2,1.4-0.4l0.3,0.6
			c-0.5,0.3-1.1,0.6-1.8,0.6c-1.5,0-2.7-1.1-2.7-2.9C29.2,43.9,30.4,42.8,31.7,42.8z M33,45.3c0-1.1-0.5-1.8-1.4-1.8
			c-0.8,0-1.5,0.6-1.6,1.8H33z"/>
		<path class="st3" d="M35.2,43H36l0.1,1h0c0.4-0.7,0.9-1.1,1.6-1.1c0.2,0,0.4,0,0.6,0.1l-0.2,0.8c-0.2-0.1-0.3-0.1-0.5-0.1
			c-0.5,0-1,0.3-1.4,1.3v3.6h-0.9V43z"/>
		<path class="st3" d="M39.4,43.7h-0.8V43l0.9-0.1l0.1-1.6h0.8V43h1.5v0.8h-1.5v3.1c0,0.7,0.2,1.1,0.9,1.1c0.2,0,0.4-0.1,0.6-0.1
			l0.2,0.7c-0.3,0.1-0.7,0.2-1,0.2c-1.2,0-1.6-0.8-1.6-1.8V43.7z"/>
		<path class="st3" d="M42.9,43h0.9v3.4c0,1,0.3,1.5,1,1.5c0.6,0,1-0.3,1.5-0.9V43h0.9v5.5h-0.8l-0.1-0.9h0c-0.5,0.6-1.1,1-1.8,1
			c-1.2,0-1.7-0.8-1.7-2.2V43z"/>
		<path class="st3" d="M49.2,43H50l0.1,1h0c0.4-0.7,0.9-1.1,1.6-1.1c0.2,0,0.4,0,0.6,0.1l-0.2,0.8c-0.2-0.1-0.3-0.1-0.5-0.1
			c-0.5,0-1,0.3-1.4,1.3v3.6h-0.9V43z"/>
		<path class="st3" d="M56,45c0-0.7-0.2-1.4-1.1-1.4c-0.7,0-1.2,0.3-1.7,0.6l-0.4-0.7c0.5-0.3,1.3-0.7,2.2-0.7
			c1.4,0,1.9,0.9,1.9,2.3v3.4h-0.8l-0.1-0.7h0c-0.5,0.4-1.2,0.8-1.8,0.8c-0.9,0-1.6-0.6-1.6-1.6C52.6,45.9,53.7,45.2,56,45z
			 M54.5,47.9c0.5,0,1-0.3,1.5-0.7v-1.5c-1.9,0.2-2.5,0.7-2.5,1.4C53.5,47.6,54,47.9,54.5,47.9z"/>
	</g>
</g>
<line class="st4" x1="9.6" y1="52.9" x2="179.9" y2="52.9"/>
<g class="st5">
	<g class="st1">
		<path class="st2" d="M10.6,60.1h0.9v7.5h-0.9V60.1z"/>
		<path class="st2" d="M13.2,63.8c0-2.4,1.3-3.8,3.2-3.8c1.9,0,3.2,1.5,3.2,3.8c0,2.4-1.3,3.9-3.2,3.9
			C14.5,67.7,13.2,66.2,13.2,63.8z M18.6,63.8c0-1.9-0.9-3-2.2-3c-1.3,0-2.2,1.2-2.2,3c0,1.9,0.9,3.1,2.2,3.1
			C17.7,66.9,18.6,65.7,18.6,63.8z"/>
		<path class="st2" d="M21.2,60.1h0.9v3.1h3.5v-3.1h1v7.5h-1v-3.5h-3.5v3.5h-0.9V60.1z"/>
	</g>
</g>
</svg>
