<?xml version="1.0" encoding="utf-8"?>
<!-- Generator: Adobe Illustrator 20.0.0, SVG Export Plug-In . SVG Version: 6.00 Build 0)  -->
<svg version="1.1" id="Capa_1" xmlns="http://www.w3.org/2000/svg" xmlns:xlink="http://www.w3.org/1999/xlink" x="0px" y="0px"
	 viewBox="0 0 190.6 88.3" style="enable-background:new 0 0 190.6 88.3;" xml:space="preserve">
<style type="text/css">
	.st0{fill:#FFFFFF;stroke:#000000;stroke-width:0.25;stroke-miterlimit:10;}
	.st1{opacity:0.99;enable-background:new    ;}
	.st2{fill:#44B254;}
	.st3{fill:#495E4A;}
	.st4{opacity:0.5;fill:none;stroke:#000000;stroke-width:0.25;stroke-miterlimit:10;enable-background:new    ;}
	.st5{opacity:0.99;}
	.st6{enable-background:new    ;}
</style>
<polygon class="st0" points="190.4,80.5 104.5,80.5 96.9,88.1 89.3,80.5 0.1,80.5 0.1,0.1 190.4,0.1 "/>
<g>
	<g>
		<g class="st1">
			<path class="st2" d="M10.7,8.2h5v1.2h-3.5v2.1h3v1.2h-3v2.4h3.7v1.2h-5.1V8.2z"/>
			<path class="st2" d="M18,14.8c0.6,0.4,1.1,0.7,1.7,0.7c0.7,0,1-0.3,1-0.7c0-0.5-0.7-0.7-1.3-1c-0.8-0.3-1.8-0.8-1.8-1.8
				c0-1.1,0.9-1.9,2.3-1.9c0.9,0,1.6,0.4,2.1,0.7l-0.7,0.9c-0.4-0.3-0.9-0.5-1.4-0.5c-0.6,0-0.9,0.3-0.9,0.7c0,0.5,0.6,0.7,1.3,0.9
				c0.8,0.3,1.8,0.7,1.8,1.9c0,1.1-0.8,1.9-2.4,1.9c-0.8,0-1.7-0.4-2.4-0.9L18,14.8z"/>
			<path class="st2" d="M26.8,10.1c0.8,0,1.4,0.3,1.8,0.7l-0.7,0.9c-0.3-0.3-0.7-0.5-1.1-0.5c-1,0-1.7,0.8-1.7,2.1
				c0,1.2,0.7,2.1,1.7,2.1c0.5,0,0.9-0.3,1.3-0.5l0.6,0.9c-0.6,0.5-1.3,0.8-2,0.8c-1.7,0-3-1.2-3-3.3C23.7,11.3,25.1,10.1,26.8,10.1
				z"/>
			<path class="st2" d="M32.8,10.1c1.6,0,3,1.2,3,3.3c0,2.1-1.4,3.3-3,3.3c-1.5,0-3-1.2-3-3.3C29.9,11.3,31.3,10.1,32.8,10.1z
				 M32.8,15.4c0.9,0,1.5-0.8,1.5-2.1c0-1.3-0.6-2.1-1.5-2.1c-0.9,0-1.5,0.8-1.5,2.1C31.4,14.6,31.9,15.4,32.8,15.4z"/>
			<path class="st2" d="M37.9,7.5h1.5V15c0,0.4,0.2,0.5,0.3,0.5c0.1,0,0.1,0,0.2,0l0.2,1.1c-0.2,0.1-0.4,0.1-0.8,0.1
				c-1,0-1.4-0.7-1.4-1.8V7.5z"/>
			<path class="st2" d="M45.3,12.5c0-0.7-0.3-1.2-1.1-1.2c-0.6,0-1.2,0.3-1.8,0.6l-0.5-1c0.7-0.4,1.6-0.8,2.5-0.8
				c1.6,0,2.3,1,2.3,2.7v3.7h-1.2l-0.1-0.7h0c-0.6,0.5-1.2,0.8-1.9,0.8c-1.1,0-1.9-0.7-1.9-1.8C41.7,13.5,42.8,12.8,45.3,12.5z
				 M44,15.5c0.5,0,0.9-0.3,1.4-0.7v-1.4c-1.7,0.2-2.2,0.7-2.2,1.3C43.1,15.2,43.5,15.5,44,15.5z"/>
			<path class="st2" d="M49.2,10.3h1.2l0.1,1.1h0.1c0.4-0.8,1.1-1.3,1.8-1.3c0.3,0,0.5,0,0.7,0.1l-0.3,1.3c-0.2-0.1-0.4-0.1-0.6-0.1
				c-0.5,0-1.1,0.3-1.5,1.3v3.8h-1.5V10.3z"/>
			<path class="st2" d="M54.4,8.3c0-0.5,0.4-0.8,0.9-0.8s0.9,0.3,0.9,0.8c0,0.5-0.4,0.8-0.9,0.8S54.4,8.8,54.4,8.3z M54.6,10.3H56
				v6.2h-1.5V10.3z"/>
			<path class="st2" d="M58,15.7l2.9-4.3h-2.6v-1.2h4.4V11l-2.9,4.3h3v1.2H58V15.7z"/>
			<path class="st2" d="M68,12.5c0-0.7-0.3-1.2-1.1-1.2c-0.6,0-1.2,0.3-1.8,0.6l-0.5-1c0.7-0.4,1.6-0.8,2.5-0.8c1.6,0,2.3,1,2.3,2.7
				v3.7h-1.2l-0.1-0.7h0c-0.6,0.5-1.2,0.8-1.9,0.8c-1.1,0-1.9-0.7-1.9-1.8C64.3,13.5,65.4,12.8,68,12.5z M66.6,15.5
				c0.5,0,0.9-0.3,1.4-0.7v-1.4c-1.7,0.2-2.2,0.7-2.2,1.3C65.7,15.2,66.1,15.5,66.6,15.5z"/>
			<path class="st2" d="M74.1,10.1c0.7,0,1.2,0.3,1.6,0.7l-0.1-1V7.5h1.5v9h-1.2l-0.1-0.7h-0.1c-0.5,0.5-1.1,0.8-1.8,0.8
				c-1.6,0-2.6-1.2-2.6-3.3C71.4,11.3,72.7,10.1,74.1,10.1z M74.4,15.4c0.5,0,0.9-0.2,1.3-0.7v-2.9c-0.4-0.4-0.8-0.5-1.3-0.5
				c-0.8,0-1.4,0.7-1.4,2.1C73,14.7,73.5,15.4,74.4,15.4z"/>
			<path class="st2" d="M83,12.5c0-0.7-0.3-1.2-1.1-1.2c-0.6,0-1.2,0.3-1.8,0.6l-0.5-1c0.7-0.4,1.6-0.8,2.5-0.8c1.6,0,2.3,1,2.3,2.7
				v3.7h-1.2l-0.1-0.7h0c-0.6,0.5-1.2,0.8-1.9,0.8c-1.1,0-1.9-0.7-1.9-1.8C79.4,13.5,80.5,12.8,83,12.5z M81.7,15.5
				c0.5,0,0.9-0.3,1.4-0.7v-1.4c-1.7,0.2-2.2,0.7-2.2,1.3C80.8,15.2,81.1,15.5,81.7,15.5z"/>
			<path class="st2" d="M86.9,14.8c0.6,0.4,1.1,0.7,1.7,0.7c0.7,0,1-0.3,1-0.7c0-0.5-0.7-0.7-1.3-1c-0.8-0.3-1.8-0.8-1.8-1.8
				c0-1.1,0.9-1.9,2.3-1.9c0.9,0,1.6,0.4,2.1,0.7l-0.7,0.9c-0.4-0.3-0.9-0.5-1.4-0.5c-0.6,0-0.9,0.3-0.9,0.7c0,0.5,0.6,0.7,1.3,0.9
				c0.8,0.3,1.8,0.7,1.8,1.9c0,1.1-0.8,1.9-2.4,1.9c-0.8,0-1.7-0.4-2.4-0.9L86.9,14.8z"/>
		</g>
	</g>
</g>
<g>
	<g class="st1">
		<path class="st3" d="M13.5,40.9c0.9,0,1.6,0.4,2,0.9L15,42.5c-0.4-0.4-0.9-0.7-1.5-0.7c-1.4,0-2.4,1.2-2.4,3
			c0,1.9,0.9,3.1,2.3,3.1c0.7,0,1.2-0.3,1.7-0.8l0.5,0.6c-0.6,0.7-1.3,1.1-2.3,1.1c-1.9,0-3.3-1.4-3.3-3.9
			C10.2,42.4,11.6,40.9,13.5,40.9z"/>
		<path class="st3" d="M19.2,42.9c1.4,0,2.6,1.1,2.6,2.9c0,1.8-1.2,2.9-2.6,2.9c-1.4,0-2.6-1.1-2.6-2.9
			C16.6,43.9,17.9,42.9,19.2,42.9z M19.2,47.9c1,0,1.6-0.9,1.6-2.1c0-1.3-0.6-2.1-1.6-2.1c-0.9,0-1.6,0.9-1.6,2.1
			C17.6,47.1,18.3,47.9,19.2,47.9z"/>
		<path class="st3" d="M23.2,40.4h0.9v2.2l0,1c0.5-0.4,1.1-0.8,1.7-0.8c1.4,0,2.2,1.1,2.2,2.8c0,1.9-1.1,3-2.4,3
			c-0.5,0-1.1-0.3-1.6-0.7h0L24,48.6h-0.8V40.4z M25.5,47.9c0.9,0,1.6-0.8,1.6-2.2c0-1.2-0.4-2-1.5-2c-0.5,0-1,0.3-1.5,0.8v2.9
			C24.7,47.7,25.2,47.9,25.5,47.9z"/>
		<path class="st3" d="M31.7,42.9c1.4,0,2.2,1,2.2,2.6c0,0.2,0,0.4,0,0.5h-3.7c0.1,1.2,0.8,2,1.8,2c0.5,0,1-0.2,1.4-0.4l0.3,0.6
			c-0.5,0.3-1.1,0.6-1.8,0.6c-1.5,0-2.7-1.1-2.7-2.9C29.2,44,30.4,42.9,31.7,42.9z M33,45.4c0-1.1-0.5-1.8-1.4-1.8
			c-0.8,0-1.5,0.6-1.6,1.8H33z"/>
		<path class="st3" d="M35.2,43H36l0.1,1h0c0.4-0.7,0.9-1.1,1.6-1.1c0.2,0,0.4,0,0.6,0.1l-0.2,0.8c-0.2-0.1-0.3-0.1-0.5-0.1
			c-0.5,0-1,0.3-1.4,1.3v3.6h-0.9V43z"/>
		<path class="st3" d="M39.4,43.8h-0.8v-0.7l0.9-0.1l0.1-1.6h0.8V43h1.5v0.8h-1.5v3.1c0,0.7,0.2,1.1,0.9,1.1c0.2,0,0.4-0.1,0.6-0.1
			l0.2,0.7c-0.3,0.1-0.7,0.2-1,0.2c-1.2,0-1.6-0.8-1.6-1.8V43.8z"/>
		<path class="st3" d="M42.9,43h0.9v3.4c0,1,0.3,1.5,1,1.5c0.6,0,1-0.3,1.5-0.9V43h0.9v5.5h-0.8l-0.1-0.9h0c-0.5,0.6-1.1,1-1.8,1
			c-1.2,0-1.7-0.8-1.7-2.2V43z"/>
		<path class="st3" d="M49.2,43H50l0.1,1h0c0.4-0.7,0.9-1.1,1.6-1.1c0.2,0,0.4,0,0.6,0.1l-0.2,0.8c-0.2-0.1-0.3-0.1-0.5-0.1
			c-0.5,0-1,0.3-1.4,1.3v3.6h-0.9V43z"/>
		<path class="st3" d="M56,45c0-0.7-0.2-1.4-1.1-1.4c-0.7,0-1.2,0.3-1.7,0.6l-0.4-0.7c0.5-0.3,1.3-0.7,2.2-0.7
			c1.4,0,1.9,0.9,1.9,2.3v3.4h-0.8l-0.1-0.7h0c-0.5,0.4-1.2,0.8-1.8,0.8c-0.9,0-1.6-0.6-1.6-1.6C52.6,45.9,53.7,45.3,56,45z
			 M54.5,47.9c0.5,0,1-0.3,1.5-0.7v-1.5c-1.9,0.2-2.5,0.7-2.5,1.4C53.5,47.7,54,47.9,54.5,47.9z"/>
	</g>
</g>
<line class="st4" x1="9.6" y1="53" x2="179.9" y2="53"/>
<g class="st5">
	<g class="st1">
		<path class="st2" d="M10.6,60.2h0.9v7.5h-0.9V60.2z"/>
		<path class="st2" d="M13.2,63.9c0-2.4,1.3-3.8,3.2-3.8c1.9,0,3.2,1.5,3.2,3.8c0,2.4-1.3,3.9-3.2,3.9
			C14.5,67.8,13.2,66.3,13.2,63.9z M18.6,63.9c0-1.9-0.9-3-2.2-3c-1.3,0-2.2,1.2-2.2,3c0,1.9,0.9,3.1,2.2,3.1
			C17.7,66.9,18.6,65.7,18.6,63.9z"/>
		<path class="st2" d="M21.2,60.2h0.9v3.1h3.5v-3.1h1v7.5h-1v-3.5h-3.5v3.5h-0.9V60.2z"/>
	</g>
</g>
</svg>
